Vilnius-Regular.ufo
<glyph name="exclam" format="2">
  <advance width="202"/>
  <unicode hex="0021"/>
  <outline>
    <contour>
      <point x="32.999" y="59" type="curve" smooth="yes"/>
      <point x="32.999" y="92.6093"/>
      <point x="61.2841" y="122"/>
      <point x="96" y="122" type="curve" smooth="yes"/>
      <point x="130.713" y="122"/>
      <point x="159" y="92.6136"/>
      <point x="159" y="59" type="curve" smooth="yes"/>
      <point x="159" y="25.3546"/>
      <point x="129.643" y="-4"/>
      <point x="96" y="-4" type="curve" smooth="yes"/>
      <point x="62.3549" y="-4"/>
      <point x="32.999" y="25.3572"/>
    </contour>
    <contour>
      <point x="96" y="167" type="curve" smooth="yes"/>
      <point x="56.147" y="167"/>
      <point x="32.999" y="192.606"/>
      <point x="32.999" y="232" type="curve" smooth="yes"/>
      <point x="32.999" y="284.276"/>
      <point x="51.6442" y="310.521"/>
      <point x="66" y="350" type="curve" smooth="yes"/>
      <point x="70" y="361"/>
      <point x="72" y="374"/>
      <point x="72" y="387" type="curve" smooth="yes"/>
      <point x="72" y="401"/>
      <point x="70" y="413"/>
      <point x="70" y="424" type="curve"/>
      <point x="66" y="457" type="line"/>
      <point x="59.999" y="491" type="line"/>
      <point x="59.999" y="503"/>
      <point x="59.999" y="516"/>
      <point x="59.999" y="531" type="curve" smooth="yes"/>
      <point x="59.999" y="604.096"/>
      <point x="83.8534" y="669.853"/>
      <point x="120" y="706" type="curve" smooth="yes"/>
      <point x="125.165" y="711.165"/>
      <point x="142.161" y="707.482"/>
      <point x="140" y="701" type="curve" smooth="yes"/>
      <point x="127.77" y="667.804"/>
      <point x="107" y="629.354"/>
      <point x="107" y="587" type="curve" smooth="yes"/>
      <point x="107" y="529.207"/>
      <point x="115.864" y="495.339"/>
      <point x="134" y="450" type="curve" smooth="yes"/>
      <point x="150" y="408" type="line" smooth="yes"/>
      <point x="155" y="395"/>
      <point x="158" y="383"/>
      <point x="161" y="370" type="curve" smooth="yes"/>
      <point x="164" y="358"/>
      <point x="168" y="345"/>
      <point x="168" y="332" type="curve" smooth="yes"/>
      <point x="168" y="319"/>
      <point x="171" y="303"/>
      <point x="171" y="285" type="curve" smooth="yes"/>
      <point x="171" y="236.939"/>
      <point x="156.806" y="197.627"/>
      <point x="129" y="176" type="curve" smooth="yes"/>
      <point x="120" y="170"/>
      <point x="109" y="167"/>
    </contour>
  </outline>
</glyph>
<glyph name="dollar" format="2">
  <advance width="483"/>
  <unicode hex="0024"/>
  <outline>
    <contour>
      <point x="65" y="450" type="curve" smooth="yes"/>
      <point x="65" y="544.997"/>
      <point x="138.722" y="603.468"/>
      <point x="230" y="614" type="curve"/>
      <point x="230" y="693" type="line"/>
      <point x="266" y="693" type="line"/>
      <point x="266" y="616" type="line"/>
      <point x="314.579" y="616"/>
      <point x="349.266" y="602.947"/>
      <point x="389" y="595" type="curve"/>
      <point x="403" y="515"/>
      <point x="410.333" y="473.333"/>
      <point x="411" y="470" type="curve"/>
      <point x="382" y="463" type="line"/>
      <point x="372" y="497.667"/>
      <point x="359" y="525"/>
      <point x="343" y="545" type="curve" smooth="yes"/>
      <point x="327" y="565"/>
      <point x="301.333" y="577.667"/>
      <point x="266" y="583" type="curve"/>
      <point x="266" y="366" type="line"/>
      <point x="296" y="354" type="line"/>
      <point x="391.333" y="320"/>
      <point x="439" y="264.333"/>
      <point x="439" y="187" type="curve" smooth="yes"/>
      <point x="439" y="83.3512"/>
      <point x="363.452" y="22.9634"/>
      <point x="266" y="12" type="curve"/>
      <point x="266" y="-75" type="line"/>
      <point x="230" y="-75" type="line"/>
      <point x="230" y="9" type="line"/>
      <point x="168.667" y="9"/>
      <point x="116" y="22.6667"/>
      <point x="72" y="50" type="curve"/>
      <point x="63.3333" y="82"/>
      <point x="54" y="126.667"/>
      <point x="44" y="184" type="curve"/>
      <point x="75" y="191" type="line"/>
      <point x="102.333" y="101.667"/>
      <point x="154" y="52.6667"/>
      <point x="230" y="44" type="curve"/>
      <point x="230" y="280" type="line"/>
      <point x="195" y="295" type="line"/>
      <point x="108.333" y="331"/>
      <point x="65" y="382.667"/>
    </contour>
    <contour>
      <point x="230" y="583" type="line"/>
      <point x="176.417" y="577.046"/>
      <point x="139" y="539.668"/>
      <point x="139" y="484" type="curve" smooth="yes"/>
      <point x="139" y="438"/>
      <point x="169.333" y="403.333"/>
      <point x="230" y="380" type="curve"/>
    </contour>
    <contour>
      <point x="266" y="45" type="line"/>
      <point x="319.726" y="52.4966"/>
      <point x="358" y="90.7824"/>
      <point x="358" y="150" type="curve" smooth="yes"/>
      <point x="358" y="212.506"/>
      <point x="328.106" y="240.126"/>
      <point x="278" y="263" type="curve"/>
      <point x="266" y="268" type="line"/>
    </contour>
  </outline>
</glyph>
<glyph name="percent" format="2">
  <advance width="758"/>
  <unicode hex="0025"/>
  <outline>
    <contour>
      <point x="595" y="628" type="line"/>
      <point x="191" y="-33" type="line"/>
      <point x="159" y="-9" type="line"/>
      <point x="561" y="652" type="line"/>
    </contour>
    <contour>
      <point x="195" y="635" type="curve" smooth="yes"/>
      <point x="241.667" y="635"/>
      <point x="277.667" y="616.333"/>
      <point x="303" y="579" type="curve" smooth="yes"/>
      <point x="328.333" y="541.667"/>
      <point x="341" y="500.333"/>
      <point x="341" y="455" type="curve" smooth="yes"/>
      <point x="341" y="409"/>
      <point x="328.5" y="367.333"/>
      <point x="303.5" y="330" type="curve" smooth="yes"/>
      <point x="278.5" y="292.667"/>
      <point x="242" y="274"/>
      <point x="194" y="274" type="curve" smooth="yes"/>
      <point x="146.667" y="274"/>
      <point x="110.5" y="292.5"/>
      <point x="85.5" y="329.5" type="curve" smooth="yes"/>
      <point x="60.5" y="366.5"/>
      <point x="48" y="408"/>
      <point x="48" y="454" type="curve" smooth="yes"/>
      <point x="48" y="500"/>
      <point x="60.5" y="541.667"/>
      <point x="85.5" y="579" type="curve" smooth="yes"/>
      <point x="110.5" y="616.333"/>
      <point x="147" y="635"/>
    </contour>
    <contour>
      <point x="194" y="604" type="curve" smooth="yes"/>
      <point x="155.431" y="604"/>
      <point x="134.686" y="551.571"/>
      <point x="129.5" y="517" type="curve" smooth="yes"/>
      <point x="126.5" y="497"/>
      <point x="125" y="476.333"/>
      <point x="125" y="455" type="curve" smooth="yes"/>
      <point x="125" y="404.278"/>
      <point x="134.273" y="348.837"/>
      <point x="159.5" y="321" type="curve" smooth="yes"/>
      <point x="169.167" y="310.333"/>
      <point x="181" y="305"/>
      <point x="195" y="305" type="curve" smooth="yes"/>
      <point x="255.126" y="305"/>
      <point x="264" y="395.026"/>
      <point x="264" y="455" type="curve" smooth="yes"/>
      <point x="264" y="516.708"/>
      <point x="255.729" y="604"/>
    </contour>
    <contour>
      <point x="567" y="349" type="curve" smooth="yes"/>
      <point x="613.667" y="349"/>
      <point x="649.667" y="330.333"/>
      <point x="675" y="293" type="curve" smooth="yes"/>
      <point x="700.333" y="255.667"/>
      <point x="713" y="214"/>
      <point x="713" y="168" type="curve" smooth="yes"/>
      <point x="713" y="122.667"/>
      <point x="700.333" y="81.3333"/>
      <point x="675" y="44" type="curve" smooth="yes"/>
      <point x="649.667" y="6.66667"/>
      <point x="613.333" y="-12"/>
      <point x="566" y="-12" type="curve" smooth="yes"/>
      <point x="519.333" y="-12"/>
      <point x="483.167" y="6.66667"/>
      <point x="457.5" y="44" type="curve" smooth="yes"/>
      <point x="431.833" y="81.3333"/>
      <point x="419" y="122.667"/>
      <point x="419" y="168" type="curve" smooth="yes"/>
      <point x="419" y="214"/>
      <point x="431.833" y="255.667"/>
      <point x="457.5" y="293" type="curve" smooth="yes"/>
      <point x="483.167" y="330.333"/>
      <point x="519.667" y="349"/>
    </contour>
    <contour>
      <point x="566" y="318" type="curve" smooth="yes"/>
      <point x="527.403" y="318"/>
      <point x="506.694" y="266.628"/>
      <point x="501.5" y="232" type="curve" smooth="yes"/>
      <point x="498.5" y="212"/>
      <point x="497" y="191"/>
      <point x="497" y="169" type="curve" smooth="yes"/>
      <point x="497" y="118.278"/>
      <point x="506.273" y="62.8369"/>
      <point x="531.5" y="35" type="curve" smooth="yes"/>
      <point x="541.167" y="24.3333"/>
      <point x="553" y="19"/>
      <point x="567" y="19" type="curve" smooth="yes"/>
      <point x="626.122" y="19"/>
      <point x="635" y="109.151"/>
      <point x="635" y="168" type="curve" smooth="yes"/>
      <point x="635" y="218.862"/>
      <point x="628.183" y="275.444"/>
      <point x="602" y="302.5" type="curve" smooth="yes"/>
      <point x="592" y="312.833"/>
      <point x="580" y="318"/>
    </contour>
  </outline>
</glyph>
<glyph name="parenleft" format="2">
  <advance width="319"/>
  <unicode hex="0028"/>
  <outline>
    <contour>
      <point x="408" y="-466" type="curve" smooth="yes"/>
      <point x="414.475" y="-471.036"/>
      <point x="417.156" y="-477.439"/>
      <point x="417.156" y="-483.753" type="curve" smooth="yes"/>
      <point x="417.156" y="-496.523"/>
      <point x="406.188" y="-508.929"/>
      <point x="393.45" y="-508.929" type="curve" smooth="yes"/>
      <point x="389.051" y="-508.929"/>
      <point x="384.441" y="-507.449"/>
      <point x="379.999" y="-503.994" type="curve" smooth="yes"/>
      <point x="264.174" y="-417.616"/>
      <point x="176.627" y="-288.815"/>
      <point x="138.499" y="-125.994" type="curve" smooth="yes"/>
      <point x="126.166" y="-73.3271"/>
      <point x="119.999" y="-17.9941"/>
      <point x="119.999" y="40.0059" type="curve" smooth="yes"/>
      <point x="119.999" y="234.952"/>
      <point x="182.945" y="377.247"/>
      <point x="273.499" y="484.003" type="curve" smooth="yes"/>
      <point x="305.166" y="521.336"/>
      <point x="340.666" y="554.669"/>
      <point x="379.999" y="584.002" type="curve" smooth="yes"/>
      <point x="384.59" y="587.573"/>
      <point x="389.305" y="589.099"/>
      <point x="393.769" y="589.099" type="curve" smooth="yes"/>
      <point x="406.498" y="589.099"/>
      <point x="417.192" y="576.697"/>
      <point x="417.192" y="563.948" type="curve" smooth="yes"/>
      <point x="417.192" y="557.544"/>
      <point x="414.494" y="551.052"/>
      <point x="408" y="546.001" type="curve" smooth="yes"/>
      <point x="300.741" y="464.565"/>
      <point x="219.946" y="352.654"/>
      <point x="185" y="199.501" type="curve" smooth="yes"/>
      <point x="173.667" y="149.834"/>
      <point x="168" y="96.667"/>
      <point x="168" y="40" type="curve" smooth="yes"/>
      <point x="168" y="-137.427"/>
      <point x="227.668" y="-271.699"/>
      <point x="309.5" y="-371" type="curve" smooth="yes"/>
      <point x="339.167" y="-407"/>
      <point x="372" y="-438.667"/>
    </contour>
  </outline>
</glyph>
<glyph name="parenright" format="2">
  <advance width="319"/>
  <unicode hex="0029"/>
  <outline>
    <contour>
      <point x="199" y="40" type="curve" smooth="yes"/>
      <point x="199" y="-151.246"/>
      <point x="133.411" y="-295.176"/>
      <point x="45" y="-402.007" type="curve" smooth="yes"/>
      <point x="13" y="-440.674"/>
      <point x="-22.333" y="-474.674"/>
      <point x="-61" y="-504.007" type="curve" smooth="yes"/>
      <point x="-65.7109" y="-507.671"/>
      <point x="-70.5108" y="-509.234"/>
      <point x="-75.0294" y="-509.234" type="curve" smooth="yes"/>
      <point x="-87.7483" y="-509.234"/>
      <point x="-98.2379" y="-496.854"/>
      <point x="-98.2379" y="-484.125" type="curve" smooth="yes"/>
      <point x="-98.2379" y="-477.647"/>
      <point x="-95.5212" y="-471.079"/>
      <point x="-88.999" y="-466.006" type="curve" smooth="yes"/>
      <point x="17.9927" y="-384.773"/>
      <point x="97.4814" y="-265.784"/>
      <point x="133.501" y="-114.506" type="curve" smooth="yes"/>
      <point x="145.168" y="-65.5059"/>
      <point x="151.001" y="-14.0059"/>
      <point x="151.001" y="39.9941" type="curve" smooth="yes"/>
      <point x="151.001" y="280.589"/>
      <point x="48.8064" y="441.366"/>
      <point x="-88.999" y="545.995" type="curve" smooth="yes"/>
      <point x="-95.5529" y="551.093"/>
      <point x="-98.2691" y="557.579"/>
      <point x="-98.2691" y="563.96" type="curve" smooth="yes"/>
      <point x="-98.2691" y="576.709"/>
      <point x="-87.4277" y="589.038"/>
      <point x="-74.6892" y="589.038" type="curve" smooth="yes"/>
      <point x="-70.2307" y="589.038"/>
      <point x="-65.5398" y="587.527"/>
      <point x="-61" y="583.996" type="curve" smooth="yes"/>
      <point x="54.0617" y="496.71"/>
      <point x="142.63" y="375.767"/>
      <point x="180.5" y="211.999" type="curve" smooth="yes"/>
      <point x="192.833" y="158.666"/>
      <point x="199" y="101.333"/>
    </contour>
  </outline>
</glyph>
<glyph name="plus" format="2">
  <advance width="579"/>
  <unicode hex="002B"/>
  <outline>
    <contour>
      <point x="529" y="229" type="line"/>
      <point x="321" y="229" type="line"/>
      <point x="321" y="0" type="line"/>
      <point x="260" y="0" type="line"/>
      <point x="260" y="229" type="line"/>
      <point x="51" y="229" type="line"/>
      <point x="51" y="281" type="line"/>
      <point x="260" y="281" type="line"/>
      <point x="260" y="487" type="line"/>
      <point x="321" y="487" type="line"/>
      <point x="321" y="281" type="line"/>
      <point x="529" y="281" type="line"/>
    </contour>
  </outline>
</glyph>
<glyph name="comma" format="2">
  <advance width="355"/>
  <unicode hex="002C"/>
  <outline>
    <contour>
      <point x="191" y="-46" type="curve" smooth="yes"/>
      <point x="191" y="-27"/>
      <point x="169" y="-12"/>
      <point x="151" y="-12" type="curve" smooth="yes"/>
      <point x="136" y="-12"/>
      <point x="122" y="-15"/>
      <point x="110" y="-20" type="curve" smooth="yes"/>
      <point x="69" y="-40" type="line"/>
      <point x="57" y="-27" type="line"/>
      <point x="72" y="-13" type="line"/>
      <point x="95" y="4" type="line"/>
      <point x="116" y="22"/>
      <point x="159" y="46"/>
      <point x="188" y="58" type="curve" smooth="yes"/>
      <point x="207" y="66"/>
      <point x="224" y="70"/>
      <point x="237" y="70" type="curve" smooth="yes"/>
      <point x="273" y="70"/>
      <point x="287" y="46"/>
      <point x="287" y="12" type="curve" smooth="yes"/>
      <point x="287" y="-34"/>
      <point x="262" y="-65"/>
      <point x="240" y="-90" type="curve"/>
      <point x="221.519" y="-108.852"/>
      <point x="202.526" y="-127.193"/>
      <point x="183" y="-145" type="curve" smooth="yes"/>
      <point x="156" y="-168"/>
      <point x="129" y="-184"/>
      <point x="99" y="-205" type="curve"/>
      <point x="85" y="-189" type="line"/>
      <point x="118" y="-158"/>
      <point x="164" y="-133"/>
      <point x="184" y="-86" type="curve" smooth="yes"/>
      <point x="188" y="-75"/>
      <point x="191" y="-61"/>
    </contour>
  </outline>
</glyph>
<glyph name="hyphen" format="2">
  <advance width="378"/>
  <unicode hex="002D"/>
  <outline>
    <contour>
      <point x="38" y="305" type="curve"/>
      <point x="341" y="305" type="line"/>
      <point x="344" y="289"/>
      <point x="346" y="273"/>
      <point x="346" y="257" type="curve" smooth="yes"/>
      <point x="346" y="242"/>
      <point x="344" y="227"/>
      <point x="341" y="213" type="curve"/>
      <point x="38" y="213" type="line"/>
      <point x="35" y="227"/>
      <point x="33" y="242"/>
      <point x="33" y="257" type="curve" smooth="yes"/>
      <point x="33" y="273"/>
      <point x="35" y="289"/>
    </contour>
  </outline>
</glyph>
<glyph name="period" format="2">
  <advance width="260"/>
  <unicode hex="002E"/>
  <outline>
    <contour>
      <point x="63" y="53" type="curve" smooth="yes"/>
      <point x="63" y="91"/>
      <point x="96" y="124"/>
      <point x="134" y="124" type="curve" smooth="yes"/>
      <point x="172" y="124"/>
      <point x="205" y="91"/>
      <point x="205" y="53" type="curve" smooth="yes"/>
      <point x="205" y="15"/>
      <point x="172" y="-18"/>
      <point x="134" y="-18" type="curve" smooth="yes"/>
      <point x="96" y="-18"/>
      <point x="63" y="15"/>
    </contour>
  </outline>
</glyph>
<glyph name="slash" format="2">
  <advance width="366"/>
  <unicode hex="002F"/>
  <outline>
    <contour>
      <point x="24" y="-281" type="line"/>
      <point x="-35" y="-281" type="line"/>
      <point x="341" y="768" type="line"/>
      <point x="400" y="768" type="line"/>
    </contour>
  </outline>
</glyph>
<glyph name="zero" format="2">
  <advance width="534"/>
  <unicode hex="0030"/>
  <outline>
    <contour>
      <point x="268" y="454" type="curve" smooth="yes"/>
      <point x="328" y="454"/>
      <point x="379.167" y="433"/>
      <point x="421.5" y="391" type="curve" smooth="yes"/>
      <point x="463.833" y="349"/>
      <point x="485" y="292.667"/>
      <point x="485" y="222" type="curve" smooth="yes"/>
      <point x="485" y="151.333"/>
      <point x="463.5" y="94.6667"/>
      <point x="420.5" y="52" type="curve" smooth="yes"/>
      <point x="377.5" y="9.33333"/>
      <point x="326.333" y="-12"/>
      <point x="267" y="-12" type="curve" smooth="yes"/>
      <point x="206.333" y="-12"/>
      <point x="154.667" y="8.83333"/>
      <point x="112" y="50.5" type="curve" smooth="yes"/>
      <point x="69.3333" y="92.1667"/>
      <point x="48" y="148.333"/>
      <point x="48" y="219" type="curve" smooth="yes"/>
      <point x="48" y="290.333"/>
      <point x="69.5" y="347.333"/>
      <point x="112.5" y="390" type="curve" smooth="yes"/>
      <point x="155.5" y="432.667"/>
      <point x="207.333" y="454"/>
    </contour>
    <contour>
      <point x="401" y="220" type="curve" smooth="yes"/>
      <point x="401" y="317.919"/>
      <point x="356.909" y="407"/>
      <point x="266" y="407" type="curve" smooth="yes"/>
      <point x="177.445" y="407"/>
      <point x="133" y="315.733"/>
      <point x="133" y="220" type="curve" smooth="yes"/>
      <point x="133" y="124.235"/>
      <point x="177.851" y="35"/>
      <point x="267" y="35" type="curve" smooth="yes"/>
      <point x="357.439" y="35"/>
      <point x="401" y="122.87"/>
    </contour>
  </outline>
</glyph>
<glyph name="one" format="2">
  <advance width="345"/>
  <unicode hex="0031"/>
  <outline>
    <contour>
      <point x="316" y="0" type="line"/>
      <point x="49" y="0" type="line"/>
      <point x="49" y="28" type="line"/>
      <point x="101" y="35" type="line" smooth="yes"/>
      <point x="138.233" y="39.468"/>
      <point x="139" y="53.1992"/>
      <point x="139" y="99" type="curve" smooth="yes"/>
      <point x="139" y="320" type="line" smooth="yes"/>
      <point x="139" y="366.034"/>
      <point x="138.523" y="379.48"/>
      <point x="99" y="381" type="curve" smooth="yes"/>
      <point x="41" y="384" type="line"/>
      <point x="41" y="411" type="line"/>
      <point x="103" y="421"/>
      <point x="164.667" y="435.333"/>
      <point x="226" y="454" type="curve"/>
      <point x="226" y="99" type="line" smooth="yes"/>
      <point x="226" y="52.4067"/>
      <point x="227.095" y="40.9048"/>
      <point x="264" y="35" type="curve" smooth="yes"/>
      <point x="316" y="28" type="line"/>
    </contour>
  </outline>
</glyph>
<glyph name="two" format="2">
  <advance width="451"/>
  <unicode hex="0032"/>
  <outline>
    <contour>
      <point x="218" y="454" type="curve" smooth="yes"/>
      <point x="303.777" y="454"/>
      <point x="366" y="395.932"/>
      <point x="366" y="312" type="curve" smooth="yes"/>
      <point x="366" y="268"/>
      <point x="342.667" y="224.333"/>
      <point x="296" y="181" type="curve" smooth="yes"/>
      <point x="283.333" y="168.333"/>
      <point x="240.333" y="133"/>
      <point x="167" y="75" type="curve"/>
      <point x="167" y="73" type="line"/>
      <point x="320" y="73" type="line" smooth="yes"/>
      <point x="343.333" y="73"/>
      <point x="360" y="76.3333"/>
      <point x="370" y="83" type="curve" smooth="yes"/>
      <point x="380" y="89.6667"/>
      <point x="390.667" y="104.333"/>
      <point x="402" y="127" type="curve"/>
      <point x="430" y="122" type="line"/>
      <point x="401" y="0" type="line"/>
      <point x="41" y="0" type="line"/>
      <point x="41" y="24" type="line"/>
      <point x="116.058" y="78.588"/>
      <point x="167.121" y="119.378"/>
      <point x="194.189" y="146.369" type="curve" smooth="yes"/>
      <point x="246.063" y="198.096"/>
      <point x="272" y="246.307"/>
      <point x="272" y="291" type="curve" smooth="yes"/>
      <point x="272" y="347.499"/>
      <point x="238.955" y="385"/>
      <point x="181" y="385" type="curve" smooth="yes"/>
      <point x="149.446" y="385"/>
      <point x="110.976" y="357.224"/>
      <point x="96" y="341" type="curve" smooth="yes"/>
      <point x="88" y="332.333"/>
      <point x="78.6667" y="320.667"/>
      <point x="68" y="306" type="curve"/>
      <point x="45" y="326" type="line"/>
      <point x="97" y="400" type="line"/>
      <point x="131.667" y="436"/>
      <point x="172" y="454"/>
    </contour>
  </outline>
</glyph>
<glyph name="three" format="2">
  <advance width="412"/>
  <unicode hex="0033"/>
  <outline>
    <contour>
      <point x="194" y="454" type="line" smooth="yes"/>
      <point x="272.367" y="454"/>
      <point x="327" y="405.879"/>
      <point x="327" y="329" type="curve" smooth="yes"/>
      <point x="327" y="305"/>
      <point x="316.667" y="282.667"/>
      <point x="296" y="262" type="curve" smooth="yes"/>
      <point x="280.667" y="247.333"/>
      <point x="260" y="231.333"/>
      <point x="234" y="214" type="curve"/>
      <point x="234" y="211" type="line"/>
      <point x="306.432" y="198.149"/>
      <point x="367" y="146.761"/>
      <point x="367" y="67" type="curve" smooth="yes"/>
      <point x="367" y="2.82887"/>
      <point x="332.018" y="-52.8843"/>
      <point x="296" y="-83.5" type="curve" smooth="yes"/>
      <point x="262.142" y="-112.279"/>
      <point x="212.389" y="-142.479"/>
      <point x="167" y="-155" type="curve" smooth="yes"/>
      <point x="147.667" y="-160.333"/>
      <point x="132" y="-163"/>
      <point x="120" y="-163" type="curve" smooth="yes"/>
      <point x="87.3333" y="-163"/>
      <point x="58.3333" y="-152.667"/>
      <point x="33" y="-132" type="curve" smooth="yes"/>
      <point x="23.7436" y="-122.743"/>
      <point x="19.1154" y="-113.309"/>
      <point x="19.1154" y="-103.697" type="curve" smooth="yes"/>
      <point x="19.1154" y="-86.0753"/>
      <point x="29.718" y="-74.3756"/>
      <point x="43" y="-65" type="curve" smooth="yes"/>
      <point x="51.6667" y="-58.3333"/>
      <point x="60.6667" y="-58.6667"/>
      <point x="70" y="-66" type="curve" smooth="yes"/>
      <point x="102" y="-94"/>
      <point x="136.333" y="-108"/>
      <point x="173" y="-108" type="curve" smooth="yes"/>
      <point x="240.081" y="-108"/>
      <point x="275" y="-43.4711"/>
      <point x="275" y="29" type="curve" smooth="yes"/>
      <point x="275" y="100.996"/>
      <point x="231.369" y="151"/>
      <point x="164" y="151" type="curve" smooth="yes"/>
      <point x="142.667" y="151"/>
      <point x="123" y="148"/>
      <point x="105" y="142" type="curve"/>
      <point x="98" y="171" type="line"/>
      <point x="145.333" y="190.333"/>
      <point x="180.667" y="210.667"/>
      <point x="204" y="232" type="curve" smooth="yes"/>
      <point x="227.333" y="253.333"/>
      <point x="239" y="279"/>
      <point x="239" y="309" type="curve" smooth="yes"/>
      <point x="239" y="358.795"/>
      <point x="208.505" y="391"/>
      <point x="160" y="391" type="curve" smooth="yes"/>
      <point x="128" y="391"/>
      <point x="95.6667" y="369.667"/>
      <point x="63" y="327" type="curve"/>
      <point x="41" y="347" type="line"/>
      <point x="83" y="404" type="line"/>
      <point x="113" y="437.333"/>
      <point x="149.667" y="454"/>
      <point x="193" y="454" type="curve" smooth="yes"/>
    </contour>
  </outline>
</glyph>
<glyph name="five" format="2">
  <advance width="405"/>
  <unicode hex="0035"/>
  <outline>
    <contour>
      <point x="125" y="357" type="line"/>
      <point x="106" y="255" type="line"/>
      <point x="236.112" y="249.463"/>
      <point x="353" y="205.247"/>
      <point x="353" y="69" type="curve" smooth="yes"/>
      <point x="353" y="5.66667"/>
      <point x="322.667" y="-47.6667"/>
      <point x="262" y="-91" type="curve" smooth="yes"/>
      <point x="211.93" y="-127.718"/>
      <point x="119.413" y="-161.443"/>
      <point x="40" y="-163" type="curve"/>
      <point x="35" y="-130" type="line"/>
      <point x="93.633" y="-122.005"/>
      <point x="157.532" y="-99.3034"/>
      <point x="199" y="-69" type="curve" smooth="yes"/>
      <point x="231.087" y="-45.5515"/>
      <point x="264" y="-2.25526"/>
      <point x="264" y="52" type="curve" smooth="yes"/>
      <point x="264" y="98"/>
      <point x="243.833" y="130.833"/>
      <point x="203.5" y="150.5" type="curve" smooth="yes"/>
      <point x="163.167" y="170.167"/>
      <point x="113.333" y="180"/>
      <point x="54" y="180" type="curve"/>
      <point x="93" y="431" type="line"/>
      <point x="352" y="454" type="line"/>
      <point x="338" y="376" type="line"/>
    </contour>
  </outline>
</glyph>
<glyph name="six" format="2">
  <advance width="504"/>
  <unicode hex="0036"/>
  <outline>
    <contour>
      <point x="457" y="200" type="curve" smooth="yes"/>
      <point x="457" y="81.9063"/>
      <point x="368.596" y="-12"/>
      <point x="251" y="-12" type="curve" smooth="yes"/>
      <point x="195.667" y="-12"/>
      <point x="148.5" y="8.5"/>
      <point x="109.5" y="49.5" type="curve" smooth="yes"/>
      <point x="70.5" y="90.5"/>
      <point x="51" y="149"/>
      <point x="51" y="225" type="curve" smooth="yes"/>
      <point x="51" y="400.426"/>
      <point x="177.771" y="520.43"/>
      <point x="308" y="573" type="curve" smooth="yes"/>
      <point x="350" y="588.333"/>
      <point x="393.667" y="599.667"/>
      <point x="439" y="607" type="curve"/>
      <point x="445" y="575" type="line"/>
      <point x="397.667" y="563.667"/>
      <point x="357" y="545"/>
      <point x="323" y="519" type="curve"/>
      <point x="252.352" y="480.682"/>
      <point x="190.077" y="417.182"/>
      <point x="165" y="339" type="curve"/>
      <point x="221" y="363" type="line" smooth="yes"/>
      <point x="249.667" y="375"/>
      <point x="270.667" y="381"/>
      <point x="284" y="381" type="curve" smooth="yes"/>
      <point x="387.014" y="381"/>
      <point x="457" y="305.142"/>
    </contour>
    <contour>
      <point x="270" y="25" type="curve" smooth="yes"/>
      <point x="335.201" y="25"/>
      <point x="365" y="84.4735"/>
      <point x="365" y="157" type="curve" smooth="yes"/>
      <point x="365" y="202.333"/>
      <point x="354.5" y="241.333"/>
      <point x="333.5" y="274" type="curve" smooth="yes"/>
      <point x="312.5" y="306.667"/>
      <point x="278.667" y="323"/>
      <point x="232" y="323" type="curve" smooth="yes"/>
      <point x="208.667" y="323"/>
      <point x="183.667" y="316.333"/>
      <point x="157" y="303" type="curve"/>
      <point x="152.333" y="282.333"/>
      <point x="150" y="258.333"/>
      <point x="150" y="231" type="curve" smooth="yes"/>
      <point x="150" y="167.667"/>
      <point x="161.5" y="117.5"/>
      <point x="184.5" y="80.5" type="curve" smooth="yes"/>
      <point x="207.5" y="43.5"/>
      <point x="236" y="25"/>
    </contour>
  </outline>
</glyph>
<glyph name="eight" format="2">
  <advance width="471"/>
  <unicode hex="0038"/>
  <outline>
    <contour>
      <point x="232" y="-12" type="curve" smooth="yes"/>
      <point x="128.538" y="-12"/>
      <point x="47" y="46.2491"/>
      <point x="47" y="148" type="curve" smooth="yes"/>
      <point x="47" y="183.333"/>
      <point x="61" y="213.667"/>
      <point x="89" y="239" type="curve" smooth="yes"/>
      <point x="108.333" y="258.333"/>
      <point x="136" y="278.667"/>
      <point x="172" y="300" type="curve"/>
      <point x="140" y="319.333"/>
      <point x="115.167" y="340.333"/>
      <point x="97.5" y="363" type="curve" smooth="yes"/>
      <point x="79.8333" y="385.667"/>
      <point x="71" y="413.667"/>
      <point x="71" y="447" type="curve" smooth="yes"/>
      <point x="71" y="489.667"/>
      <point x="87.3333" y="526.833"/>
      <point x="120" y="558.5" type="curve" smooth="yes"/>
      <point x="152.667" y="590.167"/>
      <point x="193.667" y="606"/>
      <point x="243" y="606" type="curve" smooth="yes"/>
      <point x="330.678" y="606"/>
      <point x="400" y="547.701"/>
      <point x="400" y="462" type="curve" smooth="yes"/>
      <point x="400" y="433.333"/>
      <point x="390.667" y="408.667"/>
      <point x="372" y="388" type="curve" smooth="yes"/>
      <point x="357.333" y="372"/>
      <point x="333.667" y="352"/>
      <point x="301" y="328" type="curve"/>
      <point x="339.165" y="304.311"/>
      <point x="356.573" y="294.663"/>
      <point x="386" y="264.5" type="curve" smooth="yes"/>
      <point x="410.186" y="239.709"/>
      <point x="425" y="208.973"/>
      <point x="425" y="163" type="curve" smooth="yes"/>
      <point x="425" y="109"/>
      <point x="404.833" y="66.3333"/>
      <point x="364.5" y="35" type="curve" smooth="yes"/>
      <point x="324.167" y="3.66667"/>
      <point x="280" y="-12"/>
    </contour>
    <contour>
      <point x="322" y="460" type="curve" smooth="yes"/>
      <point x="322" y="520.564"/>
      <point x="288.635" y="572"/>
      <point x="234" y="572" type="curve" smooth="yes"/>
      <point x="184.004" y="572"/>
      <point x="151" y="527.383"/>
      <point x="151" y="478" type="curve" smooth="yes"/>
      <point x="151" y="446.667"/>
      <point x="160.833" y="422"/>
      <point x="180.5" y="404" type="curve" smooth="yes"/>
      <point x="200.167" y="386"/>
      <point x="231" y="366"/>
      <point x="273" y="344" type="curve"/>
      <point x="305.667" y="374"/>
      <point x="322" y="412.667"/>
    </contour>
    <contour>
      <point x="132" y="155" type="curve" smooth="yes"/>
      <point x="132" y="82.8794"/>
      <point x="177.419" y="22"/>
      <point x="245" y="22" type="curve" smooth="yes"/>
      <point x="304.392" y="22"/>
      <point x="338" y="70.7886"/>
      <point x="338" y="134" type="curve" smooth="yes"/>
      <point x="338" y="166.667"/>
      <point x="326.5" y="193.5"/>
      <point x="303.5" y="214.5" type="curve" smooth="yes"/>
      <point x="280.5" y="235.5"/>
      <point x="246.333" y="258.333"/>
      <point x="201" y="283" type="curve"/>
      <point x="155" y="248.333"/>
      <point x="132" y="205.667"/>
    </contour>
  </outline>
</glyph>
<glyph name="nine" format="2">
  <advance width="493"/>
  <unicode hex="0039"/>
  <outline>
    <contour>
      <point x="248" y="454" type="curve" smooth="yes"/>
      <point x="310" y="454"/>
      <point x="357.833" y="431.167"/>
      <point x="391.5" y="385.5" type="curve" smooth="yes"/>
      <point x="425.167" y="339.833"/>
      <point x="442" y="285"/>
      <point x="442" y="221" type="curve" smooth="yes"/>
      <point x="442" y="131"/>
      <point x="418.167" y="57"/>
      <point x="370.5" y="-1" type="curve" smooth="yes"/>
      <point x="322.833" y="-59"/>
      <point x="261.667" y="-102"/>
      <point x="187" y="-130" type="curve" smooth="yes"/>
      <point x="137.667" y="-149.333"/>
      <point x="87" y="-160"/>
      <point x="35" y="-162" type="curve"/>
      <point x="29" y="-130" type="line"/>
      <point x="95.6667" y="-118"/>
      <point x="156.833" y="-92.5"/>
      <point x="212.5" y="-53.5" type="curve" smooth="yes"/>
      <point x="268.167" y="-14.5"/>
      <point x="307.667" y="39"/>
      <point x="331" y="107" type="curve"/>
      <point x="294" y="91" type="line" smooth="yes"/>
      <point x="265.333" y="77.6667"/>
      <point x="240" y="71"/>
      <point x="218" y="71" type="curve" smooth="yes"/>
      <point x="172" y="71"/>
      <point x="132.167" y="87.1667"/>
      <point x="98.5" y="119.5" type="curve" smooth="yes"/>
      <point x="64.8333" y="151.833"/>
      <point x="48" y="193.667"/>
      <point x="48" y="245" type="curve" smooth="yes"/>
      <point x="48" y="305.667"/>
      <point x="68" y="355.667"/>
      <point x="108" y="395" type="curve" smooth="yes"/>
      <point x="148" y="434.333"/>
      <point x="194.667" y="454"/>
    </contour>
    <contour>
      <point x="141" y="284" type="curve" smooth="yes"/>
      <point x="141" y="195.262"/>
      <point x="190.204" y="127"/>
      <point x="273" y="127" type="curve" smooth="yes"/>
      <point x="295.667" y="127"/>
      <point x="317" y="132.333"/>
      <point x="337" y="143" type="curve"/>
      <point x="342.333" y="161"/>
      <point x="345" y="186"/>
      <point x="345" y="218" type="curve" smooth="yes"/>
      <point x="345" y="266.311"/>
      <point x="337.091" y="304.998"/>
      <point x="323.5" y="344" type="curve" smooth="yes"/>
      <point x="309.914" y="382.985"/>
      <point x="278.811" y="418"/>
      <point x="229" y="418" type="curve" smooth="yes"/>
      <point x="170.924" y="418"/>
      <point x="141" y="346.619"/>
    </contour>
  </outline>
</glyph>
<glyph name="colon" format="2">
  <advance width="0"/>
  <unicode hex="003A"/>
  <outline>
    <contour>
      <point x="89" y="287" type="line" smooth="yes"/>
      <point x="86" y="287"/>
      <point x="84" y="289"/>
      <point x="84" y="292" type="curve" smooth="yes"/>
      <point x="84" y="385" type="line" smooth="yes"/>
      <point x="84" y="388"/>
      <point x="86" y="390"/>
      <point x="89" y="390" type="curve" smooth="yes"/>
      <point x="214" y="390" type="line" smooth="yes"/>
      <point x="217" y="390"/>
      <point x="219" y="388"/>
      <point x="219" y="385" type="curve" smooth="yes"/>
      <point x="219" y="292" type="line" smooth="yes"/>
      <point x="219" y="289"/>
      <point x="217" y="287"/>
      <point x="214" y="287" type="curve" smooth="yes"/>
    </contour>
    <contour>
      <point x="89" y="7" type="line" smooth="yes"/>
      <point x="86" y="7"/>
      <point x="84" y="9"/>
      <point x="84" y="12" type="curve" smooth="yes"/>
      <point x="84" y="105" type="line" smooth="yes"/>
      <point x="84" y="108"/>
      <point x="86" y="110"/>
      <point x="89" y="110" type="curve" smooth="yes"/>
      <point x="214" y="110" type="line" smooth="yes"/>
      <point x="217" y="110"/>
      <point x="219" y="108"/>
      <point x="219" y="105" type="curve" smooth="yes"/>
      <point x="219" y="12" type="line" smooth="yes"/>
      <point x="219" y="9"/>
      <point x="217" y="7"/>
      <point x="214" y="7" type="curve" smooth="yes"/>
    </contour>
  </outline>
</glyph>
<glyph name="semicolon" format="2">
  <advance width="355"/>
  <unicode hex="003B"/>
  <outline>
    <contour>
      <point x="242" y="68" type="curve" smooth="yes"/>
      <point x="279" y="68"/>
      <point x="292" y="46"/>
      <point x="292" y="10" type="curve" smooth="yes"/>
      <point x="292" y="-10"/>
      <point x="285" y="-29"/>
      <point x="271" y="-48" type="curve" smooth="yes"/>
      <point x="252" y="-74"/>
      <point x="218" y="-104"/>
      <point x="190" y="-123" type="curve" smooth="yes"/>
      <point x="166" y="-139" type="line" smooth="yes"/>
      <point x="149" y="-150"/>
      <point x="134" y="-157"/>
      <point x="116" y="-168" type="curve"/>
      <point x="105" y="-151" type="line"/>
      <point x="115" y="-142"/>
      <point x="121" y="-138"/>
      <point x="130" y="-129" type="curve" smooth="yes"/>
      <point x="144" y="-117" type="line" smooth="yes"/>
      <point x="158" y="-105"/>
      <point x="175" y="-81"/>
      <point x="184" y="-66" type="curve" smooth="yes"/>
      <point x="190" y="-54"/>
      <point x="193" y="-41"/>
      <point x="193" y="-24" type="curve" smooth="yes"/>
      <point x="193" y="-5"/>
      <point x="183" y="4"/>
      <point x="163" y="4" type="curve" smooth="yes"/>
      <point x="148" y="4"/>
      <point x="132" y="-1"/>
      <point x="116" y="-10" type="curve" smooth="yes"/>
      <point x="71" y="-38" type="line"/>
      <point x="57" y="-23" type="line"/>
      <point x="70" y="-10" type="line"/>
      <point x="94" y="9" type="line" smooth="yes"/>
      <point x="117" y="26"/>
      <point x="159" y="48"/>
      <point x="190" y="58" type="curve" smooth="yes"/>
      <point x="211" y="65"/>
      <point x="229" y="68"/>
    </contour>
    <contour>
      <point x="105" y="272" type="curve" smooth="yes"/>
      <point x="105" y="321"/>
      <point x="144" y="361"/>
      <point x="193" y="361" type="curve" smooth="yes"/>
      <point x="242" y="361"/>
      <point x="283" y="321"/>
      <point x="283" y="272" type="curve" smooth="yes"/>
      <point x="283" y="231"/>
      <point x="257" y="204"/>
      <point x="228" y="191" type="curve" smooth="yes"/>
      <point x="217" y="186"/>
      <point x="206" y="184.001"/>
      <point x="194" y="184.001" type="curve" smooth="yes"/>
      <point x="154" y="184.001"/>
      <point x="125" y="209"/>
      <point x="112" y="238" type="curve" smooth="yes"/>
      <point x="107" y="249"/>
      <point x="105" y="260"/>
    </contour>
  </outline>
</glyph>
<glyph name="equal" format="2">
  <advance width="579"/>
  <unicode hex="003D"/>
  <outline>
    <contour>
      <point x="530" y="320" type="line"/>
      <point x="51" y="320" type="line"/>
      <point x="51" y="372" type="line"/>
      <point x="530" y="372" type="line"/>
    </contour>
    <contour>
      <point x="530" y="137" type="line"/>
      <point x="51" y="137" type="line"/>
      <point x="51" y="189" type="line"/>
      <point x="530" y="189" type="line"/>
    </contour>
  </outline>
</glyph>
<glyph name="question" format="2">
  <advance width="382"/>
  <unicode hex="003F"/>
  <outline>
    <contour>
      <point x="100" y="541" type="curve" smooth="yes"/>
      <point x="80" y="541"/>
      <point x="56" y="568"/>
      <point x="56" y="589" type="curve" smooth="yes"/>
      <point x="56" y="621"/>
      <point x="99" y="645"/>
      <point x="127" y="655" type="curve" smooth="yes"/>
      <point x="146" y="662"/>
      <point x="162" y="665"/>
      <point x="173" y="665" type="curve" smooth="yes"/>
      <point x="174" y="665" type="line" smooth="yes"/>
      <point x="215" y="665"/>
      <point x="253" y="648"/>
      <point x="287" y="615" type="curve" smooth="yes"/>
      <point x="320" y="582"/>
      <point x="337" y="544"/>
      <point x="337" y="502" type="curve" smooth="yes"/>
      <point x="337" y="469"/>
      <point x="320" y="438"/>
      <point x="287" y="411" type="curve"/>
      <point x="275" y="403"/>
      <point x="231" y="370"/>
      <point x="220" y="360" type="curve" smooth="yes"/>
      <point x="205" y="348"/>
      <point x="178" y="320"/>
      <point x="178" y="295" type="curve" smooth="yes"/>
      <point x="178" y="270"/>
      <point x="192" y="245"/>
      <point x="221" y="218" type="curve"/>
      <point x="202" y="195" type="line"/>
      <point x="158" y="211"/>
      <point x="88" y="267"/>
      <point x="88" y="325" type="curve" smooth="yes"/>
      <point x="88" y="360"/>
      <point x="117" y="398"/>
      <point x="175" y="440" type="curve" smooth="yes"/>
      <point x="223" y="474"/>
      <point x="253" y="499"/>
      <point x="265" y="517" type="curve" smooth="yes"/>
      <point x="272" y="527"/>
      <point x="275.003" y="537"/>
      <point x="275.003" y="546" type="curve" smooth="yes"/>
      <point x="275.003" y="580"/>
      <point x="253" y="598"/>
      <point x="218" y="598" type="curve" smooth="yes"/>
      <point x="180" y="598"/>
      <point x="141" y="573"/>
      <point x="121" y="556" type="curve" smooth="yes"/>
      <point x="110" y="546"/>
      <point x="103" y="541"/>
    </contour>
    <contour>
      <point x="244" y="50" type="curve" smooth="yes"/>
      <point x="244" y="14"/>
      <point x="220" y="-12"/>
      <point x="184" y="-12" type="curve" smooth="yes"/>
      <point x="150" y="-12"/>
      <point x="126.001" y="15"/>
      <point x="126.001" y="50" type="curve" smooth="yes"/>
      <point x="126.001" y="84"/>
      <point x="151" y="111"/>
      <point x="185" y="111" type="curve" smooth="yes"/>
      <point x="219" y="111"/>
      <point x="244" y="84"/>
    </contour>
  </outline>
</glyph>
<glyph name="at" format="2">
  <advance width="755"/>
  <unicode hex="0040"/>
  <outline>
    <contour>
      <point x="387" y="-51" type="curve" smooth="yes"/>
      <point x="437.628" y="-51"/>
      <point x="514.999" y="-31.5225"/>
      <point x="546" y="-14" type="curve"/>
      <point x="557" y="-42" type="line"/>
      <point x="495" y="-78.6667"/>
      <point x="427.667" y="-97"/>
      <point x="355" y="-97" type="curve" smooth="yes"/>
      <point x="270.333" y="-97"/>
      <point x="198.667" y="-70.3333"/>
      <point x="140" y="-17" type="curve" smooth="yes"/>
      <point x="81.3333" y="36.3333"/>
      <point x="52" y="111.333"/>
      <point x="52" y="208" type="curve" smooth="yes"/>
      <point x="52.6667" y="319.333"/>
      <point x="91" y="409"/>
      <point x="167" y="477" type="curve" smooth="yes"/>
      <point x="243" y="545"/>
      <point x="331.667" y="579"/>
      <point x="433" y="579" type="curve" smooth="yes"/>
      <point x="519.667" y="579"/>
      <point x="588.5" y="554.167"/>
      <point x="639.5" y="504.5" type="curve" smooth="yes"/>
      <point x="690.5" y="454.833"/>
      <point x="716" y="394"/>
      <point x="716" y="322" type="curve" smooth="yes"/>
      <point x="716" y="253.333"/>
      <point x="693" y="194.667"/>
      <point x="647" y="146" type="curve" smooth="yes"/>
      <point x="601" y="97.3333"/>
      <point x="544.333" y="73"/>
      <point x="477" y="73" type="curve" smooth="yes"/>
      <point x="442.656" y="73"/>
      <point x="425.872" y="84.8721"/>
      <point x="425.872" y="115.335" type="curve" smooth="yes"/>
      <point x="425.872" y="124.172"/>
      <point x="427.581" y="134.06"/>
      <point x="431" y="145" type="curve"/>
      <point x="441" y="200" type="line"/>
      <point x="439" y="201" type="line"/>
      <point x="415.631" y="165.047"/>
      <point x="324.407" y="73"/>
      <point x="270" y="73" type="curve" smooth="yes"/>
      <point x="235.158" y="73"/>
      <point x="222" y="116.808"/>
      <point x="222" y="158" type="curve" smooth="yes"/>
      <point x="222" y="230.667"/>
      <point x="248.667" y="293.333"/>
      <point x="302" y="346" type="curve" smooth="yes"/>
      <point x="352.667" y="394.667"/>
      <point x="407" y="419.333"/>
      <point x="465" y="420" type="curve" smooth="yes"/>
      <point x="480.893" y="420"/>
      <point x="525.272" y="408"/>
      <point x="550" y="408" type="curve"/>
      <point x="531.333" y="327.333"/>
      <point x="515.333" y="252"/>
      <point x="502" y="182" type="curve" smooth="yes"/>
      <point x="498.889" y="164.667"/>
      <point x="497.333" y="151.111"/>
      <point x="497.333" y="141.333" type="curve" smooth="yes"/>
      <point x="497.333" y="125.267"/>
      <point x="502.244" y="116.926"/>
      <point x="517.436" y="116.926" type="curve" smooth="yes"/>
      <point x="518.26" y="116.926"/>
      <point x="519.114" y="116.951"/>
      <point x="520" y="117" type="curve" smooth="yes"/>
      <point x="557.333" y="117.667"/>
      <point x="591" y="136.333"/>
      <point x="621" y="173" type="curve" smooth="yes"/>
      <point x="651" y="209.667"/>
      <point x="666" y="259.333"/>
      <point x="666" y="322" type="curve" smooth="yes"/>
      <point x="666" y="458.264"/>
      <point x="566.095" y="539"/>
      <point x="429" y="539" type="curve" smooth="yes"/>
      <point x="337" y="539"/>
      <point x="262.333" y="508.833"/>
      <point x="205" y="448.5" type="curve" smooth="yes"/>
      <point x="147.667" y="388.167"/>
      <point x="119" y="311"/>
      <point x="119" y="217" type="curve" smooth="yes"/>
      <point x="119" y="138.926"/>
      <point x="142.057" y="81.6969"/>
      <point x="178.5" y="34.5" type="curve" smooth="yes"/>
      <point x="219.181" y="-18.1857"/>
      <point x="293.154" y="-51"/>
    </contour>
    <contour>
      <point x="422" y="379" type="curve" smooth="yes"/>
      <point x="364.881" y="379"/>
      <point x="337.324" y="327.66"/>
      <point x="319" y="277" type="curve" smooth="yes"/>
      <point x="307.667" y="245.667"/>
      <point x="302" y="214.667"/>
      <point x="302" y="184" type="curve" smooth="yes"/>
      <point x="301.971" y="182.695"/>
      <point x="301.957" y="181.419"/>
      <point x="301.957" y="180.172" type="curve" smooth="yes"/>
      <point x="301.957" y="152.724"/>
      <point x="308.971" y="139"/>
      <point x="323" y="139" type="curve" smooth="yes"/>
      <point x="333.667" y="139"/>
      <point x="351" y="149.333"/>
      <point x="375" y="170" type="curve" smooth="yes"/>
      <point x="399" y="190.667"/>
      <point x="423.667" y="219.667"/>
      <point x="449" y="257" type="curve"/>
      <point x="457.667" y="283"/>
      <point x="466.667" y="320"/>
      <point x="476" y="368" type="curve"/>
      <point x="460" y="375.333"/>
      <point x="442" y="379"/>
    </contour>
  </outline>
</glyph>
<glyph name="F" format="2">
  <advance width="533"/>
  <unicode hex="0046"/>
  <outline>
    <contour>
      <point x="255" y="614" type="line" smooth="yes"/>
      <point x="224.504" y="614"/>
      <point x="221" y="612.102"/>
      <point x="221" y="582" type="curve" smooth="yes"/>
      <point x="221" y="347" type="line"/>
      <point x="320" y="347" type="line" smooth="yes"/>
      <point x="364" y="347"/>
      <point x="391.5" y="351"/>
      <point x="402.5" y="359" type="curve" smooth="yes"/>
      <point x="413.5" y="367"/>
      <point x="422" y="387.333"/>
      <point x="428" y="420" type="curve"/>
      <point x="458" y="420" type="line"/>
      <point x="458" y="227" type="line"/>
      <point x="428" y="227" type="line"/>
      <point x="422" y="262.333"/>
      <point x="413.5" y="284.333"/>
      <point x="402.5" y="293" type="curve" smooth="yes"/>
      <point x="391.5" y="301.667"/>
      <point x="364" y="306"/>
      <point x="320" y="306" type="curve" smooth="yes"/>
      <point x="221" y="306" type="line"/>
      <point x="221" y="129" type="line" smooth="yes"/>
      <point x="221" y="85.6667"/>
      <point x="226" y="59"/>
      <point x="236" y="49" type="curve" smooth="yes"/>
      <point x="246" y="39"/>
      <point x="273.667" y="32.3333"/>
      <point x="319" y="29" type="curve"/>
      <point x="319" y="0" type="line"/>
      <point x="40" y="0" type="line"/>
      <point x="40" y="29" type="line"/>
      <point x="80" y="32.3333"/>
      <point x="104.5" y="39"/>
      <point x="113.5" y="49" type="curve" smooth="yes"/>
      <point x="122.5" y="59"/>
      <point x="127" y="85.6667"/>
      <point x="127" y="129" type="curve" smooth="yes"/>
      <point x="127" y="522" type="line" smooth="yes"/>
      <point x="127" y="564.667"/>
      <point x="122.667" y="591"/>
      <point x="114" y="601" type="curve" smooth="yes"/>
      <point x="105.333" y="611"/>
      <point x="81.6667" y="617.667"/>
      <point x="43" y="621" type="curve"/>
      <point x="43" y="650" type="line"/>
      <point x="488" y="650" type="line"/>
      <point x="488.667" y="624.667"/>
      <point x="492" y="575.333"/>
      <point x="498" y="502" type="curve"/>
      <point x="468" y="498" type="line"/>
      <point x="459.333" y="536"/>
      <point x="449.333" y="563"/>
      <point x="438" y="579" type="curve" smooth="yes"/>
      <point x="416.965" y="611.362"/>
      <point x="386.289" y="614"/>
      <point x="326" y="614" type="curve" smooth="yes"/>
    </contour>
  </outline>
</glyph>
<glyph name="J" format="2">
  <advance width="335"/>
  <unicode hex="004A"/>
  <outline>
    <contour>
      <point x="309" y="650" type="line"/>
      <point x="309" y="621" type="line"/>
      <point x="264.694" y="617.758"/>
      <point x="240.978" y="615.933"/>
      <point x="231" y="586" type="curve" smooth="yes"/>
      <point x="227" y="574"/>
      <point x="225" y="553.333"/>
      <point x="225" y="524" type="curve" smooth="yes"/>
      <point x="225" y="158" type="line" smooth="yes"/>
      <point x="225" y="26.5096"/>
      <point x="205.274" y="-42.5176"/>
      <point x="136" y="-105" type="curve" smooth="yes"/>
      <point x="103.333" y="-135"/>
      <point x="70.6667" y="-154.667"/>
      <point x="38" y="-164" type="curve"/>
      <point x="25" y="-134" type="line"/>
      <point x="77.6667" y="-109.333"/>
      <point x="109.667" y="-66.6667"/>
      <point x="121" y="-6" type="curve" smooth="yes"/>
      <point x="127.667" y="36"/>
      <point x="131" y="100"/>
      <point x="131" y="186" type="curve" smooth="yes"/>
      <point x="131" y="524" type="line" smooth="yes"/>
      <point x="131" y="566"/>
      <point x="126.333" y="591.833"/>
      <point x="117" y="601.5" type="curve" smooth="yes"/>
      <point x="107.667" y="611.167"/>
      <point x="82.6667" y="617.667"/>
      <point x="42" y="621" type="curve"/>
      <point x="42" y="650" type="line"/>
    </contour>
  </outline>
</glyph>
<glyph name="N" format="2">
  <advance width="743"/>
  <unicode hex="004E"/>
  <outline>
    <contour>
      <point x="720" y="650" type="line"/>
      <point x="720" y="621" type="line"/>
      <point x="667.018" y="618.536"/>
      <point x="641.807" y="607.454"/>
      <point x="636" y="561" type="curve" smooth="yes"/>
      <point x="632" y="519.667"/>
      <point x="630" y="463.667"/>
      <point x="630" y="393" type="curve" smooth="yes"/>
      <point x="630" y="-10" type="line"/>
      <point x="596" y="-10" type="line"/>
      <point x="172" y="510" type="line"/>
      <point x="170" y="510" type="line"/>
      <point x="170" y="264" type="line" smooth="yes"/>
      <point x="170" y="190.667"/>
      <point x="172" y="134.667"/>
      <point x="176" y="96" type="curve" smooth="yes"/>
      <point x="181.982" y="40.6705"/>
      <point x="209.675" y="32.5844"/>
      <point x="273" y="29" type="curve"/>
      <point x="273" y="0" type="line"/>
      <point x="34" y="0" type="line"/>
      <point x="34" y="29" type="line"/>
      <point x="89.7702" y="32.718"/>
      <point x="115.23" y="43.5105"/>
      <point x="121" y="94" type="curve" smooth="yes"/>
      <point x="125.667" y="142"/>
      <point x="128" y="198.667"/>
      <point x="128" y="264" type="curve" smooth="yes"/>
      <point x="128" y="482" type="line" smooth="yes"/>
      <point x="128" y="517.333"/>
      <point x="127" y="540.333"/>
      <point x="125" y="551" type="curve" smooth="yes"/>
      <point x="123" y="561.667"/>
      <point x="117.333" y="572.667"/>
      <point x="108" y="584" type="curve" smooth="yes"/>
      <point x="91.3333" y="605.333"/>
      <point x="62" y="617.667"/>
      <point x="20" y="621" type="curve"/>
      <point x="20" y="650" type="line"/>
      <point x="174" y="650" type="line"/>
      <point x="585" y="160" type="line"/>
      <point x="588" y="160" type="line"/>
      <point x="588" y="393" type="line" smooth="yes"/>
      <point x="588" y="458.333"/>
      <point x="585.667" y="513.667"/>
      <point x="581" y="559" type="curve" smooth="yes"/>
      <point x="574.8" y="610.147"/>
      <point x="543.848" y="617.556"/>
      <point x="483" y="621" type="curve"/>
      <point x="483" y="650" type="line"/>
    </contour>
  </outline>
</glyph>
<glyph name="Z" format="2">
  <advance width="606"/>
  <unicode hex="005A"/>
  <outline>
    <contour>
      <point x="108" y="675" type="line"/>
      <point x="120.116" y="652.114"/>
      <point x="127.603" y="650"/>
      <point x="162" y="650" type="curve" smooth="yes"/>
      <point x="562" y="650" type="line"/>
      <point x="569" y="636" type="line"/>
      <point x="164" y="43" type="line"/>
      <point x="196" y="39"/>
      <point x="247.667" y="37"/>
      <point x="319" y="37" type="curve" smooth="yes"/>
      <point x="378.333" y="37"/>
      <point x="421" y="39.5"/>
      <point x="447" y="44.5" type="curve" smooth="yes"/>
      <point x="473" y="49.5"/>
      <point x="493" y="59.3333"/>
      <point x="507" y="74" type="curve" smooth="yes"/>
      <point x="525.667" y="93.3333"/>
      <point x="544.333" y="128.333"/>
      <point x="563" y="179" type="curve"/>
      <point x="593" y="172" type="line"/>
      <point x="577" y="86.6667"/>
      <point x="565" y="29.3333"/>
      <point x="557" y="0" type="curve"/>
      <point x="38" y="0" type="line"/>
      <point x="29" y="15" type="line"/>
      <point x="442" y="613" type="line"/>
      <point x="278" y="613" type="line" smooth="yes"/>
      <point x="227.333" y="613"/>
      <point x="193.5" y="610.5"/>
      <point x="176.5" y="605.5" type="curve" smooth="yes"/>
      <point x="159.5" y="600.5"/>
      <point x="146.333" y="591"/>
      <point x="137" y="577" type="curve" smooth="yes"/>
      <point x="123" y="556.333"/>
      <point x="111.333" y="527"/>
      <point x="102" y="489" type="curve"/>
      <point x="72" y="489" type="line"/>
      <point x="73.0025" y="513.06"/>
      <point x="83.0644" y="650.675"/>
      <point x="84" y="675" type="curve"/>
    </contour>
  </outline>
</glyph>
<glyph name="bracketleft" format="2">
  <advance width="354"/>
  <unicode hex="005B"/>
  <outline>
    <contour>
      <point x="67" y="-469" type="line"/>
      <point x="67" y="536" type="line"/>
      <point x="303" y="536" type="line"/>
      <point x="303" y="507" type="line"/>
      <point x="183" y="507" type="line"/>
      <point x="183" y="-441" type="line"/>
      <point x="303" y="-441" type="line"/>
      <point x="303" y="-469" type="line"/>
    </contour>
  </outline>
</glyph>
<glyph name="bracketright" format="2">
  <advance width="326"/>
  <unicode hex="005D"/>
  <outline>
    <contour>
      <point x="259" y="-468" type="line"/>
      <point x="23" y="-468" type="line"/>
      <point x="23" y="-440" type="line"/>
      <point x="143" y="-440" type="line"/>
      <point x="143" y="508" type="line"/>
      <point x="23" y="508" type="line"/>
      <point x="23" y="537" type="line"/>
      <point x="259" y="537" type="line"/>
    </contour>
  </outline>
</glyph>
<glyph name="underscore" format="2">
  <advance width="378"/>
  <unicode hex="005F"/>
  <outline>
    <contour>
      <point x="38" y="86" type="curve"/>
      <point x="341" y="86" type="line"/>
      <point x="344" y="70"/>
      <point x="346" y="54"/>
      <point x="346" y="38" type="curve" smooth="yes"/>
      <point x="346" y="23"/>
      <point x="344" y="8"/>
      <point x="341" y="-6" type="curve"/>
      <point x="38" y="-6" type="line"/>
      <point x="35" y="8"/>
      <point x="33" y="23"/>
      <point x="33" y="38" type="curve" smooth="yes"/>
      <point x="33" y="54"/>
      <point x="35" y="70"/>
    </contour>
  </outline>
</glyph>
<glyph name="b" format="2">
  <advance width="513"/>
  <unicode hex="0062"/>
  <outline>
    <contour>
      <point x="160" y="406" type="line"/>
      <point x="233" y="438" type="line" smooth="yes"/>
      <point x="251.667" y="446"/>
      <point x="266.667" y="450"/>
      <point x="278" y="450" type="curve" smooth="yes"/>
      <point x="333.333" y="450"/>
      <point x="380.333" y="429.5"/>
      <point x="419" y="388.5" type="curve" smooth="yes"/>
      <point x="457.667" y="347.5"/>
      <point x="477" y="297.667"/>
      <point x="477" y="239" type="curve" smooth="yes"/>
      <point x="477" y="167"/>
      <point x="452.167" y="107.167"/>
      <point x="402.5" y="59.5" type="curve" smooth="yes"/>
      <point x="352.833" y="11.8333"/>
      <point x="293.333" y="-12"/>
      <point x="224" y="-12" type="curve" smooth="yes"/>
      <point x="175.333" y="-12"/>
      <point x="124.667" y="0"/>
      <point x="72" y="24" type="curve"/>
      <point x="72" y="577" type="line" smooth="yes"/>
      <point x="72" y="608.333"/>
      <point x="68.8333" y="627.667"/>
      <point x="62.5" y="635" type="curve" smooth="yes"/>
      <point x="56.1667" y="642.333"/>
      <point x="37.6667" y="647.333"/>
      <point x="7" y="650" type="curve"/>
      <point x="7" y="675" type="line"/>
      <point x="61" y="681.667"/>
      <point x="112" y="693.333"/>
      <point x="160" y="710" type="curve"/>
    </contour>
    <contour>
      <point x="379" y="213" type="curve" smooth="yes"/>
      <point x="379" y="312.921"/>
      <point x="324.814" y="392"/>
      <point x="231" y="392" type="curve" smooth="yes"/>
      <point x="205" y="392"/>
      <point x="181.333" y="386.667"/>
      <point x="160" y="376" type="curve"/>
      <point x="160" y="115" type="line" smooth="yes"/>
      <point x="160" y="79.3824"/>
      <point x="170.552" y="63.1264"/>
      <point x="194.5" y="44.5" type="curve" smooth="yes"/>
      <point x="209.5" y="32.8333"/>
      <point x="227.667" y="27"/>
      <point x="249" y="27" type="curve" smooth="yes"/>
      <point x="249.784" y="26.9869"/>
      <point x="250.565" y="26.9804"/>
      <point x="251.343" y="26.9804" type="curve" smooth="yes"/>
      <point x="341.531" y="26.9804"/>
      <point x="379" y="115.115"/>
    </contour>
  </outline>
</glyph>
<glyph name="d" format="2">
  <advance width="531"/>
  <unicode hex="0064"/>
  <outline>
    <contour>
      <point x="522" y="52" type="line"/>
      <point x="522" y="26" type="line"/>
      <point x="448.667" y="12.6667"/>
      <point x="394.333" y="0"/>
      <point x="359" y="-12" type="curve"/>
      <point x="359" y="52" type="line"/>
      <point x="298" y="15" type="line" smooth="yes"/>
      <point x="268" y="-3"/>
      <point x="243.667" y="-12"/>
      <point x="225" y="-12" type="curve" smooth="yes"/>
      <point x="179" y="-12"/>
      <point x="136" y="7.33333"/>
      <point x="96" y="46" type="curve" smooth="yes"/>
      <point x="56" y="84.6667"/>
      <point x="36" y="136.667"/>
      <point x="36" y="202" type="curve" smooth="yes"/>
      <point x="36" y="270.667"/>
      <point x="61.8333" y="329.167"/>
      <point x="113.5" y="377.5" type="curve" smooth="yes"/>
      <point x="165.167" y="425.833"/>
      <point x="226.333" y="450"/>
      <point x="297" y="450" type="curve" smooth="yes"/>
      <point x="316.333" y="450"/>
      <point x="337" y="446.667"/>
      <point x="359" y="440" type="curve"/>
      <point x="359" y="578" type="line" smooth="yes"/>
      <point x="359" y="609.333"/>
      <point x="355.333" y="628.5"/>
      <point x="348" y="635.5" type="curve" smooth="yes"/>
      <point x="340.667" y="642.5"/>
      <point x="319.333" y="647.333"/>
      <point x="284" y="650" type="curve"/>
      <point x="284" y="676" type="line"/>
      <point x="348.667" y="684.667"/>
      <point x="403" y="696"/>
      <point x="447" y="710" type="curve"/>
      <point x="447" y="117" type="line" smooth="yes"/>
      <point x="447" y="67.7547"/>
      <point x="450.166" y="59.3276"/>
      <point x="492" y="55" type="curve" smooth="yes"/>
    </contour>
    <contour>
      <point x="359" y="84" type="curve"/>
      <point x="359" y="360" type="line"/>
      <point x="336.333" y="394"/>
      <point x="303.667" y="411"/>
      <point x="261" y="411" type="curve" smooth="yes"/>
      <point x="227.986" y="411"/>
      <point x="204.35" y="394.308"/>
      <point x="183" y="375.5" type="curve" smooth="yes"/>
      <point x="152.068" y="348.251"/>
      <point x="136" y="290.294"/>
      <point x="136" y="229" type="curve" smooth="yes"/>
      <point x="136" y="173"/>
      <point x="149.667" y="129.667"/>
      <point x="177" y="99" type="curve" smooth="yes"/>
      <point x="204.333" y="68.3333"/>
      <point x="235.333" y="53"/>
      <point x="270" y="53" type="curve" smooth="yes"/>
      <point x="300" y="53"/>
      <point x="329.667" y="63.3333"/>
    </contour>
  </outline>
</glyph>
<glyph name="h" format="2">
  <advance width="537"/>
  <unicode hex="0068"/>
  <outline>
    <contour>
      <point x="314" y="450" type="curve" smooth="yes"/>
      <point x="409.051" y="450"/>
      <point x="452" y="381.62"/>
      <point x="452" y="280" type="curve" smooth="yes"/>
      <point x="452" y="103" type="line" smooth="yes"/>
      <point x="452" y="71"/>
      <point x="455.5" y="51.1667"/>
      <point x="462.5" y="43.5" type="curve" smooth="yes"/>
      <point x="469.5" y="35.8333"/>
      <point x="487.333" y="30.3333"/>
      <point x="516" y="27" type="curve"/>
      <point x="516" y="0" type="line"/>
      <point x="301" y="0" type="line"/>
      <point x="301" y="27" type="line"/>
      <point x="358.656" y="33.7042"/>
      <point x="364" y="39.0757"/>
      <point x="364" y="103" type="curve" smooth="yes"/>
      <point x="364" y="270" type="line" smooth="yes"/>
      <point x="364" y="350"/>
      <point x="333" y="390"/>
      <point x="271" y="390" type="curve" smooth="yes"/>
      <point x="233" y="390"/>
      <point x="200.333" y="374.333"/>
      <point x="173" y="343" type="curve"/>
      <point x="173" y="103" type="line" smooth="yes"/>
      <point x="173" y="40.0848"/>
      <point x="176.874" y="32.4406"/>
      <point x="234" y="27" type="curve"/>
      <point x="234" y="0" type="line"/>
      <point x="17" y="0" type="line"/>
      <point x="18" y="27" type="line"/>
      <point x="48" y="30.3333"/>
      <point x="66.6667" y="35.8333"/>
      <point x="74" y="43.5" type="curve" smooth="yes"/>
      <point x="81.3333" y="51.1667"/>
      <point x="85" y="71.3333"/>
      <point x="85" y="104" type="curve" smooth="yes"/>
      <point x="85" y="579" type="line" smooth="yes"/>
      <point x="85" y="610.333"/>
      <point x="81.8333" y="629.333"/>
      <point x="75.5" y="636" type="curve" smooth="yes"/>
      <point x="69.1667" y="642.667"/>
      <point x="50.3333" y="647.667"/>
      <point x="19" y="651" type="curve"/>
      <point x="19" y="676" type="line"/>
      <point x="71.6667" y="683.333"/>
      <point x="123" y="694.667"/>
      <point x="173" y="710" type="curve"/>
      <point x="173" y="379" type="line"/>
      <point x="220.333" y="426.333"/>
      <point x="267.333" y="450"/>
    </contour>
  </outline>
</glyph>
<glyph name="i" format="2">
  <advance width="273"/>
  <unicode hex="0069"/>
  <outline>
    <contour>
      <point x="192" y="587" type="curve" smooth="yes"/>
      <point x="192" y="557.927"/>
      <point x="167.072" y="533"/>
      <point x="138" y="533" type="curve" smooth="yes"/>
      <point x="108.927" y="533"/>
      <point x="84" y="557.928"/>
      <point x="84" y="587" type="curve" smooth="yes"/>
      <point x="84" y="618.259"/>
      <point x="108.04" y="643"/>
      <point x="139" y="643" type="curve" smooth="yes"/>
      <point x="169.134" y="643"/>
      <point x="192" y="617.703"/>
    </contour>
    <contour>
      <point x="258" y="0" type="line"/>
      <point x="31" y="0" type="line"/>
      <point x="31" y="27" type="line"/>
      <point x="62.3333" y="30.3333"/>
      <point x="81.6667" y="36"/>
      <point x="89" y="44" type="curve" smooth="yes"/>
      <point x="96.3333" y="52"/>
      <point x="100" y="73"/>
      <point x="100" y="107" type="curve" smooth="yes"/>
      <point x="100" y="312" type="line" smooth="yes"/>
      <point x="100" y="343.333"/>
      <point x="97" y="362.667"/>
      <point x="91" y="370" type="curve" smooth="yes"/>
      <point x="85" y="377.333"/>
      <point x="67.6667" y="383.333"/>
      <point x="39" y="388" type="curve"/>
      <point x="39" y="412" type="line"/>
      <point x="97.6667" y="422"/>
      <point x="147.333" y="435"/>
      <point x="188" y="451" type="curve"/>
      <point x="188" y="107" type="line" smooth="yes"/>
      <point x="188" y="73"/>
      <point x="191.667" y="52"/>
      <point x="199" y="44" type="curve" smooth="yes"/>
      <point x="206.333" y="36"/>
      <point x="226" y="30.3333"/>
      <point x="258" y="27" type="curve"/>
    </contour>
  </outline>
</glyph>
<glyph name="j" format="2">
  <advance width="262"/>
  <unicode hex="006A"/>
  <outline>
    <contour>
      <point x="192" y="588" type="curve" smooth="yes"/>
      <point x="192" y="558.103"/>
      <point x="167.603" y="533"/>
      <point x="138" y="533" type="curve" smooth="yes"/>
      <point x="108.927" y="533"/>
      <point x="84" y="558.954"/>
      <point x="84" y="588" type="curve" smooth="yes"/>
      <point x="84" y="618.432"/>
      <point x="108.569" y="643"/>
      <point x="139" y="643" type="curve" smooth="yes"/>
      <point x="168.621" y="643"/>
      <point x="192" y="617.889"/>
    </contour>
    <contour>
      <point x="12" y="-254" type="curve" smooth="yes"/>
      <point x="-6.71898" y="-254"/>
      <point x="-24" y="-228.124"/>
      <point x="-24" y="-208" type="curve" smooth="yes"/>
      <point x="-24" y="-195"/>
      <point x="-17" y="-187"/>
      <point x="-3" y="-184" type="curve" smooth="yes"/>
      <point x="69.0976" y="-170.086"/>
      <point x="83.3079" y="-150.435"/>
      <point x="92" y="-78" type="curve" smooth="yes"/>
      <point x="97.3333" y="-37.3333"/>
      <point x="100" y="26.6667"/>
      <point x="100" y="114" type="curve" smooth="yes"/>
      <point x="100" y="307" type="line" smooth="yes"/>
      <point x="100" y="341"/>
      <point x="96.6667" y="361.833"/>
      <point x="90" y="369.5" type="curve" smooth="yes"/>
      <point x="83.3333" y="377.167"/>
      <point x="64.6667" y="383.333"/>
      <point x="34" y="388" type="curve"/>
      <point x="34" y="412" type="line"/>
      <point x="90.6667" y="420.667"/>
      <point x="142" y="433.667"/>
      <point x="188" y="451" type="curve"/>
      <point x="188" y="115" type="line" smooth="yes"/>
      <point x="188" y="-12.8238"/>
      <point x="154.008" y="-91.7249"/>
      <point x="102" y="-167" type="curve" smooth="yes"/>
      <point x="76.6667" y="-203.667"/>
      <point x="56" y="-228.667"/>
      <point x="40" y="-242" type="curve" smooth="yes"/>
      <point x="29.3333" y="-250"/>
      <point x="20" y="-254"/>
    </contour>
  </outline>
</glyph>
<glyph name="k" format="2">
  <advance width="499"/>
  <unicode hex="006B"/>
  <outline>
    <contour>
      <point x="312.976" y="389.967" type="curve" smooth="yes"/>
      <point x="312.976" y="402.301"/>
      <point x="296.317" y="405.139"/>
      <point x="272" y="408" type="curve"/>
      <point x="272" y="435" type="line"/>
      <point x="478" y="444" type="line"/>
      <point x="478" y="418" type="line"/>
      <point x="411.007" y="407.281"/>
      <point x="389.783" y="397.941"/>
      <point x="350" y="361" type="curve" smooth="yes"/>
      <point x="331.333" y="342.333"/>
      <point x="303.667" y="311"/>
      <point x="267" y="267" type="curve"/>
      <point x="286.475" y="238.436"/>
      <point x="396.138" y="106.566"/>
      <point x="420" y="81" type="curve" smooth="yes"/>
      <point x="451.333" y="47.6667"/>
      <point x="483.667" y="29.6667"/>
      <point x="517" y="27" type="curve"/>
      <point x="517" y="0" type="line"/>
      <point x="373" y="-1" type="line"/>
      <point x="352.56" y="20.8025"/>
      <point x="318.706" y="63.5556"/>
      <point x="299.5" y="88" type="curve" smooth="yes"/>
      <point x="282.722" y="109.353"/>
      <point x="231.73" y="175.027"/>
      <point x="216" y="196" type="curve" smooth="yes"/>
      <point x="204" y="210"/>
      <point x="194" y="217"/>
      <point x="186" y="217" type="curve" smooth="yes"/>
      <point x="180.667" y="217"/>
      <point x="176" y="216.333"/>
      <point x="172" y="215" type="curve"/>
      <point x="172" y="105" type="line" smooth="yes"/>
      <point x="172" y="72.3333"/>
      <point x="175.833" y="52"/>
      <point x="183.5" y="44" type="curve" smooth="yes"/>
      <point x="191.167" y="36"/>
      <point x="211" y="30.3333"/>
      <point x="243" y="27" type="curve"/>
      <point x="243" y="0" type="line"/>
      <point x="13" y="0" type="line"/>
      <point x="13" y="27" type="line"/>
      <point x="45.6667" y="29.6667"/>
      <point x="65.8333" y="35.1667"/>
      <point x="73.5" y="43.5" type="curve" smooth="yes"/>
      <point x="81.1667" y="51.8333"/>
      <point x="85" y="72.3333"/>
      <point x="85" y="105" type="curve" smooth="yes"/>
      <point x="85" y="576" type="line" smooth="yes"/>
      <point x="85" y="608"/>
      <point x="81.6667" y="627.833"/>
      <point x="75" y="635.5" type="curve" smooth="yes"/>
      <point x="68.3333" y="643.167"/>
      <point x="50" y="648.333"/>
      <point x="20" y="651" type="curve"/>
      <point x="20" y="675" type="line"/>
      <point x="61.3333" y="679.667"/>
      <point x="112" y="691.333"/>
      <point x="172" y="710" type="curve"/>
      <point x="172" y="242" type="line"/>
      <point x="196" y="246.667"/>
      <point x="216.667" y="258.333"/>
      <point x="234" y="277" type="curve" smooth="yes"/>
      <point x="256" y="300.333"/>
      <point x="278.667" y="329.667"/>
      <point x="302" y="365" type="curve" smooth="yes"/>
      <point x="309.317" y="375.732"/>
      <point x="312.976" y="384.054"/>
    </contour>
  </outline>
</glyph>
<glyph name="m" format="2">
  <advance width="823"/>
  <unicode hex="006D"/>
  <outline>
    <contour>
      <point x="609" y="450" type="curve" smooth="yes"/>
      <point x="694.959" y="450"/>
      <point x="738" y="385.811"/>
      <point x="738" y="296" type="curve" smooth="yes"/>
      <point x="738" y="102" type="line" smooth="yes"/>
      <point x="738" y="70"/>
      <point x="741.167" y="50.3333"/>
      <point x="747.5" y="43" type="curve" smooth="yes"/>
      <point x="753.833" y="35.6667"/>
      <point x="771.667" y="30.3333"/>
      <point x="801" y="27" type="curve"/>
      <point x="801" y="0" type="line"/>
      <point x="584" y="0" type="line"/>
      <point x="584" y="27" type="line"/>
      <point x="643.815" y="33.7972"/>
      <point x="650" y="39.9468"/>
      <point x="650" y="107" type="curve" smooth="yes"/>
      <point x="650" y="274" type="line" smooth="yes"/>
      <point x="650" y="349.333"/>
      <point x="621.667" y="387"/>
      <point x="565" y="387" type="curve" smooth="yes"/>
      <point x="534.333" y="387"/>
      <point x="499.333" y="371"/>
      <point x="460" y="339" type="curve"/>
      <point x="462" y="327"/>
      <point x="463" y="313"/>
      <point x="463" y="297" type="curve" smooth="yes"/>
      <point x="463" y="101" type="line" smooth="yes"/>
      <point x="463" y="39.8049"/>
      <point x="470.097" y="33.6955"/>
      <point x="525" y="27" type="curve"/>
      <point x="525" y="0" type="line"/>
      <point x="308" y="0" type="line"/>
      <point x="308" y="27" type="line"/>
      <point x="338" y="30.3333"/>
      <point x="356.667" y="35.8333"/>
      <point x="364" y="43.5" type="curve" smooth="yes"/>
      <point x="371.333" y="51.1667"/>
      <point x="375" y="70.6667"/>
      <point x="375" y="102" type="curve" smooth="yes"/>
      <point x="375" y="276" type="line" smooth="yes"/>
      <point x="375" y="350"/>
      <point x="347" y="387"/>
      <point x="291" y="387" type="curve" smooth="yes"/>
      <point x="261" y="387"/>
      <point x="226.667" y="371"/>
      <point x="188" y="339" type="curve"/>
      <point x="188" y="102" type="line" smooth="yes"/>
      <point x="188" y="42.2917"/>
      <point x="192.38" y="34.0305"/>
      <point x="243" y="27" type="curve"/>
      <point x="243" y="0" type="line"/>
      <point x="27" y="0" type="line"/>
      <point x="27" y="27" type="line"/>
      <point x="59.6667" y="30.3333"/>
      <point x="80" y="35.8333"/>
      <point x="88" y="43.5" type="curve" smooth="yes"/>
      <point x="96" y="51.1667"/>
      <point x="100" y="71"/>
      <point x="100" y="103" type="curve" smooth="yes"/>
      <point x="100" y="311" type="line" smooth="yes"/>
      <point x="100" y="342.333"/>
      <point x="97.1667" y="361.833"/>
      <point x="91.5" y="369.5" type="curve" smooth="yes"/>
      <point x="85.8333" y="377.167"/>
      <point x="69" y="383.333"/>
      <point x="41" y="388" type="curve"/>
      <point x="41" y="412" type="line"/>
      <point x="97" y="422"/>
      <point x="145.667" y="435.667"/>
      <point x="187" y="453" type="curve"/>
      <point x="187" y="372" type="line"/>
      <point x="229" y="402"/>
      <point x="252.667" y="418.667"/>
      <point x="258" y="422" type="curve" smooth="yes"/>
      <point x="289.333" y="440.667"/>
      <point x="316.667" y="450"/>
      <point x="340" y="450" type="curve" smooth="yes"/>
      <point x="396.273" y="450"/>
      <point x="434.847" y="411.453"/>
      <point x="452" y="368" type="curve"/>
      <point x="533" y="424" type="line"/>
      <point x="560.333" y="441.333"/>
      <point x="585.667" y="450"/>
    </contour>
  </outline>
</glyph>
<glyph name="p" format="2">
  <advance width="528"/>
  <unicode hex="0070"/>
  <outline>
    <contour>
      <point x="177" y="382" type="line"/>
      <point x="265" y="434" type="line" smooth="yes"/>
      <point x="282.333" y="444.667"/>
      <point x="299" y="450"/>
      <point x="315" y="450" type="curve" smooth="yes"/>
      <point x="368.333" y="450"/>
      <point x="411.167" y="431.167"/>
      <point x="443.5" y="393.5" type="curve" smooth="yes"/>
      <point x="475.833" y="355.833"/>
      <point x="492" y="311.333"/>
      <point x="492" y="260" type="curve" smooth="yes"/>
      <point x="492" y="188.667"/>
      <point x="468.167" y="128.833"/>
      <point x="420.5" y="80.5" type="curve" smooth="yes"/>
      <point x="372.833" y="32.1667"/>
      <point x="314.333" y="1.33333"/>
      <point x="245" y="-12" type="curve"/>
      <point x="219" y="-11.3333"/>
      <point x="196.333" y="-5.66667"/>
      <point x="177" y="5" type="curve"/>
      <point x="177" y="-125" type="line" smooth="yes"/>
      <point x="177" y="-161.667"/>
      <point x="181.333" y="-184.167"/>
      <point x="190" y="-192.5" type="curve" smooth="yes"/>
      <point x="198.667" y="-200.833"/>
      <point x="222.333" y="-206.667"/>
      <point x="261" y="-210" type="curve"/>
      <point x="261" y="-238" type="line"/>
      <point x="17" y="-238" type="line"/>
      <point x="17" y="-210" type="line"/>
      <point x="49.6667" y="-206.667"/>
      <point x="69.8333" y="-201"/>
      <point x="77.5" y="-193" type="curve" smooth="yes"/>
      <point x="85.1667" y="-185"/>
      <point x="89" y="-165"/>
      <point x="89" y="-133" type="curve" smooth="yes"/>
      <point x="89" y="318" type="line" smooth="yes"/>
      <point x="89" y="349.333"/>
      <point x="85.8333" y="368.5"/>
      <point x="79.5" y="375.5" type="curve" smooth="yes"/>
      <point x="73.1667" y="382.5"/>
      <point x="54.6667" y="387.667"/>
      <point x="24" y="391" type="curve"/>
      <point x="24" y="416" type="line"/>
      <point x="68.6667" y="424"/>
      <point x="119.667" y="438.667"/>
      <point x="177" y="460" type="curve"/>
    </contour>
    <contour>
      <point x="400" y="219" type="curve" smooth="yes"/>
      <point x="400" y="309.682"/>
      <point x="353.401" y="387"/>
      <point x="270" y="387" type="curve" smooth="yes"/>
      <point x="242" y="387"/>
      <point x="211" y="374"/>
      <point x="177" y="348" type="curve"/>
      <point x="177" y="76" type="line"/>
      <point x="195.334" y="56.5201"/>
      <point x="232.203" y="37"/>
      <point x="268" y="37" type="curve" smooth="yes"/>
      <point x="358.003" y="37"/>
      <point x="400" y="122.559"/>
    </contour>
  </outline>
</glyph>
<glyph name="s" format="2">
  <advance width="370"/>
  <unicode hex="0073"/>
  <outline>
    <contour>
      <point x="55" y="318" type="curve" smooth="yes"/>
      <point x="55" y="397.634"/>
      <point x="126.368" y="450"/>
      <point x="210" y="450" type="curve" smooth="yes"/>
      <point x="242.667" y="450"/>
      <point x="273" y="444"/>
      <point x="301" y="432" type="curve"/>
      <point x="309.667" y="408"/>
      <point x="317" y="372"/>
      <point x="323" y="324" type="curve"/>
      <point x="296" y="317" type="line"/>
      <point x="274" y="383.667"/>
      <point x="239.667" y="417"/>
      <point x="193" y="417" type="curve" smooth="yes"/>
      <point x="155.336" y="417"/>
      <point x="130" y="388.918"/>
      <point x="130" y="351" type="curve" smooth="yes"/>
      <point x="130" y="317"/>
      <point x="157.667" y="288.667"/>
      <point x="213" y="266" type="curve" smooth="yes"/>
      <point x="255.667" y="248"/>
      <point x="287.667" y="228.667"/>
      <point x="309" y="208" type="curve" smooth="yes"/>
      <point x="330.333" y="187.333"/>
      <point x="341" y="160.333"/>
      <point x="341" y="127" type="curve" smooth="yes"/>
      <point x="341" y="83"/>
      <point x="324.167" y="48.8333"/>
      <point x="290.5" y="24.5" type="curve" smooth="yes"/>
      <point x="256.833" y="0.166667"/>
      <point x="217.667" y="-12"/>
      <point x="173" y="-12" type="curve" smooth="yes"/>
      <point x="131.55" y="-12"/>
      <point x="78.8607" y="3.51145"/>
      <point x="57" y="21" type="curve"/>
      <point x="49.0885" y="38.4052"/>
      <point x="40" y="115.479"/>
      <point x="40" y="143" type="curve"/>
      <point x="67" y="147" type="line"/>
      <point x="83.1356" y="89.9874"/>
      <point x="124.217" y="21"/>
      <point x="191" y="21" type="curve" smooth="yes"/>
      <point x="229.914" y="21"/>
      <point x="260" y="49.7323"/>
      <point x="260" y="89" type="curve" smooth="yes"/>
      <point x="260" y="109"/>
      <point x="253.667" y="125.667"/>
      <point x="241" y="139" type="curve" smooth="yes"/>
      <point x="228.333" y="152.333"/>
      <point x="208.333" y="165.333"/>
      <point x="181" y="178" type="curve" smooth="yes"/>
      <point x="143.187" y="195.556"/>
      <point x="127.079" y="203.651"/>
      <point x="97" y="228" type="curve" smooth="yes"/>
      <point x="72.106" y="248.152"/>
      <point x="55" y="276.008"/>
    </contour>
  </outline>
</glyph>
<glyph name="x" format="2">
  <advance width="473"/>
  <unicode hex="0078"/>
  <outline>
    <contour>
      <point x="148.2" y="50.35" type="curve" smooth="yes"/>
      <point x="148.2" y="35.0687"/>
      <point x="165.48" y="31.4199"/>
      <point x="192" y="27" type="curve"/>
      <point x="192" y="0" type="line"/>
      <point x="5" y="0" type="line"/>
      <point x="5" y="27" type="line"/>
      <point x="35" y="31"/>
      <point x="56.1667" y="36.6667"/>
      <point x="68.5" y="44" type="curve" smooth="yes"/>
      <point x="80.8333" y="51.3333"/>
      <point x="96.6667" y="67.3333"/>
      <point x="116" y="92" type="curve" smooth="yes"/>
      <point x="126.667" y="104.667"/>
      <point x="154.667" y="143.667"/>
      <point x="200" y="209" type="curve"/>
      <point x="113" y="347" type="line" smooth="yes"/>
      <point x="97.6667" y="371"/>
      <point x="84.5" y="386.833"/>
      <point x="73.5" y="394.5" type="curve" smooth="yes"/>
      <point x="62.5" y="402.167"/>
      <point x="43.3333" y="407.667"/>
      <point x="16" y="411" type="curve"/>
      <point x="16" y="438" type="line"/>
      <point x="222" y="438" type="line"/>
      <point x="222" y="411" type="line"/>
      <point x="197.979" y="407.797"/>
      <point x="184.815" y="403.308"/>
      <point x="184.815" y="391.942" type="curve" smooth="yes"/>
      <point x="184.815" y="386.252"/>
      <point x="188.113" y="378.838"/>
      <point x="195" y="369" type="curve"/>
      <point x="252" y="279" type="line"/>
      <point x="274.667" y="313.667"/>
      <point x="293.333" y="344"/>
      <point x="308" y="370" type="curve" smooth="yes"/>
      <point x="313.486" y="380.514"/>
      <point x="316.229" y="388.521"/>
      <point x="316.229" y="394.02" type="curve" smooth="yes"/>
      <point x="316.229" y="396.54"/>
      <point x="315.652" y="398.533"/>
      <point x="314.5" y="400" type="curve" smooth="yes"/>
      <point x="310.833" y="404.667"/>
      <point x="298" y="408.333"/>
      <point x="276" y="411" type="curve"/>
      <point x="276" y="438" type="line"/>
      <point x="459" y="438" type="line"/>
      <point x="459" y="411" type="line"/>
      <point x="428.333" y="407.667"/>
      <point x="407" y="403"/>
      <point x="395" y="397" type="curve" smooth="yes"/>
      <point x="383" y="391"/>
      <point x="368.333" y="378"/>
      <point x="351" y="358" type="curve" smooth="yes"/>
      <point x="335.667" y="339.333"/>
      <point x="309.333" y="303.333"/>
      <point x="272" y="250" type="curve"/>
      <point x="370" y="101" type="line" smooth="yes"/>
      <point x="388" y="73"/>
      <point x="403.333" y="54.6667"/>
      <point x="416" y="46" type="curve" smooth="yes"/>
      <point x="428.667" y="37.3333"/>
      <point x="449.333" y="31"/>
      <point x="478" y="27" type="curve"/>
      <point x="478" y="0" type="line"/>
      <point x="258" y="0" type="line"/>
      <point x="258" y="27" type="line"/>
      <point x="282.5" y="30.9516"/>
      <point x="297.871" y="34.2156"/>
      <point x="297.871" y="47.1018" type="curve" smooth="yes"/>
      <point x="297.871" y="52.2864"/>
      <point x="295.383" y="59.0287"/>
      <point x="290" y="68" type="curve" smooth="yes"/>
      <point x="220" y="180" type="line"/>
      <point x="206.667" y="160.667"/>
      <point x="186" y="126.667"/>
      <point x="158" y="78" type="curve" smooth="yes"/>
      <point x="151.467" y="66.3333"/>
      <point x="148.2" y="57.1167"/>
    </contour>
  </outline>
</glyph>
<glyph name="braceleft" format="2">
  <advance width="349"/>
  <unicode hex="007B"/>
  <outline>
    <contour>
      <point x="211" y="-42" type="curve" smooth="yes"/>
      <point x="211" y="-105.906"/>
      <point x="234.659" y="-130.581"/>
      <point x="296" y="-139" type="curve"/>
      <point x="296" y="-169" type="line"/>
      <point x="196" y="-169"/>
      <point x="146" y="-125.667"/>
      <point x="146" y="-39" type="curve" smooth="yes"/>
      <point x="146" y="-1.91226"/>
      <point x="154" y="132.676"/>
      <point x="154" y="168" type="curve" smooth="yes"/>
      <point x="154" y="207.431"/>
      <point x="143.882" y="231.8"/>
      <point x="114" y="244.5" type="curve" smooth="yes"/>
      <point x="100.667" y="250.167"/>
      <point x="83.6667" y="253.667"/>
      <point x="63" y="255" type="curve"/>
      <point x="64" y="285" type="line"/>
      <point x="124.358" y="288.894"/>
      <point x="154" y="309.97"/>
      <point x="154" y="372" type="curve" smooth="yes"/>
      <point x="154" y="407.535"/>
      <point x="146" y="540.864"/>
      <point x="146" y="575" type="curve" smooth="yes"/>
      <point x="146" y="664.333"/>
      <point x="196" y="709"/>
      <point x="296" y="709" type="curve"/>
      <point x="296" y="679" type="line"/>
      <point x="235.232" y="671.851"/>
      <point x="211" y="646.768"/>
      <point x="211" y="585" type="curve" smooth="yes"/>
      <point x="211" y="550.158"/>
      <point x="225" y="422.181"/>
      <point x="225" y="388" type="curve" smooth="yes"/>
      <point x="225" y="322.667"/>
      <point x="197" y="284"/>
      <point x="141" y="272" type="curve"/>
      <point x="141" y="268" type="line"/>
      <point x="194.858" y="256.727"/>
      <point x="225" y="214.585"/>
      <point x="225" y="152" type="curve" smooth="yes"/>
      <point x="225" y="117.366"/>
      <point x="211" y="-8.65643"/>
    </contour>
  </outline>
</glyph>
<glyph name="bar" format="2">
  <advance width="264"/>
  <unicode hex="007C"/>
  <outline>
    <contour>
      <point x="166" y="-250" type="line"/>
      <point x="99" y="-250" type="line"/>
      <point x="99" y="750" type="line"/>
      <point x="166" y="750" type="line"/>
    </contour>
  </outline>
</glyph>
<glyph name="braceright" format="2">
  <advance width="349"/>
  <unicode hex="007D"/>
  <outline>
    <contour>
      <point x="203" y="578" type="curve" smooth="yes"/>
      <point x="203" y="541.456"/>
      <point x="195" y="412.266"/>
      <point x="195" y="377" type="curve" smooth="yes"/>
      <point x="195" y="335.807"/>
      <point x="204.132" y="308.619"/>
      <point x="235" y="295.5" type="curve" smooth="yes"/>
      <point x="248.333" y="289.833"/>
      <point x="265.667" y="286.333"/>
      <point x="287" y="285" type="curve"/>
      <point x="286" y="255" type="line"/>
      <point x="222.664" y="250.914"/>
      <point x="195" y="228.68"/>
      <point x="195" y="163" type="curve" smooth="yes"/>
      <point x="195" y="128.514"/>
      <point x="203" y="-3.87106"/>
      <point x="203" y="-39" type="curve" smooth="yes"/>
      <point x="203" y="-125.667"/>
      <point x="152.667" y="-169"/>
      <point x="52" y="-169" type="curve"/>
      <point x="52" y="-139" type="line"/>
      <point x="111.278" y="-130.701"/>
      <point x="138" y="-105.582"/>
      <point x="138" y="-44" type="curve" smooth="yes"/>
      <point x="138" y="-9.61528"/>
      <point x="125" y="116.036"/>
      <point x="125" y="151" type="curve" smooth="yes"/>
      <point x="125" y="216.333"/>
      <point x="153" y="255.333"/>
      <point x="209" y="268" type="curve"/>
      <point x="209" y="272" type="line"/>
      <point x="153" y="285.333"/>
      <point x="125" y="324"/>
      <point x="125" y="388" type="curve" smooth="yes"/>
      <point x="125" y="423.497"/>
      <point x="138" y="550.95"/>
      <point x="138" y="586" type="curve" smooth="yes"/>
      <point x="138" y="647.109"/>
      <point x="111.631" y="671.844"/>
      <point x="52" y="679" type="curve"/>
      <point x="52" y="709" type="line"/>
      <point x="152.667" y="709"/>
      <point x="203" y="665.333"/>
    </contour>
  </outline>
</glyph>
<glyph name="exclamdown" format="2">
  <advance width="277"/>
  <unicode hex="00A1"/>
  <outline>
    <contour>
      <point x="78" y="387" type="curve" smooth="yes"/>
      <point x="78" y="424.177"/>
      <point x="102.824" y="449"/>
      <point x="140" y="449" type="curve" smooth="yes"/>
      <point x="174.133" y="449"/>
      <point x="199" y="421.709"/>
      <point x="199" y="387" type="curve" smooth="yes"/>
      <point x="199" y="351.743"/>
      <point x="173.979" y="325"/>
      <point x="139" y="325" type="curve" smooth="yes"/>
      <point x="103.182" y="325"/>
      <point x="78" y="351.209"/>
    </contour>
    <contour>
      <point x="138" y="-227" type="curve" smooth="yes"/>
      <point x="99.3333" y="-227"/>
      <point x="80" y="-216"/>
      <point x="80" y="-194" type="curve" smooth="yes"/>
      <point x="80" y="-189.333"/>
      <point x="82.3333" y="-163.667"/>
      <point x="87" y="-117" type="curve" smooth="yes"/>
      <point x="95" y="-55.6667"/>
      <point x="106" y="62"/>
      <point x="120" y="236" type="curve" smooth="yes"/>
      <point x="122.667" y="240.667"/>
      <point x="129.167" y="243"/>
      <point x="139.5" y="243" type="curve" smooth="yes"/>
      <point x="149.833" y="243"/>
      <point x="156" y="240.667"/>
      <point x="158" y="236" type="curve" smooth="yes"/>
      <point x="173.333" y="43.3333"/>
      <point x="183.667" y="-74.3333"/>
      <point x="189" y="-117" type="curve" smooth="yes"/>
      <point x="194.333" y="-159.667"/>
      <point x="197" y="-185.333"/>
      <point x="197" y="-194" type="curve" smooth="yes"/>
      <point x="197" y="-216"/>
      <point x="177.333" y="-227"/>
    </contour>
  </outline>
</glyph>
<glyph name="cent" format="2">
  <advance width="483"/>
  <unicode hex="00A2"/>
  <outline>
    <contour>
      <point x="421" y="485" type="curve" smooth="yes"/>
      <point x="421" y="466.33"/>
      <point x="401.698" y="441"/>
      <point x="384" y="441" type="curve" smooth="yes"/>
      <point x="380" y="441"/>
      <point x="375" y="444"/>
      <point x="369" y="450" type="curve" smooth="yes"/>
      <point x="343.667" y="475.333"/>
      <point x="317" y="489.667"/>
      <point x="289" y="493" type="curve"/>
      <point x="289" y="164" type="line" smooth="yes"/>
      <point x="289.791" y="163.989"/>
      <point x="290.581" y="163.983"/>
      <point x="291.37" y="163.983" type="curve" smooth="yes"/>
      <point x="337.146" y="163.983"/>
      <point x="380.023" y="182.989"/>
      <point x="420" y="221" type="curve"/>
      <point x="437" y="197" type="line"/>
      <point x="403.895" y="153.964"/>
      <point x="349.089" y="108.488"/>
      <point x="289" y="99" type="curve"/>
      <point x="289" y="1" type="line"/>
      <point x="253" y="1" type="line"/>
      <point x="253" y="97" type="line"/>
      <point x="193.667" y="98.3333"/>
      <point x="145" y="119"/>
      <point x="107" y="159" type="curve" smooth="yes"/>
      <point x="69" y="199"/>
      <point x="50" y="245.667"/>
      <point x="50" y="299" type="curve" smooth="yes"/>
      <point x="50" y="380.978"/>
      <point x="93.9343" y="444.742"/>
      <point x="144" y="482" type="curve" smooth="yes"/>
      <point x="176" y="506"/>
      <point x="212.333" y="522.667"/>
      <point x="253" y="532" type="curve"/>
      <point x="253" y="615" type="line"/>
      <point x="289" y="615" type="line"/>
      <point x="289" y="536" type="line"/>
      <point x="293.667" y="536.667"/>
      <point x="299.333" y="537"/>
      <point x="306" y="537" type="curve" smooth="yes"/>
      <point x="348" y="537"/>
      <point x="381.667" y="528.333"/>
      <point x="407" y="511" type="curve" smooth="yes"/>
      <point x="416.333" y="504.333"/>
      <point x="421" y="495.667"/>
    </contour>
    <contour>
      <point x="253" y="168" type="curve"/>
      <point x="253" y="494" type="line"/>
      <point x="223" y="492.667"/>
      <point x="195.833" y="479"/>
      <point x="171.5" y="453" type="curve" smooth="yes"/>
      <point x="147.167" y="427"/>
      <point x="135" y="389.333"/>
      <point x="135" y="340" type="curve" smooth="yes"/>
      <point x="135" y="288.667"/>
      <point x="146.833" y="249"/>
      <point x="170.5" y="221" type="curve" smooth="yes"/>
      <point x="194.167" y="193"/>
      <point x="221.667" y="175.333"/>
    </contour>
  </outline>
</glyph>
<glyph name="sterling" format="2">
  <advance width="483"/>
  <unicode hex="00A3"/>
  <outline>
    <contour>
      <point x="42" y="-5" type="curve" smooth="yes"/>
      <point x="31.1348" y="-5"/>
      <point x="21.75" y="4.65504"/>
      <point x="21.75" y="18.3516" type="curve" smooth="yes"/>
      <point x="21.75" y="25.2005"/>
      <point x="23.8333" y="33.4167"/>
      <point x="28" y="43" type="curve" smooth="yes"/>
      <point x="34" y="54.3333"/>
      <point x="51" y="75.6667"/>
      <point x="79" y="107" type="curve" smooth="yes"/>
      <point x="106.333" y="138.333"/>
      <point x="120" y="181.667"/>
      <point x="120" y="237" type="curve" smooth="yes"/>
      <point x="120" y="255.667"/>
      <point x="118.667" y="274.333"/>
      <point x="116" y="293" type="curve"/>
      <point x="27" y="293" type="line"/>
      <point x="27" y="333" type="line"/>
      <point x="111" y="333" type="line"/>
      <point x="107" y="369"/>
      <point x="105" y="396.333"/>
      <point x="105" y="415" type="curve" smooth="yes"/>
      <point x="105" y="487"/>
      <point x="133.333" y="545.333"/>
      <point x="190" y="590" type="curve" smooth="yes"/>
      <point x="226.667" y="618.667"/>
      <point x="262.333" y="633.667"/>
      <point x="297" y="635" type="curve" smooth="yes"/>
      <point x="334.609" y="635"/>
      <point x="378.239" y="614.059"/>
      <point x="394" y="594" type="curve" smooth="yes"/>
      <point x="398.571" y="587.905"/>
      <point x="400.857" y="581.701"/>
      <point x="400.857" y="575.388" type="curve" smooth="yes"/>
      <point x="400.857" y="558.457"/>
      <point x="388.826" y="547.137"/>
      <point x="377" y="537" type="curve" smooth="yes"/>
      <point x="367" y="530.333"/>
      <point x="357.667" y="531.333"/>
      <point x="349" y="540" type="curve" smooth="yes"/>
      <point x="313.667" y="568.667"/>
      <point x="282" y="583"/>
      <point x="254" y="583" type="curve" smooth="yes"/>
      <point x="210" y="583"/>
      <point x="188" y="553"/>
      <point x="188" y="493" type="curve" smooth="yes"/>
      <point x="188" y="462.333"/>
      <point x="195.333" y="409"/>
      <point x="210" y="333" type="curve"/>
      <point x="380" y="333" type="line"/>
      <point x="380" y="293" type="line"/>
      <point x="213" y="293" type="line"/>
      <point x="213.667" y="287.667"/>
      <point x="214" y="280.667"/>
      <point x="214" y="272" type="curve" smooth="yes"/>
      <point x="214" y="212.667"/>
      <point x="183.667" y="156.667"/>
      <point x="123" y="104" type="curve"/>
      <point x="156.333" y="104"/>
      <point x="191.333" y="95.3333"/>
      <point x="228" y="78" type="curve" smooth="yes"/>
      <point x="287.333" y="52.6667"/>
      <point x="328.333" y="40"/>
      <point x="351" y="40" type="curve" smooth="yes"/>
      <point x="387.667" y="40"/>
      <point x="406" y="54"/>
      <point x="406" y="82" type="curve" smooth="yes"/>
      <point x="406" y="92"/>
      <point x="403.333" y="103"/>
      <point x="398" y="115" type="curve" smooth="yes"/>
      <point x="395.333" y="121.667"/>
      <point x="396.333" y="129"/>
      <point x="401" y="137" type="curve" smooth="yes"/>
      <point x="413.667" y="154.333"/>
      <point x="426" y="163"/>
      <point x="438" y="163" type="curve" smooth="yes"/>
      <point x="453.278" y="163"/>
      <point x="462" y="139.358"/>
      <point x="462" y="123" type="curve" smooth="yes"/>
      <point x="462" y="72.5907"/>
      <point x="416.476" y="26.9689"/>
      <point x="383" y="5" type="curve" smooth="yes"/>
      <point x="351.667" y="-16.3333"/>
      <point x="320.667" y="-27"/>
      <point x="290" y="-27" type="curve" smooth="yes"/>
      <point x="266.025" y="-27"/>
      <point x="219.243" y="-8.20794"/>
      <point x="204" y="0" type="curve" smooth="yes"/>
      <point x="195.333" y="4.66667"/>
      <point x="179" y="13.6667"/>
      <point x="155" y="27" type="curve" smooth="yes"/>
      <point x="127.667" y="43"/>
      <point x="107.667" y="51"/>
      <point x="95" y="51" type="curve" smooth="yes"/>
      <point x="79" y="51"/>
      <point x="65.6667" y="36.6667"/>
      <point x="55" y="8" type="curve" smooth="yes"/>
      <point x="52.3333" y="-0.666667"/>
      <point x="48" y="-5"/>
    </contour>
  </outline>
</glyph>
<glyph name="dieresis" format="2">
  <advance width="400"/>
  <unicode hex="00A8"/>
  <outline>
    <contour>
      <point x="163" y="587" type="curve" smooth="yes"/>
      <point x="163" y="559.261"/>
      <point x="139.765" y="535"/>
      <point x="112" y="535" type="curve" smooth="yes"/>
      <point x="84.2345" y="535"/>
      <point x="61" y="559.261"/>
      <point x="61" y="587" type="curve" smooth="yes"/>
      <point x="61" y="616.125"/>
      <point x="83.8758" y="639"/>
      <point x="113" y="639" type="curve" smooth="yes"/>
      <point x="141.312" y="639"/>
      <point x="163" y="615.582"/>
    </contour>
    <contour>
      <point x="338" y="587" type="curve" smooth="yes"/>
      <point x="338" y="559.261"/>
      <point x="314.765" y="535"/>
      <point x="287" y="535" type="curve" smooth="yes"/>
      <point x="259.234" y="535"/>
      <point x="236" y="559.261"/>
      <point x="236" y="587" type="curve" smooth="yes"/>
      <point x="236" y="616.125"/>
      <point x="258.876" y="639"/>
      <point x="288" y="639" type="curve" smooth="yes"/>
      <point x="316.312" y="639"/>
      <point x="338" y="615.582"/>
    </contour>
  </outline>
</glyph>
<glyph name="ordfeminine" format="2">
  <advance width="310"/>
  <unicode hex="00AA"/>
  <outline>
    <contour>
      <point x="157" y="547" type="curve"/>
      <point x="214.749" y="547"/>
      <point x="247" y="516.129"/>
      <point x="247" y="458" type="curve" smooth="yes"/>
      <point x="247" y="350" type="line" smooth="yes"/>
      <point x="247" y="327.333"/>
      <point x="254" y="316"/>
      <point x="268" y="316" type="curve" smooth="yes"/>
      <point x="275" y="316"/>
      <point x="283" y="318"/>
      <point x="292" y="322" type="curve"/>
      <point x="299" y="302" type="line"/>
      <point x="234" y="269" type="line"/>
      <point x="210.667" y="269.667"/>
      <point x="195" y="282.667"/>
      <point x="187" y="308" type="curve"/>
      <point x="147" y="282"/>
      <point x="121.667" y="269"/>
      <point x="111" y="269" type="curve" smooth="yes"/>
      <point x="68.9476" y="269"/>
      <point x="32" y="304.843"/>
      <point x="32" y="346" type="curve" smooth="yes"/>
      <point x="32" y="390.824"/>
      <point x="68.4329" y="402.364"/>
      <point x="113" y="418.5" type="curve" smooth="yes"/>
      <point x="143.843" y="429.667"/>
      <point x="164.368" y="436.558"/>
      <point x="185" y="451" type="curve"/>
      <point x="185" y="462" type="line" smooth="yes"/>
      <point x="185" y="492.776"/>
      <point x="167.225" y="515"/>
      <point x="137" y="515" type="curve" smooth="yes"/>
      <point x="116.333" y="515"/>
      <point x="101" y="497.333"/>
      <point x="91" y="462" type="curve" smooth="yes"/>
      <point x="87.6667" y="451.333"/>
      <point x="80.3333" y="446"/>
      <point x="69" y="446" type="curve" smooth="yes"/>
      <point x="54.0426" y="446"/>
      <point x="36" y="460.668"/>
      <point x="36" y="476" type="curve" smooth="yes"/>
      <point x="36" y="484.667"/>
      <point x="43" y="494"/>
      <point x="57" y="504" type="curve" smooth="yes"/>
      <point x="87" y="526.667"/>
      <point x="120.333" y="541"/>
    </contour>
    <contour>
      <point x="99" y="358" type="curve" smooth="yes"/>
      <point x="99" y="332.131"/>
      <point x="117.43" y="314"/>
      <point x="142" y="314" type="curve" smooth="yes"/>
      <point x="157.333" y="314"/>
      <point x="171.667" y="320"/>
      <point x="185" y="332" type="curve"/>
      <point x="185" y="423" type="line"/>
      <point x="157.35" y="404.566"/>
      <point x="99" y="397.6"/>
    </contour>
  </outline>
</glyph>
<glyph name="registered" format="2">
  <advance width="320"/>
  <unicode hex="00AE"/>
  <outline>
    <contour>
      <point x="31" y="529" type="curve" smooth="yes"/>
      <point x="31" y="599.575"/>
      <point x="90.1086" y="659"/>
      <point x="161" y="659" type="curve" smooth="yes"/>
      <point x="232.754" y="659"/>
      <point x="291" y="600.111"/>
      <point x="291" y="529" type="curve" smooth="yes"/>
      <point x="291" y="458.726"/>
      <point x="231.176" y="400"/>
      <point x="160" y="400" type="curve" smooth="yes"/>
      <point x="87.1617" y="400"/>
      <point x="31" y="456.163"/>
    </contour>
    <contour>
      <point x="263" y="529" type="curve" smooth="yes"/>
      <point x="263" y="588.017"/>
      <point x="218.795" y="636"/>
      <point x="160" y="636" type="curve" smooth="yes"/>
      <point x="102.011" y="636"/>
      <point x="60" y="587.456"/>
      <point x="60" y="529" type="curve" smooth="yes"/>
      <point x="60" y="470.499"/>
      <point x="103.021" y="423"/>
      <point x="161" y="423" type="curve" smooth="yes"/>
      <point x="218.957" y="423"/>
      <point x="263" y="470.501"/>
    </contour>
    <contour>
      <point x="189" y="529" type="curve"/>
      <point x="200.12" y="507.615"/>
      <point x="214.173" y="486.884"/>
      <point x="235" y="473" type="curve"/>
      <point x="232" y="461" type="line"/>
      <point x="196.736" y="461"/>
      <point x="184.637" y="476.258"/>
      <point x="171.5" y="499.5" type="curve" smooth="yes"/>
      <point x="164.755" y="511.434"/>
      <point x="163.819" y="519"/>
      <point x="151" y="519" type="curve" smooth="yes"/>
      <point x="147" y="519" type="line"/>
      <point x="147" y="496" type="line" smooth="yes"/>
      <point x="147" y="478"/>
      <point x="148.915" y="478.314"/>
      <point x="166" y="477" type="curve"/>
      <point x="166" y="462" type="line"/>
      <point x="98" y="462" type="line"/>
      <point x="98" y="477" type="line"/>
      <point x="116.076" y="478.291"/>
      <point x="117" y="477.635"/>
      <point x="117" y="496" type="curve" smooth="yes"/>
      <point x="117" y="565" type="line" smooth="yes"/>
      <point x="117" y="583.015"/>
      <point x="116.133" y="582.682"/>
      <point x="99" y="584" type="curve"/>
      <point x="99" y="599" type="line"/>
      <point x="167" y="599" type="line" smooth="yes"/>
      <point x="199.667" y="599"/>
      <point x="216" y="587"/>
      <point x="216" y="563" type="curve" smooth="yes"/>
      <point x="216" y="547"/>
      <point x="207" y="535.667"/>
    </contour>
    <contour>
      <point x="184" y="560" type="curve" smooth="yes"/>
      <point x="184" y="575.422"/>
      <point x="174.095" y="584"/>
      <point x="160" y="584" type="curve" smooth="yes"/>
      <point x="151.333" y="584"/>
      <point x="147" y="580"/>
      <point x="147" y="572" type="curve" smooth="yes"/>
      <point x="147" y="535" type="line"/>
      <point x="156" y="535" type="line" smooth="yes"/>
      <point x="174.028" y="535"/>
      <point x="184" y="544.397"/>
    </contour>
  </outline>
</glyph>
<glyph name="degree" format="2">
  <advance width="340"/>
  <unicode hex="00B0"/>
  <outline>
    <contour>
      <point x="31" y="528" type="curve" smooth="yes"/>
      <point x="31" y="606.553"/>
      <point x="94.231" y="664"/>
      <point x="172" y="664" type="curve" smooth="yes"/>
      <point x="248.142" y="664"/>
      <point x="310" y="605.491"/>
      <point x="310" y="528" type="curve" smooth="yes"/>
      <point x="310" y="448.22"/>
      <point x="249.055" y="392"/>
      <point x="171" y="392" type="curve" smooth="yes"/>
      <point x="92.1322" y="392"/>
      <point x="31" y="447.709"/>
    </contour>
    <contour>
      <point x="250" y="527" type="curve" smooth="yes"/>
      <point x="250" y="579.338"/>
      <point x="221.698" y="621"/>
      <point x="171" y="621" type="curve" smooth="yes"/>
      <point x="121.664" y="621"/>
      <point x="92" y="578.968"/>
      <point x="92" y="528" type="curve" smooth="yes"/>
      <point x="92" y="476.995"/>
      <point x="122.653" y="435"/>
      <point x="172" y="435" type="curve" smooth="yes"/>
      <point x="221.352" y="435"/>
      <point x="250" y="476.001"/>
    </contour>
  </outline>
</glyph>
<glyph name="uni00B2" format="2">
  <advance width="342"/>
  <unicode hex="00B2"/>
  <outline>
    <contour>
      <point x="171" y="760" type="curve" smooth="yes"/>
      <point x="234.819" y="760"/>
      <point x="283" y="716.922"/>
      <point x="283" y="652" type="curve" smooth="yes"/>
      <point x="283" y="628.667"/>
      <point x="275.167" y="606.333"/>
      <point x="259.5" y="585" type="curve" smooth="yes"/>
      <point x="243.833" y="563.667"/>
      <point x="216.333" y="536"/>
      <point x="177" y="502" type="curve" smooth="yes"/>
      <point x="126" y="457" type="line"/>
      <point x="126" y="455" type="line"/>
      <point x="218" y="455" type="line" smooth="yes"/>
      <point x="236.667" y="455"/>
      <point x="250.167" y="457.5"/>
      <point x="258.5" y="462.5" type="curve" smooth="yes"/>
      <point x="266.833" y="467.5"/>
      <point x="276" y="479.333"/>
      <point x="286" y="498" type="curve"/>
      <point x="309" y="491" type="line"/>
      <point x="301.667" y="469"/>
      <point x="293.333" y="438.667"/>
      <point x="284" y="400" type="curve"/>
      <point x="39" y="400" type="line"/>
      <point x="39" y="423" type="line"/>
      <point x="89.8629" y="462.237"/>
      <point x="96.5712" y="468.978"/>
      <point x="143" y="514" type="curve" smooth="yes"/>
      <point x="165" y="535.333"/>
      <point x="181.333" y="556"/>
      <point x="192" y="576" type="curve" smooth="yes"/>
      <point x="202.667" y="596"/>
      <point x="208" y="615.333"/>
      <point x="208" y="634" type="curve" smooth="yes"/>
      <point x="208" y="677.387"/>
      <point x="184.493" y="706"/>
      <point x="143" y="706" type="curve" smooth="yes"/>
      <point x="112.333" y="706"/>
      <point x="84.3333" y="688"/>
      <point x="59" y="652" type="curve"/>
      <point x="40" y="670" type="line"/>
      <point x="73" y="715" type="line"/>
      <point x="97.6667" y="745"/>
      <point x="130.333" y="760"/>
    </contour>
  </outline>
</glyph>
<glyph name="uni00B3" format="2">
  <advance width="342"/>
  <unicode hex="00B3"/>
  <outline>
    <contour>
      <point x="173" y="760" type="line" smooth="yes"/>
      <point x="224.516" y="760"/>
      <point x="270" y="731.167"/>
      <point x="270" y="683" type="curve" smooth="yes"/>
      <point x="270" y="665.667"/>
      <point x="263.333" y="652"/>
      <point x="250" y="642" type="curve" smooth="yes"/>
      <point x="238.667" y="632"/>
      <point x="224.333" y="622.333"/>
      <point x="207" y="613" type="curve"/>
      <point x="206" y="611" type="line"/>
      <point x="252.413" y="602.159"/>
      <point x="295" y="578.03"/>
      <point x="295" y="528" type="curve" smooth="yes"/>
      <point x="295" y="468.95"/>
      <point x="232.982" y="423.514"/>
      <point x="188.5" y="407.5" type="curve" smooth="yes"/>
      <point x="163.5" y="398.5"/>
      <point x="142.333" y="394"/>
      <point x="125" y="394" type="curve" smooth="yes"/>
      <point x="96.3333" y="394"/>
      <point x="73.3333" y="401"/>
      <point x="56" y="415" type="curve" smooth="yes"/>
      <point x="47.9315" y="421.556"/>
      <point x="44.6697" y="429.156"/>
      <point x="44.6697" y="436.733" type="curve" smooth="yes"/>
      <point x="44.6697" y="449.092"/>
      <point x="53.3473" y="461.391"/>
      <point x="64" y="469" type="curve" smooth="yes"/>
      <point x="71.3333" y="473"/>
      <point x="78.6667" y="472.333"/>
      <point x="86" y="467" type="curve" smooth="yes"/>
      <point x="115.333" y="444.333"/>
      <point x="140.333" y="433"/>
      <point x="161" y="433" type="curve" smooth="yes"/>
      <point x="201.712" y="433"/>
      <point x="222" y="462.119"/>
      <point x="222" y="506" type="curve" smooth="yes"/>
      <point x="222" y="549.007"/>
      <point x="189.123" y="573"/>
      <point x="147" y="573" type="curve" smooth="yes"/>
      <point x="135.667" y="573"/>
      <point x="122" y="571"/>
      <point x="106" y="567" type="curve"/>
      <point x="100" y="592" type="line"/>
      <point x="164.667" y="612.667"/>
      <point x="197" y="638.333"/>
      <point x="197" y="669" type="curve" smooth="yes"/>
      <point x="197" y="696.14"/>
      <point x="174.291" y="713"/>
      <point x="146" y="713" type="curve" smooth="yes"/>
      <point x="117.333" y="713"/>
      <point x="92.6667" y="697"/>
      <point x="72" y="665" type="curve"/>
      <point x="55" y="682" type="line"/>
      <point x="85" y="723" type="line"/>
      <point x="108.333" y="747.667"/>
      <point x="137.333" y="760"/>
      <point x="172" y="760" type="curve" smooth="yes"/>
    </contour>
  </outline>
</glyph>
<glyph name="acute" format="2">
  <advance width="400"/>
  <unicode hex="00B4"/>
  <outline>
    <contour>
      <point x="195" y="492" type="line"/>
      <point x="168" y="506" type="line"/>
      <point x="181.273" y="535.864"/>
      <point x="203.519" y="593.796"/>
      <point x="217" y="627.5" type="curve" smooth="yes"/>
      <point x="232" y="665" type="line"/>
      <point x="238.088" y="668.044"/>
      <point x="292.66" y="675.667"/>
      <point x="309.167" y="675.667" type="curve" smooth="yes"/>
      <point x="313.056" y="675.667"/>
      <point x="316" y="675.445"/>
      <point x="318" y="675" type="curve"/>
      <point x="322" y="665" type="line"/>
    </contour>
  </outline>
</glyph>
<glyph name="periodcentered" format="2">
  <advance width="231"/>
  <unicode hex="00B7"/>
  <outline>
    <contour>
      <point x="176" y="233" type="curve" smooth="yes"/>
      <point x="176" y="197.208"/>
      <point x="150.817" y="171"/>
      <point x="115" y="171" type="curve" smooth="yes"/>
      <point x="80.8671" y="171"/>
      <point x="56" y="198.291"/>
      <point x="56" y="233" type="curve" smooth="yes"/>
      <point x="56" y="267.432"/>
      <point x="81.5425" y="294"/>
      <point x="116" y="294" type="curve" smooth="yes"/>
      <point x="150.458" y="294"/>
      <point x="176" y="267.431"/>
    </contour>
  </outline>
</glyph>
<glyph name="ordmasculine" format="2">
  <advance width="341"/>
  <unicode hex="00BA"/>
  <outline>
    <contour>
      <point x="172" y="547" type="curve" smooth="yes"/>
      <point x="250.19" y="547"/>
      <point x="312" y="488.69"/>
      <point x="312" y="412" type="curve" smooth="yes"/>
      <point x="311.333" y="368"/>
      <point x="296.667" y="333.167"/>
      <point x="268" y="307.5" type="curve" smooth="yes"/>
      <point x="239.333" y="281.833"/>
      <point x="206.667" y="269"/>
      <point x="170" y="269" type="curve" smooth="yes"/>
      <point x="126" y="269"/>
      <point x="91" y="282.667"/>
      <point x="65" y="310" type="curve" smooth="yes"/>
      <point x="39" y="337.333"/>
      <point x="26" y="369"/>
      <point x="26" y="405" type="curve" smooth="yes"/>
      <point x="26.6667" y="449"/>
      <point x="42.1667" y="483.667"/>
      <point x="72.5" y="509" type="curve" smooth="yes"/>
      <point x="102.833" y="534.333"/>
      <point x="136" y="547"/>
    </contour>
    <contour>
      <point x="237.047" y="401.98" type="curve" smooth="yes"/>
      <point x="237.047" y="459.706"/>
      <point x="214.621" y="519"/>
      <point x="162" y="519" type="curve" smooth="yes"/>
      <point x="146" y="519"/>
      <point x="132" y="510.333"/>
      <point x="120" y="493" type="curve" smooth="yes"/>
      <point x="108" y="475.667"/>
      <point x="102" y="451"/>
      <point x="102" y="419" type="curve" smooth="yes"/>
      <point x="102" y="362.893"/>
      <point x="124.92" y="298"/>
      <point x="175" y="298" type="curve" smooth="yes"/>
      <point x="217.34" y="298"/>
      <point x="237.047" y="334.179"/>
    </contour>
  </outline>
</glyph>
<glyph name="onehalf" format="2">
  <advance width="767"/>
  <unicode hex="00BD"/>
  <outline>
    <contour>
      <point x="72" y="301" type="line"/>
      <point x="123.317" y="304.755"/>
      <point x="137" y="309.235"/>
      <point x="137" y="361" type="curve" smooth="yes"/>
      <point x="137" y="535" type="line" smooth="yes"/>
      <point x="137" y="573.186"/>
      <point x="134.582" y="577.233"/>
      <point x="100" y="580" type="curve" smooth="yes"/>
      <point x="71" y="582" type="line"/>
      <point x="71" y="606" type="line"/>
      <point x="117" y="611.333"/>
      <point x="162.667" y="621"/>
      <point x="208" y="635" type="curve"/>
      <point x="208" y="361" type="line" smooth="yes"/>
      <point x="208" y="337"/>
      <point x="211.833" y="321.833"/>
      <point x="219.5" y="315.5" type="curve" smooth="yes"/>
      <point x="227.167" y="309.167"/>
      <point x="244.667" y="304.333"/>
      <point x="272" y="301" type="curve"/>
      <point x="272" y="277" type="line"/>
      <point x="72" y="277" type="line"/>
    </contour>
    <contour>
      <point x="591" y="630" type="line"/>
      <point x="185" y="-29" type="line"/>
      <point x="153" y="-4" type="line"/>
      <point x="556" y="654" type="line"/>
    </contour>
    <contour>
      <point x="570" y="359" type="curve" smooth="yes"/>
      <point x="633.519" y="359"/>
      <point x="680.722" y="314.88"/>
      <point x="682" y="251" type="curve" smooth="yes"/>
      <point x="682" y="227.667"/>
      <point x="674.167" y="205.333"/>
      <point x="658.5" y="184" type="curve" smooth="yes"/>
      <point x="642.833" y="162.667"/>
      <point x="615.333" y="135"/>
      <point x="576" y="101" type="curve" smooth="yes"/>
      <point x="525" y="57" type="line"/>
      <point x="526" y="55" type="line"/>
      <point x="617" y="55" type="line" smooth="yes"/>
      <point x="636.333" y="55"/>
      <point x="650.167" y="57.5"/>
      <point x="658.5" y="62.5" type="curve" smooth="yes"/>
      <point x="666.833" y="67.5"/>
      <point x="675.667" y="79.3333"/>
      <point x="685" y="98" type="curve"/>
      <point x="707" y="91" type="line"/>
      <point x="696.333" y="55"/>
      <point x="688.333" y="24.6667"/>
      <point x="683" y="0" type="curve"/>
      <point x="438" y="0" type="line"/>
      <point x="438" y="23" type="line"/>
      <point x="487.051" y="61.9522"/>
      <point x="497.102" y="70.3038"/>
      <point x="542" y="114.5" type="curve" smooth="yes"/>
      <point x="563.333" y="135.5"/>
      <point x="579.333" y="156"/>
      <point x="590" y="176" type="curve" smooth="yes"/>
      <point x="600.667" y="196"/>
      <point x="606" y="215"/>
      <point x="606" y="233" type="curve" smooth="yes"/>
      <point x="606" y="276.387"/>
      <point x="582.493" y="305"/>
      <point x="541" y="305" type="curve" smooth="yes"/>
      <point x="511.667" y="305"/>
      <point x="483.667" y="287"/>
      <point x="457" y="251" type="curve"/>
      <point x="439" y="269" type="line"/>
      <point x="472" y="314" type="line"/>
      <point x="495.333" y="344"/>
      <point x="528" y="359"/>
    </contour>
  </outline>
</glyph>
<glyph name="threequarters" format="2">
  <advance width="767"/>
  <unicode hex="00BE"/>
  <outline>
    <contour>
      <point x="608" y="630" type="line"/>
      <point x="202" y="-29" type="line"/>
      <point x="170" y="-4" type="line"/>
      <point x="574" y="654" type="line"/>
    </contour>
    <contour>
      <point x="627" y="72" type="line" smooth="yes"/>
      <point x="627" y="29.7208"/>
      <point x="639.134" y="26.6941"/>
      <point x="681" y="23" type="curve"/>
      <point x="681" y="0" type="line"/>
      <point x="497" y="0" type="line"/>
      <point x="497" y="23" type="line"/>
      <point x="524.333" y="25"/>
      <point x="541.833" y="28.8333"/>
      <point x="549.5" y="34.5" type="curve" smooth="yes"/>
      <point x="557.167" y="40.1667"/>
      <point x="561" y="52.6667"/>
      <point x="561" y="72" type="curve" smooth="yes"/>
      <point x="561" y="99" type="line"/>
      <point x="400" y="99" type="line"/>
      <point x="400" y="123" type="line"/>
      <point x="472.667" y="219.667"/>
      <point x="534.333" y="298.333"/>
      <point x="585" y="359" type="curve"/>
      <point x="627" y="359" type="line"/>
      <point x="627" y="137" type="line"/>
      <point x="685" y="138" type="line"/>
      <point x="685" y="99" type="line"/>
      <point x="627" y="99" type="line"/>
    </contour>
    <contour>
      <point x="561" y="138" type="line"/>
      <point x="561" y="282" type="line"/>
      <point x="558" y="282" type="line"/>
      <point x="526.667" y="242"/>
      <point x="491.667" y="194"/>
      <point x="453" y="138" type="curve"/>
    </contour>
    <contour>
      <point x="201" y="635" type="line" smooth="yes"/>
      <point x="251.052" y="635"/>
      <point x="298" y="605.794"/>
      <point x="298" y="559" type="curve" smooth="yes"/>
      <point x="298" y="542.333"/>
      <point x="291.667" y="528.667"/>
      <point x="279" y="518" type="curve" smooth="yes"/>
      <point x="265.667" y="507.333"/>
      <point x="251" y="497.667"/>
      <point x="235" y="489" type="curve"/>
      <point x="235" y="487" type="line"/>
      <point x="281.516" y="478.14"/>
      <point x="323" y="454.097"/>
      <point x="323" y="404" type="curve" smooth="yes"/>
      <point x="323" y="344.95"/>
      <point x="260.982" y="299.514"/>
      <point x="216.5" y="283.5" type="curve" smooth="yes"/>
      <point x="191.5" y="274.5"/>
      <point x="170.333" y="270"/>
      <point x="153" y="270" type="curve" smooth="yes"/>
      <point x="124.333" y="270"/>
      <point x="101.333" y="277"/>
      <point x="84" y="291" type="curve" smooth="yes"/>
      <point x="75.8266" y="297.641"/>
      <point x="72.5342" y="305.023"/>
      <point x="72.5342" y="312.344" type="curve" smooth="yes"/>
      <point x="72.5342" y="324.688"/>
      <point x="81.8947" y="336.856"/>
      <point x="93" y="345" type="curve" smooth="yes"/>
      <point x="99.6667" y="349"/>
      <point x="106.667" y="348.333"/>
      <point x="114" y="343" type="curve" smooth="yes"/>
      <point x="143.333" y="320.333"/>
      <point x="168.333" y="309"/>
      <point x="189" y="309" type="curve" smooth="yes"/>
      <point x="229.257" y="309"/>
      <point x="250" y="337.924"/>
      <point x="250" y="381" type="curve" smooth="yes"/>
      <point x="250" y="424.868"/>
      <point x="218.689" y="449"/>
      <point x="176" y="449" type="curve" smooth="yes"/>
      <point x="161.333" y="449"/>
      <point x="147.667" y="446.667"/>
      <point x="135" y="442" type="curve"/>
      <point x="128" y="468" type="line"/>
      <point x="192.667" y="488.667"/>
      <point x="225" y="514.333"/>
      <point x="225" y="545" type="curve" smooth="yes"/>
      <point x="225" y="570.67"/>
      <point x="204.232" y="588.074"/>
      <point x="177.358" y="588.074" type="curve" smooth="yes"/>
      <point x="176.255" y="588.074"/>
      <point x="175.136" y="588.049"/>
      <point x="174" y="588" type="curve" smooth="yes"/>
      <point x="142.726" y="588"/>
      <point x="113.278" y="560.917"/>
      <point x="100" y="541" type="curve"/>
      <point x="83" y="557" type="line"/>
      <point x="113" y="599" type="line"/>
      <point x="135.667" y="623"/>
      <point x="164.667" y="635"/>
      <point x="200" y="635" type="curve" smooth="yes"/>
    </contour>
  </outline>
</glyph>
<glyph name="questiondown" format="2">
  <advance width="382"/>
  <unicode hex="00BF"/>
  <outline>
    <contour>
      <point x="135" y="389" type="curve" smooth="yes"/>
      <point x="135" y="424.289"/>
      <point x="160.017" y="450"/>
      <point x="195" y="450" type="curve" smooth="yes"/>
      <point x="228.305" y="450"/>
      <point x="252" y="423.186"/>
      <point x="252" y="389" type="curve" smooth="yes"/>
      <point x="252" y="355.077"/>
      <point x="227.645" y="329"/>
      <point x="194" y="329" type="curve" smooth="yes"/>
      <point x="160.376" y="329"/>
      <point x="135" y="355.076"/>
    </contour>
    <contour>
      <point x="282" y="-102" type="curve" smooth="yes"/>
      <point x="301.706" y="-102"/>
      <point x="326" y="-129.163"/>
      <point x="326" y="-150" type="curve" smooth="yes"/>
      <point x="326" y="-181.804"/>
      <point x="282.076" y="-206.33"/>
      <point x="255" y="-216" type="curve" smooth="yes"/>
      <point x="236.333" y="-222.667"/>
      <point x="221" y="-226"/>
      <point x="209" y="-226" type="curve" smooth="yes"/>
      <point x="208" y="-226" type="line" smooth="yes"/>
      <point x="166" y="-226"/>
      <point x="128.333" y="-209.667"/>
      <point x="95" y="-177" type="curve" smooth="yes"/>
      <point x="61.6667" y="-144.333"/>
      <point x="45" y="-107"/>
      <point x="45" y="-65" type="curve" smooth="yes"/>
      <point x="45" y="-29"/>
      <point x="61.6667" y="1.66667"/>
      <point x="95" y="27" type="curve" smooth="yes"/>
      <point x="106.123" y="36.2689"/>
      <point x="150.551" y="69.199"/>
      <point x="162.5" y="79.5" type="curve" smooth="yes"/>
      <point x="177.113" y="92.097"/>
      <point x="204" y="120.175"/>
      <point x="204" y="145" type="curve" smooth="yes"/>
      <point x="204" y="169.667"/>
      <point x="189.667" y="194.667"/>
      <point x="161" y="220" type="curve"/>
      <point x="180" y="244" type="line"/>
      <point x="205.333" y="234.667"/>
      <point x="230.667" y="217.5"/>
      <point x="256" y="192.5" type="curve" smooth="yes"/>
      <point x="281.333" y="167.5"/>
      <point x="294" y="141"/>
      <point x="294" y="113" type="curve" smooth="yes"/>
      <point x="294" y="95"/>
      <point x="287.5" y="77.3333"/>
      <point x="274.5" y="60" type="curve" smooth="yes"/>
      <point x="261.5" y="42.6667"/>
      <point x="239" y="22.3333"/>
      <point x="207" y="-1" type="curve" smooth="yes"/>
      <point x="165.586" y="-30.7666"/>
      <point x="156.945" y="-32.0387"/>
      <point x="127" y="-67.5" type="curve" smooth="yes"/>
      <point x="114.333" y="-82.5"/>
      <point x="108" y="-95.6667"/>
      <point x="108" y="-107" type="curve" smooth="yes"/>
      <point x="108" y="-141"/>
      <point x="126.667" y="-158"/>
      <point x="164" y="-158" type="curve" smooth="yes"/>
      <point x="201.693" y="-158"/>
      <point x="241" y="-133.394"/>
      <point x="261.5" y="-116" type="curve" smooth="yes"/>
      <point x="272.5" y="-106.667"/>
      <point x="279.333" y="-102"/>
    </contour>
  </outline>
</glyph>
<glyph name="Adieresis" format="2">
  <advance width="694"/>
  <unicode hex="00C4"/>
  <outline>
    <contour>
      <point x="676" y="0" type="line"/>
      <point x="423" y="0" type="line"/>
      <point x="423" y="29" type="line"/>
      <point x="453.667" y="33"/>
      <point x="472.5" y="38.5"/>
      <point x="479.5" y="45.5" type="curve" smooth="yes"/>
      <point x="483.085" y="49.0853"/>
      <point x="484.878" y="54.3759"/>
      <point x="484.878" y="61.3718" type="curve" smooth="yes"/>
      <point x="484.878" y="68.0345"/>
      <point x="483.252" y="76.2439"/>
      <point x="480" y="86" type="curve" smooth="yes"/>
      <point x="471.333" y="113.333"/>
      <point x="454" y="162"/>
      <point x="428" y="232" type="curve"/>
      <point x="219" y="232" type="line"/>
      <point x="203" y="187.333"/>
      <point x="189" y="146"/>
      <point x="177" y="108" type="curve" smooth="yes"/>
      <point x="170.679" y="89.8271"/>
      <point x="167.519" y="75.4586"/>
      <point x="167.519" y="64.8944" type="curve" smooth="yes"/>
      <point x="167.519" y="57.6315"/>
      <point x="169.013" y="52.1667"/>
      <point x="172" y="48.5" type="curve" smooth="yes"/>
      <point x="179.333" y="39.5"/>
      <point x="201.667" y="33"/>
      <point x="239" y="29" type="curve"/>
      <point x="239" y="-1.42109e-14" type="line"/>
      <point x="20" y="-1.42109e-14" type="line"/>
      <point x="20" y="29" type="line"/>
      <point x="53.3333" y="33.6667"/>
      <point x="76.3333" y="41.5"/>
      <point x="89" y="52.5" type="curve" smooth="yes"/>
      <point x="101.667" y="63.5"/>
      <point x="116.333" y="90"/>
      <point x="133" y="132" type="curve" smooth="yes"/>
      <point x="339" y="655" type="line"/>
      <point x="373" y="665" type="line"/>
      <point x="566" y="132" type="line" smooth="yes"/>
      <point x="582" y="89.3333"/>
      <point x="596" y="62.3333"/>
      <point x="608" y="51" type="curve" smooth="yes"/>
      <point x="620" y="39.6667"/>
      <point x="642.667" y="32.3333"/>
      <point x="676" y="29" type="curve"/>
    </contour>
    <contour>
      <point x="413" y="277" type="line"/>
      <point x="328" y="525" type="line"/>
      <point x="326" y="525" type="line"/>
      <point x="235" y="277" type="line"/>
    </contour>
    <contour>
      <point x="400" y="747" type="curve" smooth="yes"/>
      <point x="400" y="776.099"/>
      <point x="422.876" y="800"/>
      <point x="452" y="800" type="curve" smooth="yes"/>
      <point x="480.307" y="800"/>
      <point x="502" y="775.549"/>
      <point x="502" y="747" type="curve" smooth="yes"/>
      <point x="502" y="719.234"/>
      <point x="478.765" y="696"/>
      <point x="451" y="696" type="curve" smooth="yes"/>
      <point x="423.766" y="696"/>
      <point x="400" y="720.081"/>
    </contour>
    <contour>
      <point x="206" y="747" type="curve" smooth="yes"/>
      <point x="206" y="776.099"/>
      <point x="228.876" y="800"/>
      <point x="258" y="800" type="curve" smooth="yes"/>
      <point x="286.307" y="800"/>
      <point x="308" y="775.549"/>
      <point x="308" y="747" type="curve" smooth="yes"/>
      <point x="308" y="718.702"/>
      <point x="285.621" y="696"/>
      <point x="257" y="696" type="curve" smooth="yes"/>
      <point x="229.234" y="696"/>
      <point x="206" y="719.235"/>
    </contour>
  </outline>
</glyph>
<glyph name="Aring" format="2">
  <advance width="694"/>
  <unicode hex="00C5"/>
  <outline>
    <contour>
      <point x="675" y="0" type="line"/>
      <point x="422" y="0" type="line"/>
      <point x="422" y="29" type="line"/>
      <point x="453.333" y="33"/>
      <point x="472.5" y="38.5"/>
      <point x="479.5" y="45.5" type="curve" smooth="yes"/>
      <point x="483.085" y="49.0853"/>
      <point x="484.878" y="54.3759"/>
      <point x="484.878" y="61.3718" type="curve" smooth="yes"/>
      <point x="484.878" y="68.0345"/>
      <point x="483.252" y="76.2439"/>
      <point x="480" y="86" type="curve" smooth="yes"/>
      <point x="428" y="232" type="line"/>
      <point x="218" y="232" type="line"/>
      <point x="175" y="108" type="line" smooth="yes"/>
      <point x="169.231" y="90.3077"/>
      <point x="166.346" y="76.2211"/>
      <point x="166.346" y="65.7404" type="curve" smooth="yes"/>
      <point x="166.346" y="58.0545"/>
      <point x="167.897" y="52.3077"/>
      <point x="171" y="48.5" type="curve" smooth="yes"/>
      <point x="178.333" y="39.5"/>
      <point x="200.667" y="33"/>
      <point x="238" y="29" type="curve"/>
      <point x="238" y="-7.10543e-15" type="line"/>
      <point x="19" y="-7.10543e-15" type="line"/>
      <point x="19" y="29" type="line"/>
      <point x="52.3333" y="33.6667"/>
      <point x="75.1667" y="41.5"/>
      <point x="87.5" y="52.5" type="curve" smooth="yes"/>
      <point x="99.8333" y="63.5"/>
      <point x="114.333" y="90"/>
      <point x="131" y="132" type="curve" smooth="yes"/>
      <point x="338" y="655" type="line"/>
      <point x="372" y="665" type="line"/>
      <point x="565" y="132" type="line" smooth="yes"/>
      <point x="580.333" y="89.3333"/>
      <point x="594.333" y="62.3333"/>
      <point x="607" y="51" type="curve" smooth="yes"/>
      <point x="619.667" y="39.6667"/>
      <point x="642.333" y="32.3333"/>
      <point x="675" y="29" type="curve"/>
    </contour>
    <contour>
      <point x="412" y="277" type="line"/>
      <point x="327" y="525" type="line"/>
      <point x="325" y="525" type="line"/>
      <point x="234" y="277" type="line"/>
    </contour>
    <contour>
      <point x="266" y="772" type="curve" smooth="yes"/>
      <point x="266" y="821.416"/>
      <point x="307.364" y="857"/>
      <point x="356" y="857" type="curve" smooth="yes"/>
      <point x="403.82" y="857"/>
      <point x="445" y="820.892"/>
      <point x="445" y="772" type="curve" smooth="yes"/>
      <point x="445" y="722.619"/>
      <point x="403.63" y="686"/>
      <point x="355" y="686" type="curve" smooth="yes"/>
      <point x="306.356" y="686"/>
      <point x="266" y="722.63"/>
    </contour>
    <contour>
      <point x="399" y="772" type="curve" smooth="yes"/>
      <point x="399" y="800.811"/>
      <point x="383.008" y="824"/>
      <point x="355" y="824" type="curve" smooth="yes"/>
      <point x="327.88" y="824"/>
      <point x="311" y="800.235"/>
      <point x="311" y="772" type="curve" smooth="yes"/>
      <point x="311" y="742.434"/>
      <point x="327.541" y="718"/>
      <point x="356" y="718" type="curve" smooth="yes"/>
      <point x="383.592" y="718"/>
      <point x="399" y="743.077"/>
    </contour>
  </outline>
</glyph>
<glyph name="AE" format="2">
  <advance width="871"/>
  <unicode hex="00C6"/>
  <outline>
    <contour>
      <point x="523" y="132" type="line" smooth="yes"/>
      <point x="523" y="39.0447"/>
      <point x="541.003" y="37"/>
      <point x="647" y="37" type="curve" smooth="yes"/>
      <point x="707.724" y="37"/>
      <point x="746.223" y="40.029"/>
      <point x="771" y="71" type="curve" smooth="yes"/>
      <point x="789" y="91.6667"/>
      <point x="806" y="123.667"/>
      <point x="822" y="167" type="curve"/>
      <point x="852" y="160" type="line"/>
      <point x="830.667" y="62.6667"/>
      <point x="818.667" y="9.33333"/>
      <point x="816" y="0" type="curve"/>
      <point x="339" y="0" type="line"/>
      <point x="339" y="29" type="line"/>
      <point x="381" y="31.6667"/>
      <point x="407" y="38.8333"/>
      <point x="417" y="50.5" type="curve" smooth="yes"/>
      <point x="427" y="62.1667"/>
      <point x="432" y="90.6667"/>
      <point x="432" y="136" type="curve" smooth="yes"/>
      <point x="432" y="296" type="line"/>
      <point x="256" y="296" type="line"/>
      <point x="218.667" y="223.333"/>
      <point x="187.667" y="159.667"/>
      <point x="163" y="105" type="curve" smooth="yes"/>
      <point x="154.842" y="87.8249"/>
      <point x="150.763" y="74.1757"/>
      <point x="150.763" y="64.0526" type="curve" smooth="yes"/>
      <point x="150.763" y="58.4582"/>
      <point x="152.009" y="53.9407"/>
      <point x="154.5" y="50.5" type="curve" smooth="yes"/>
      <point x="161.5" y="40.8333"/>
      <point x="183.667" y="33.6667"/>
      <point x="221" y="29" type="curve"/>
      <point x="221" y="0" type="line"/>
      <point x="-11" y="0" type="line"/>
      <point x="-11" y="29" type="line"/>
      <point x="21" y="33"/>
      <point x="44.1667" y="40"/>
      <point x="58.5" y="50" type="curve" smooth="yes"/>
      <point x="72.8333" y="60"/>
      <point x="89.3333" y="81.6667"/>
      <point x="108" y="115" type="curve" smooth="yes"/>
      <point x="174.667" y="233"/>
      <point x="253.667" y="382.333"/>
      <point x="345" y="563" type="curve" smooth="yes"/>
      <point x="353.325" y="578.089"/>
      <point x="357.488" y="589.422"/>
      <point x="357.488" y="596.999" type="curve" smooth="yes"/>
      <point x="357.488" y="610.494"/>
      <point x="342.376" y="614.1"/>
      <point x="317" y="617" type="curve" smooth="yes"/>
      <point x="273" y="623" type="line"/>
      <point x="273" y="650" type="line"/>
      <point x="792" y="650" type="line"/>
      <point x="794" y="600.667"/>
      <point x="797.333" y="553"/>
      <point x="802" y="507" type="curve"/>
      <point x="771" y="503" type="line"/>
      <point x="761" y="543"/>
      <point x="750" y="570.667"/>
      <point x="738" y="586" type="curve" smooth="yes"/>
      <point x="717.471" y="611.661"/>
      <point x="686.595" y="613"/>
      <point x="633" y="613" type="curve" smooth="yes"/>
      <point x="556" y="613" type="line" smooth="yes"/>
      <point x="525.466" y="613"/>
      <point x="523" y="611.109"/>
      <point x="523" y="581" type="curve" smooth="yes"/>
      <point x="523" y="336" type="line"/>
      <point x="608" y="336" type="line" smooth="yes"/>
      <point x="652" y="336"/>
      <point x="679.667" y="340"/>
      <point x="691" y="348" type="curve" smooth="yes"/>
      <point x="702.333" y="356"/>
      <point x="711.333" y="377.333"/>
      <point x="718" y="412" type="curve"/>
      <point x="749" y="412" type="line"/>
      <point x="749" y="216" type="line"/>
      <point x="718" y="216" type="line"/>
      <point x="711.333" y="252.667"/>
      <point x="702.333" y="275.167"/>
      <point x="691" y="283.5" type="curve" smooth="yes"/>
      <point x="679.667" y="291.833"/>
      <point x="652" y="296"/>
      <point x="608" y="296" type="curve" smooth="yes"/>
      <point x="523" y="296" type="line"/>
    </contour>
    <contour>
      <point x="432" y="336" type="line"/>
      <point x="432" y="608" type="line"/>
      <point x="424" y="608"/>
      <point x="415" y="602.333"/>
      <point x="405" y="591" type="curve"/>
      <point x="275" y="336" type="line"/>
    </contour>
  </outline>
</glyph>
<glyph name="Ccedilla" format="2">
  <advance width="664"/>
  <unicode hex="00C7"/>
  <outline>
    <contour>
      <point x="158" y="337" type="curve" smooth="yes"/>
      <point x="158" y="169.318"/>
      <point x="246.724" y="24"/>
      <point x="408" y="24" type="curve" smooth="yes"/>
      <point x="456.667" y="24"/>
      <point x="496.333" y="36.3333"/>
      <point x="527" y="61" type="curve" smooth="yes"/>
      <point x="557.667" y="85.6667"/>
      <point x="586.667" y="125"/>
      <point x="614" y="179" type="curve"/>
      <point x="645" y="168" type="line"/>
      <point x="625.667" y="98"/>
      <point x="607.333" y="46"/>
      <point x="590" y="12" type="curve"/>
      <point x="526.667" y="-3.33333"/>
      <point x="471.667" y="-11.6667"/>
      <point x="425" y="-13" type="curve"/>
      <point x="414" y="-26" type="line" smooth="yes"/>
      <point x="409.509" y="-31.3333"/>
      <point x="407.263" y="-36.903"/>
      <point x="407.263" y="-42.7091" type="curve" smooth="yes"/>
      <point x="407.263" y="-50.6925"/>
      <point x="411.509" y="-59.1228"/>
      <point x="420" y="-68" type="curve" smooth="yes"/>
      <point x="445.333" y="-94"/>
      <point x="458" y="-117"/>
      <point x="458" y="-137" type="curve" smooth="yes"/>
      <point x="458" y="-157"/>
      <point x="447.667" y="-176.167"/>
      <point x="427" y="-194.5" type="curve" smooth="yes"/>
      <point x="406.333" y="-212.833"/>
      <point x="378.333" y="-227.667"/>
      <point x="343" y="-239" type="curve"/>
      <point x="328" y="-211" type="line"/>
      <point x="368.667" y="-193"/>
      <point x="389" y="-173"/>
      <point x="389" y="-151" type="curve" smooth="yes"/>
      <point x="389" y="-141.667"/>
      <point x="381.667" y="-129"/>
      <point x="367" y="-113" type="curve" smooth="yes"/>
      <point x="353.324" y="-99.324"/>
      <point x="345.097" y="-89.6099"/>
      <point x="345.097" y="-77.2986" type="curve" smooth="yes"/>
      <point x="345.097" y="-69.7232"/>
      <point x="348.731" y="-60.6237"/>
      <point x="356" y="-50" type="curve" smooth="yes"/>
      <point x="383" y="-14" type="line"/>
      <point x="216.8" y="-8.13411"/>
      <point x="109.638" y="75.013"/>
      <point x="65" y="200" type="curve" smooth="yes"/>
      <point x="51.6667" y="237.333"/>
      <point x="45" y="275.667"/>
      <point x="45" y="315" type="curve" smooth="yes"/>
      <point x="45" y="418.333"/>
      <point x="80.6667" y="502.5"/>
      <point x="152" y="567.5" type="curve" smooth="yes"/>
      <point x="223.333" y="632.5"/>
      <point x="315.333" y="665"/>
      <point x="428" y="665" type="curve" smooth="yes"/>
      <point x="474" y="665"/>
      <point x="533" y="656"/>
      <point x="605" y="638" type="curve"/>
      <point x="613.667" y="583.333"/>
      <point x="620.667" y="531.667"/>
      <point x="626" y="483" type="curve"/>
      <point x="595" y="477" type="line"/>
      <point x="565.935" y="576.304"/>
      <point x="520.721" y="627"/>
      <point x="401" y="627" type="curve" smooth="yes"/>
      <point x="327.667" y="627"/>
      <point x="268.833" y="599.5"/>
      <point x="224.5" y="544.5" type="curve" smooth="yes"/>
      <point x="180.167" y="489.5"/>
      <point x="158" y="420.333"/>
    </contour>
  </outline>
</glyph>
<glyph name="Idieresis" format="2">
  <advance width="347"/>
  <unicode hex="00CF"/>
  <outline>
    <contour>
      <point x="309" y="0" type="line"/>
      <point x="38" y="0" type="line"/>
      <point x="38" y="29" type="line"/>
      <point x="78.6667" y="32.3333"/>
      <point x="103.5" y="38.8333"/>
      <point x="112.5" y="48.5" type="curve" smooth="yes"/>
      <point x="121.5" y="58.1667"/>
      <point x="126" y="84"/>
      <point x="126" y="126" type="curve" smooth="yes"/>
      <point x="126" y="524" type="line" smooth="yes"/>
      <point x="126" y="566"/>
      <point x="121.5" y="591.833"/>
      <point x="112.5" y="601.5" type="curve" smooth="yes"/>
      <point x="103.5" y="611.167"/>
      <point x="78.6667" y="617.667"/>
      <point x="38" y="621" type="curve"/>
      <point x="38" y="650" type="line"/>
      <point x="309" y="650" type="line"/>
      <point x="309" y="621" type="line"/>
      <point x="268.333" y="617.667"/>
      <point x="243.5" y="611.167"/>
      <point x="234.5" y="601.5" type="curve" smooth="yes"/>
      <point x="225.5" y="591.833"/>
      <point x="221" y="566"/>
      <point x="221" y="524" type="curve" smooth="yes"/>
      <point x="221" y="126" type="line" smooth="yes"/>
      <point x="221" y="84"/>
      <point x="225.5" y="58.1667"/>
      <point x="234.5" y="48.5" type="curve" smooth="yes"/>
      <point x="243.5" y="38.8333"/>
      <point x="268.333" y="32.3333"/>
      <point x="309" y="29" type="curve"/>
    </contour>
    <contour>
      <point x="271" y="696" type="curve" smooth="yes"/>
      <point x="243.766" y="696"/>
      <point x="220" y="720.081"/>
      <point x="220" y="747" type="curve" smooth="yes"/>
      <point x="220" y="776.117"/>
      <point x="242.226" y="799.677"/>
      <point x="270" y="801" type="curve"/>
      <point x="272" y="800" type="line"/>
      <point x="300.307" y="800"/>
      <point x="322" y="775.549"/>
      <point x="322" y="747" type="curve" smooth="yes"/>
      <point x="322" y="719.234"/>
      <point x="298.765" y="696"/>
    </contour>
    <contour>
      <point x="26" y="747" type="curve" smooth="yes"/>
      <point x="26" y="776.099"/>
      <point x="48.8758" y="800"/>
      <point x="78" y="800" type="curve" smooth="yes"/>
      <point x="106.307" y="800"/>
      <point x="128" y="775.549"/>
      <point x="128" y="747" type="curve" smooth="yes"/>
      <point x="128" y="718.702"/>
      <point x="105.621" y="696"/>
      <point x="77" y="696" type="curve" smooth="yes"/>
      <point x="49.2345" y="696"/>
      <point x="26" y="719.235"/>
    </contour>
  </outline>
</glyph>
<glyph name="Oslash" format="2">
  <advance width="753"/>
  <unicode hex="00D8"/>
  <outline>
    <contour>
      <point x="171" y="55" type="line"/>
      <point x="102.3" y="111.647"/>
      <point x="49" y="200.746"/>
      <point x="49" y="320" type="curve" smooth="yes"/>
      <point x="49" y="412.667"/>
      <point x="80.3333" y="493.333"/>
      <point x="143" y="562" type="curve" smooth="yes"/>
      <point x="205.667" y="630.667"/>
      <point x="288.333" y="665"/>
      <point x="391" y="665" type="curve" smooth="yes"/>
      <point x="453" y="665"/>
      <point x="507.667" y="650"/>
      <point x="555" y="620" type="curve"/>
      <point x="606" y="695" type="line"/>
      <point x="636" y="674" type="line"/>
      <point x="587" y="599" type="line"/>
      <point x="654.707" y="543.171"/>
      <point x="713" y="452.109"/>
      <point x="713" y="335" type="curve" smooth="yes"/>
      <point x="713" y="230.333"/>
      <point x="680.667" y="145.833"/>
      <point x="616" y="81.5" type="curve" smooth="yes"/>
      <point x="551.333" y="17.1667"/>
      <point x="470.667" y="-15"/>
      <point x="374" y="-15" type="curve" smooth="yes"/>
      <point x="310.667" y="-15"/>
      <point x="253.333" y="1.33333"/>
      <point x="202" y="34" type="curve"/>
      <point x="146" y="-46" type="line"/>
      <point x="118" y="-22" type="line"/>
    </contour>
    <contour>
      <point x="220" y="126" type="curve"/>
      <point x="516" y="563" type="line"/>
      <point x="478.667" y="606.333"/>
      <point x="429.667" y="628"/>
      <point x="369" y="628" type="curve" smooth="yes"/>
      <point x="309.667" y="628"/>
      <point x="259.5" y="603"/>
      <point x="218.5" y="553" type="curve" smooth="yes"/>
      <point x="177.5" y="503"/>
      <point x="157" y="433"/>
      <point x="157" y="343" type="curve" smooth="yes"/>
      <point x="157" y="257"/>
      <point x="178" y="184.667"/>
    </contour>
    <contour>
      <point x="391" y="22" type="curve" smooth="yes"/>
      <point x="538.818" y="22"/>
      <point x="604" y="151.809"/>
      <point x="604" y="306" type="curve" smooth="yes"/>
      <point x="604" y="394.667"/>
      <point x="582.667" y="470"/>
      <point x="540" y="532" type="curve"/>
      <point x="244" y="94" type="line"/>
      <point x="280.667" y="46"/>
      <point x="329.667" y="22"/>
    </contour>
  </outline>
</glyph>
<glyph name="Udieresis" format="2">
  <advance width="735"/>
  <unicode hex="00DC"/>
  <outline>
    <contour>
      <point x="213" y="294" type="line" smooth="yes"/>
      <point x="213" y="151.132"/>
      <point x="262.427" y="43"/>
      <point x="396" y="43" type="curve" smooth="yes"/>
      <point x="519.333" y="43"/>
      <point x="581" y="136.667"/>
      <point x="581" y="324" type="curve" smooth="yes"/>
      <point x="581" y="404" type="line" smooth="yes"/>
      <point x="581" y="478"/>
      <point x="578.333" y="531.667"/>
      <point x="573" y="565" type="curve" smooth="yes"/>
      <point x="566.587" y="611.491"/>
      <point x="534.202" y="616.6"/>
      <point x="477" y="621" type="curve"/>
      <point x="477" y="650" type="line"/>
      <point x="716" y="650" type="line"/>
      <point x="716" y="621" type="line"/>
      <point x="664.657" y="617.499"/>
      <point x="634.548" y="607.479"/>
      <point x="630" y="562" type="curve" smooth="yes"/>
      <point x="626" y="524.667"/>
      <point x="624" y="472"/>
      <point x="624" y="404" type="curve" smooth="yes"/>
      <point x="624" y="317" type="line" smooth="yes"/>
      <point x="624" y="195.667"/>
      <point x="599" y="108.667"/>
      <point x="549" y="56" type="curve" smooth="yes"/>
      <point x="504.333" y="9.33333"/>
      <point x="444" y="-14"/>
      <point x="368" y="-14" type="curve" smooth="yes"/>
      <point x="194.926" y="-14"/>
      <point x="119" y="89.3726"/>
      <point x="119" y="272" type="curve" smooth="yes"/>
      <point x="119" y="519" type="line" smooth="yes"/>
      <point x="119" y="563"/>
      <point x="114.5" y="590.167"/>
      <point x="105.5" y="600.5" type="curve" smooth="yes"/>
      <point x="96.5" y="610.833"/>
      <point x="72" y="617.667"/>
      <point x="32" y="621" type="curve"/>
      <point x="32" y="650" type="line"/>
      <point x="298" y="650" type="line"/>
      <point x="298" y="621" type="line"/>
      <point x="258.667" y="618.333"/>
      <point x="234.667" y="611.833"/>
      <point x="226" y="601.5" type="curve" smooth="yes"/>
      <point x="217.333" y="591.167"/>
      <point x="213" y="563.667"/>
      <point x="213" y="519" type="curve" smooth="yes"/>
    </contour>
    <contour>
      <point x="475" y="696" type="curve" smooth="yes"/>
      <point x="447.766" y="696"/>
      <point x="424" y="720.081"/>
      <point x="424" y="747" type="curve" smooth="yes"/>
      <point x="424" y="776.117"/>
      <point x="446.226" y="799.677"/>
      <point x="474" y="801" type="curve"/>
      <point x="476" y="800" type="line"/>
      <point x="504.307" y="800"/>
      <point x="526" y="775.549"/>
      <point x="526" y="747" type="curve" smooth="yes"/>
      <point x="526" y="719.234"/>
      <point x="502.765" y="696"/>
    </contour>
    <contour>
      <point x="230" y="747" type="curve" smooth="yes"/>
      <point x="230" y="776.099"/>
      <point x="252.876" y="800"/>
      <point x="282" y="800" type="curve" smooth="yes"/>
      <point x="310.307" y="800"/>
      <point x="332" y="775.549"/>
      <point x="332" y="747" type="curve" smooth="yes"/>
      <point x="332" y="718.702"/>
      <point x="309.621" y="696"/>
      <point x="281" y="696" type="curve" smooth="yes"/>
      <point x="253.234" y="696"/>
      <point x="230" y="719.235"/>
    </contour>
  </outline>
</glyph>
<glyph name="germandbls" format="2">
  <advance width="550"/>
  <unicode hex="00DF"/>
  <outline>
    <contour>
      <point x="189" y="104" type="line" smooth="yes"/>
      <point x="189" y="45.9941"/>
      <point x="191.177" y="33.7439"/>
      <point x="240" y="28" type="curve"/>
      <point x="240" y="0" type="line"/>
      <point x="31" y="0" type="line"/>
      <point x="31" y="28" type="line"/>
      <point x="62.3333" y="30.6667"/>
      <point x="81.8333" y="36.1667"/>
      <point x="89.5" y="44.5" type="curve" smooth="yes"/>
      <point x="97.1667" y="52.8333"/>
      <point x="101" y="72.3333"/>
      <point x="101" y="103" type="curve" smooth="yes"/>
      <point x="101" y="393" type="line"/>
      <point x="32" y="393" type="line"/>
      <point x="28" y="405" type="line"/>
      <point x="55" y="438" type="line"/>
      <point x="101" y="438" type="line"/>
      <point x="101" y="450" type="line" smooth="yes"/>
      <point x="101" y="482.667"/>
      <point x="105.333" y="511.333"/>
      <point x="114" y="536" type="curve" smooth="yes"/>
      <point x="137.965" y="619.877"/>
      <point x="224.446" y="702.295"/>
      <point x="326" y="711" type="curve"/>
      <point x="419.467" y="708.404"/>
      <point x="485.642" y="653.71"/>
      <point x="487" y="560" type="curve" smooth="yes"/>
      <point x="487" y="544"/>
      <point x="483.333" y="530.667"/>
      <point x="476" y="520" type="curve"/>
      <point x="409.333" y="470"/>
      <point x="376" y="425.667"/>
      <point x="376" y="387" type="curve" smooth="yes"/>
      <point x="376" y="364.245"/>
      <point x="397.125" y="334.875"/>
      <point x="408.5" y="323.5" type="curve" smooth="yes"/>
      <point x="414.833" y="317.167"/>
      <point x="426.667" y="306"/>
      <point x="444" y="290" type="curve" smooth="yes"/>
      <point x="496.667" y="244.667"/>
      <point x="523" y="200.333"/>
      <point x="523" y="157" type="curve" smooth="yes"/>
      <point x="523" y="111.667"/>
      <point x="502.167" y="72"/>
      <point x="460.5" y="38" type="curve" smooth="yes"/>
      <point x="418.833" y="4"/>
      <point x="377.667" y="-13"/>
      <point x="337" y="-13" type="curve" smooth="yes"/>
      <point x="303.982" y="-13"/>
      <point x="261.429" y="0.830067"/>
      <point x="261.429" y="29.6327" type="curve" smooth="yes"/>
      <point x="261.429" y="43.5321"/>
      <point x="269.361" y="53.2705"/>
      <point x="281" y="62" type="curve" smooth="yes"/>
      <point x="289" y="68"/>
      <point x="296" y="68.3333"/>
      <point x="302" y="63" type="curve" smooth="yes"/>
      <point x="327.333" y="43"/>
      <point x="352" y="33"/>
      <point x="376" y="33" type="curve" smooth="yes"/>
      <point x="416.128" y="33"/>
      <point x="442" y="65.5333"/>
      <point x="442" y="110" type="curve" smooth="yes"/>
      <point x="442" y="130"/>
      <point x="436.667" y="148.167"/>
      <point x="426" y="164.5" type="curve" smooth="yes"/>
      <point x="415.333" y="180.833"/>
      <point x="399" y="199"/>
      <point x="377" y="219" type="curve" smooth="yes"/>
      <point x="321.667" y="267"/>
      <point x="294" y="309"/>
      <point x="294" y="345" type="curve" smooth="yes"/>
      <point x="294" y="363"/>
      <point x="299.167" y="380"/>
      <point x="309.5" y="396" type="curve" smooth="yes"/>
      <point x="319.833" y="412"/>
      <point x="337.667" y="433.667"/>
      <point x="363" y="461" type="curve" smooth="yes"/>
      <point x="388.333" y="486.333"/>
      <point x="402" y="500.667"/>
      <point x="404" y="504" type="curve" smooth="yes"/>
      <point x="408.667" y="510"/>
      <point x="411" y="521.333"/>
      <point x="411" y="538" type="curve" smooth="yes"/>
      <point x="411.019" y="538.985"/>
      <point x="411.029" y="539.968"/>
      <point x="411.029" y="540.947" type="curve" smooth="yes"/>
      <point x="411.029" y="606.683"/>
      <point x="360.42" y="668"/>
      <point x="295" y="668" type="curve" smooth="yes"/>
      <point x="213.881" y="668"/>
      <point x="198.922" y="579.644"/>
      <point x="192.5" y="503.5" type="curve" smooth="yes"/>
      <point x="190.167" y="475.833"/>
      <point x="189" y="442.333"/>
      <point x="189" y="403" type="curve" smooth="yes"/>
    </contour>
  </outline>
</glyph>
<glyph name="adieresis" format="2">
  <advance width="444"/>
  <unicode hex="00E4"/>
  <outline>
    <contour>
      <point x="228" y="450" type="curve"/>
      <point x="316.939" y="450"/>
      <point x="359" y="391.202"/>
      <point x="359" y="298" type="curve" smooth="yes"/>
      <point x="359" y="116" type="line" smooth="yes"/>
      <point x="359" y="76.6667"/>
      <point x="370.333" y="57"/>
      <point x="393" y="57" type="curve" smooth="yes"/>
      <point x="405.667" y="57"/>
      <point x="417.667" y="60.3333"/>
      <point x="429" y="67" type="curve"/>
      <point x="439" y="40" type="line"/>
      <point x="350" y="-12" type="line"/>
      <point x="308.672" y="-12"/>
      <point x="287.315" y="15.7979"/>
      <point x="276" y="51" type="curve"/>
      <point x="215.333" y="9"/>
      <point x="176.667" y="-12"/>
      <point x="160" y="-12" type="curve" smooth="yes"/>
      <point x="91.8445" y="-12"/>
      <point x="38" y="44.1572"/>
      <point x="38" y="111" type="curve" smooth="yes"/>
      <point x="38" y="157.667"/>
      <point x="64.6667" y="190.333"/>
      <point x="118" y="209" type="curve" smooth="yes"/>
      <point x="207.333" y="241"/>
      <point x="259.333" y="263"/>
      <point x="274" y="275" type="curve"/>
      <point x="274" y="294" type="line" smooth="yes"/>
      <point x="274" y="355.127"/>
      <point x="249.37" y="405"/>
      <point x="193" y="405" type="curve" smooth="yes"/>
      <point x="175.667" y="405"/>
      <point x="161.333" y="398.667"/>
      <point x="150" y="386" type="curve" smooth="yes"/>
      <point x="138.667" y="372.667"/>
      <point x="129" y="350.333"/>
      <point x="121" y="319" type="curve" smooth="yes"/>
      <point x="116.333" y="302.333"/>
      <point x="106" y="294"/>
      <point x="90" y="294" type="curve" smooth="yes"/>
      <point x="68.4902" y="294"/>
      <point x="43" y="316.117"/>
      <point x="43" y="338" type="curve" smooth="yes"/>
      <point x="43" y="350"/>
      <point x="53.6667" y="364"/>
      <point x="75" y="380" type="curve" smooth="yes"/>
      <point x="126.333" y="416"/>
      <point x="177.333" y="439.333"/>
    </contour>
    <contour>
      <point x="131" y="127" type="curve" smooth="yes"/>
      <point x="131" y="84.4256"/>
      <point x="161.376" y="51"/>
      <point x="201" y="51" type="curve" smooth="yes"/>
      <point x="227" y="51"/>
      <point x="251.333" y="61.6667"/>
      <point x="274" y="83" type="curve"/>
      <point x="274" y="240" type="line"/>
      <point x="235.728" y="218.738"/>
      <point x="171.174" y="198.913"/>
      <point x="145" y="169" type="curve" smooth="yes"/>
      <point x="135.667" y="158.333"/>
      <point x="131" y="144.333"/>
    </contour>
    <contour>
      <point x="176" y="586" type="curve" smooth="yes"/>
      <point x="176" y="557.726"/>
      <point x="152.593" y="534"/>
      <point x="124" y="534" type="curve" smooth="yes"/>
      <point x="97.088" y="534"/>
      <point x="73" y="558.803"/>
      <point x="73" y="586" type="curve" smooth="yes"/>
      <point x="73" y="614.596"/>
      <point x="96.7245" y="638"/>
      <point x="125" y="638" type="curve" smooth="yes"/>
      <point x="153.293" y="638"/>
      <point x="176" y="614.588"/>
    </contour>
    <contour>
      <point x="350" y="586" type="curve" smooth="yes"/>
      <point x="350" y="558.261"/>
      <point x="326.765" y="534"/>
      <point x="299" y="534" type="curve" smooth="yes"/>
      <point x="272.088" y="534"/>
      <point x="248" y="558.803"/>
      <point x="248" y="586" type="curve" smooth="yes"/>
      <point x="248" y="614.596"/>
      <point x="271.725" y="638"/>
      <point x="300" y="638" type="curve" smooth="yes"/>
      <point x="328.312" y="638"/>
      <point x="350" y="614.582"/>
    </contour>
  </outline>
</glyph>
<glyph name="aring" format="2">
  <advance width="444"/>
  <unicode hex="00E5"/>
  <outline>
    <contour>
      <point x="227" y="450" type="curve"/>
      <point x="316.475" y="450"/>
      <point x="358" y="391.202"/>
      <point x="358" y="298" type="curve" smooth="yes"/>
      <point x="358" y="116" type="line" smooth="yes"/>
      <point x="358" y="76.6667"/>
      <point x="369.667" y="57"/>
      <point x="393" y="57" type="curve" smooth="yes"/>
      <point x="405" y="57"/>
      <point x="416.667" y="60.3333"/>
      <point x="428" y="67" type="curve"/>
      <point x="438" y="40" type="line"/>
      <point x="349" y="-12" type="line"/>
      <point x="309.312" y="-12"/>
      <point x="285.095" y="18.1908"/>
      <point x="275" y="51" type="curve"/>
      <point x="259.032" y="40.3545"/>
      <point x="237.854" y="25.6811"/>
      <point x="222.5" y="15" type="curve" smooth="yes"/>
      <point x="207.957" y="4.88285"/>
      <point x="203.81" y="3.90477"/>
      <point x="189" y="-3.5" type="curve" smooth="yes"/>
      <point x="179.592" y="-8.20403"/>
      <point x="171.445" y="-12"/>
      <point x="160" y="-12" type="curve" smooth="yes"/>
      <point x="92.4079" y="-12"/>
      <point x="37" y="45.0023"/>
      <point x="37" y="111" type="curve" smooth="yes"/>
      <point x="37" y="157.667"/>
      <point x="63.6667" y="190.333"/>
      <point x="117" y="209" type="curve" smooth="yes"/>
      <point x="205" y="239.667"/>
      <point x="257" y="261.667"/>
      <point x="273" y="275" type="curve"/>
      <point x="273" y="294" type="line" smooth="yes"/>
      <point x="273" y="354.232"/>
      <point x="248.871" y="405"/>
      <point x="193" y="405" type="curve" smooth="yes"/>
      <point x="175" y="405"/>
      <point x="160.667" y="398.667"/>
      <point x="150" y="386" type="curve" smooth="yes"/>
      <point x="138.667" y="372.667"/>
      <point x="129" y="350.333"/>
      <point x="121" y="319" type="curve" smooth="yes"/>
      <point x="116.333" y="302.333"/>
      <point x="105.667" y="294"/>
      <point x="89" y="294" type="curve" smooth="yes"/>
      <point x="67.4902" y="294"/>
      <point x="42" y="316.117"/>
      <point x="42" y="338" type="curve" smooth="yes"/>
      <point x="42" y="350"/>
      <point x="53" y="364"/>
      <point x="75" y="380" type="curve" smooth="yes"/>
      <point x="108.127" y="404.208"/>
      <point x="179.022" y="439.899"/>
    </contour>
    <contour>
      <point x="131" y="127" type="curve" smooth="yes"/>
      <point x="131" y="84.4618"/>
      <point x="160.41" y="51"/>
      <point x="200" y="51" type="curve" smooth="yes"/>
      <point x="226" y="51"/>
      <point x="250.333" y="61.6667"/>
      <point x="273" y="83" type="curve"/>
      <point x="273" y="240" type="line"/>
      <point x="234.561" y="218.645"/>
      <point x="171.377" y="199.145"/>
      <point x="145" y="169" type="curve" smooth="yes"/>
      <point x="135.667" y="158.333"/>
      <point x="131" y="144.333"/>
    </contour>
    <contour>
      <point x="303" y="585" type="curve" smooth="yes"/>
      <point x="303" y="536.13"/>
      <point x="260.803" y="499"/>
      <point x="213" y="499" type="curve" smooth="yes"/>
      <point x="164.374" y="499"/>
      <point x="123" y="535.624"/>
      <point x="123" y="585" type="curve" smooth="yes"/>
      <point x="123" y="634.422"/>
      <point x="165.382" y="670"/>
      <point x="214" y="670" type="curve" smooth="yes"/>
      <point x="261.82" y="670"/>
      <point x="303" y="633.892"/>
    </contour>
    <contour>
      <point x="169" y="585" type="curve" smooth="yes"/>
      <point x="169" y="556.839"/>
      <point x="186.907" y="531"/>
      <point x="214" y="531" type="curve" smooth="yes"/>
      <point x="242.447" y="531"/>
      <point x="258" y="555.469"/>
      <point x="258" y="585" type="curve" smooth="yes"/>
      <point x="258" y="614.388"/>
      <point x="241.891" y="637"/>
      <point x="213" y="637" type="curve" smooth="yes"/>
      <point x="186.368" y="637"/>
      <point x="169" y="612.401"/>
    </contour>
  </outline>
</glyph>
<glyph name="ae" format="2">
  <advance width="671"/>
  <unicode hex="00E6"/>
  <outline>
    <contour>
      <point x="232" y="450" type="curve"/>
      <point x="289.606" y="450"/>
      <point x="331.129" y="420.645"/>
      <point x="347" y="377" type="curve"/>
      <point x="390.333" y="424.333"/>
      <point x="438.667" y="448.667"/>
      <point x="492" y="450" type="curve" smooth="yes"/>
      <point x="534.667" y="450"/>
      <point x="571.167" y="434.5"/>
      <point x="601.5" y="403.5" type="curve" smooth="yes"/>
      <point x="631.833" y="372.5"/>
      <point x="647.333" y="337"/>
      <point x="648" y="297" type="curve" smooth="yes"/>
      <point x="648" y="274.179"/>
      <point x="642.817" y="266.032"/>
      <point x="624" y="262" type="curve" smooth="yes"/>
      <point x="600" y="255.333"/>
      <point x="512.667" y="249.667"/>
      <point x="362" y="245" type="curve" smooth="yes"/>
      <point x="361.985" y="243.681"/>
      <point x="361.978" y="242.369"/>
      <point x="361.978" y="241.064" type="curve" smooth="yes"/>
      <point x="361.978" y="182.333"/>
      <point x="376.652" y="137.478"/>
      <point x="406" y="106.5" type="curve" smooth="yes"/>
      <point x="436" y="74.8333"/>
      <point x="472.333" y="59"/>
      <point x="515" y="59" type="curve" smooth="yes"/>
      <point x="553" y="59"/>
      <point x="589.667" y="75.3333"/>
      <point x="625" y="108" type="curve"/>
      <point x="643" y="86" type="line"/>
      <point x="617" y="50.6667"/>
      <point x="588.333" y="25.5"/>
      <point x="557" y="10.5" type="curve" smooth="yes"/>
      <point x="525.667" y="-4.5"/>
      <point x="499" y="-12"/>
      <point x="477" y="-12" type="curve" smooth="yes"/>
      <point x="405" y="-12"/>
      <point x="351.333" y="17.3333"/>
      <point x="316" y="76" type="curve"/>
      <point x="282" y="49" type="line"/>
      <point x="227.333" y="8.33333"/>
      <point x="187" y="-12"/>
      <point x="161" y="-12" type="curve" smooth="yes"/>
      <point x="125" y="-12"/>
      <point x="95.5" y="0.333333"/>
      <point x="72.5" y="25" type="curve" smooth="yes"/>
      <point x="49.5" y="49.6667"/>
      <point x="38" y="77.6667"/>
      <point x="38" y="109" type="curve" smooth="yes"/>
      <point x="38" y="156.333"/>
      <point x="64" y="189.667"/>
      <point x="116" y="209" type="curve" smooth="yes"/>
      <point x="208.667" y="241"/>
      <point x="264" y="263.333"/>
      <point x="282" y="276" type="curve"/>
      <point x="282" y="300" type="line" smooth="yes"/>
      <point x="282" y="354.601"/>
      <point x="249.684" y="405"/>
      <point x="198" y="405" type="curve" smooth="yes"/>
      <point x="178.667" y="405"/>
      <point x="163.333" y="397.667"/>
      <point x="152" y="383" type="curve" smooth="yes"/>
      <point x="142.667" y="372.333"/>
      <point x="133.667" y="351"/>
      <point x="125" y="319" type="curve" smooth="yes"/>
      <point x="120.333" y="301.667"/>
      <point x="110.333" y="293"/>
      <point x="95" y="293" type="curve" smooth="yes"/>
      <point x="76.2819" y="293"/>
      <point x="46" y="316.853"/>
      <point x="46" y="336" type="curve" smooth="yes"/>
      <point x="46" y="350"/>
      <point x="56.6667" y="364.667"/>
      <point x="78" y="380" type="curve" smooth="yes"/>
      <point x="128.667" y="414.667"/>
      <point x="180" y="438"/>
    </contour>
    <contour>
      <point x="555" y="312" type="curve" smooth="yes"/>
      <point x="555" y="365.629"/>
      <point x="521.637" y="412"/>
      <point x="468" y="412" type="curve" smooth="yes"/>
      <point x="408.879" y="412"/>
      <point x="374.236" y="347.323"/>
      <point x="368" y="286" type="curve"/>
      <point x="533" y="289" type="line" smooth="yes"/>
      <point x="547.667" y="289"/>
      <point x="555" y="296.667"/>
    </contour>
    <contour>
      <point x="131" y="130" type="curve" smooth="yes"/>
      <point x="131" y="85.7788"/>
      <point x="162.019" y="54"/>
      <point x="204" y="54" type="curve" smooth="yes"/>
      <point x="242" y="54"/>
      <point x="274.333" y="71.3333"/>
      <point x="301" y="106" type="curve"/>
      <point x="287.667" y="134"/>
      <point x="281" y="178.667"/>
      <point x="281" y="240" type="curve"/>
      <point x="255.51" y="228.671"/>
      <point x="215.73" y="211.137"/>
      <point x="189" y="200" type="curve" smooth="yes"/>
      <point x="155.171" y="185.814"/>
      <point x="131" y="171.749"/>
    </contour>
  </outline>
</glyph>
<glyph name="ccedilla" format="2">
  <advance width="421"/>
  <unicode hex="00E7"/>
  <outline>
    <contour>
      <point x="397" y="393" type="curve" smooth="yes"/>
      <point x="395.957" y="376.313"/>
      <point x="376.367" y="347"/>
      <point x="360" y="347" type="curve" smooth="yes"/>
      <point x="354.667" y="347"/>
      <point x="348.333" y="350.667"/>
      <point x="341" y="358" type="curve" smooth="yes"/>
      <point x="309" y="386"/>
      <point x="274.667" y="400"/>
      <point x="238" y="400" type="curve" smooth="yes"/>
      <point x="208.667" y="400"/>
      <point x="182.5" y="386.833"/>
      <point x="159.5" y="360.5" type="curve" smooth="yes"/>
      <point x="136.5" y="334.167"/>
      <point x="125" y="295.333"/>
      <point x="125" y="244" type="curve" smooth="yes"/>
      <point x="125" y="153.162"/>
      <point x="164.022" y="93.3109"/>
      <point x="227.5" y="69" type="curve" smooth="yes"/>
      <point x="243.167" y="63"/>
      <point x="258.333" y="60"/>
      <point x="273" y="60" type="curve" smooth="yes"/>
      <point x="295" y="60"/>
      <point x="314.833" y="63.8333"/>
      <point x="332.5" y="71.5" type="curve" smooth="yes"/>
      <point x="350.167" y="79.1667"/>
      <point x="370" y="93.3333"/>
      <point x="392" y="114" type="curve"/>
      <point x="410" y="91" type="line"/>
      <point x="366" y="36.3333"/>
      <point x="319.667" y="3.66667"/>
      <point x="271" y="-7" type="curve"/>
      <point x="258" y="-26" type="line"/>
      <point x="253.291" y="-33.6524"/>
      <point x="251.114" y="-39.2125"/>
      <point x="251.114" y="-44.0524" type="curve" smooth="yes"/>
      <point x="251.114" y="-51.6967"/>
      <point x="256.544" y="-57.544"/>
      <point x="266" y="-67" type="curve" smooth="yes"/>
      <point x="290.667" y="-91.6667"/>
      <point x="303" y="-114.333"/>
      <point x="303" y="-135" type="curve" smooth="yes"/>
      <point x="303" y="-155"/>
      <point x="292.667" y="-174"/>
      <point x="272" y="-192" type="curve" smooth="yes"/>
      <point x="251.333" y="-210"/>
      <point x="223.333" y="-224.667"/>
      <point x="188" y="-236" type="curve"/>
      <point x="177" y="-210" type="line"/>
      <point x="216.333" y="-192"/>
      <point x="236" y="-171.667"/>
      <point x="236" y="-149" type="curve" smooth="yes"/>
      <point x="236" y="-137.667"/>
      <point x="228.667" y="-125.333"/>
      <point x="214" y="-112" type="curve" smooth="yes"/>
      <point x="200.364" y="-98.3643"/>
      <point x="192.097" y="-88.831"/>
      <point x="192.097" y="-76.9469" type="curve" smooth="yes"/>
      <point x="192.097" y="-69.606"/>
      <point x="195.731" y="-60.6237"/>
      <point x="203" y="-50" type="curve" smooth="yes"/>
      <point x="233" y="-12" type="line"/>
      <point x="119.332" y="-6.83328"/>
      <point x="36" y="78.9486"/>
      <point x="36" y="196" type="curve" smooth="yes"/>
      <point x="36" y="275.333"/>
      <point x="69.3333" y="340.333"/>
      <point x="136" y="391" type="curve" smooth="yes"/>
      <point x="188" y="430.333"/>
      <point x="240" y="450"/>
      <point x="292" y="450" type="curve" smooth="yes"/>
      <point x="330.667" y="450"/>
      <point x="360.667" y="441"/>
      <point x="382" y="423" type="curve" smooth="yes"/>
      <point x="392" y="414.333"/>
      <point x="397" y="404.333"/>
    </contour>
  </outline>
</glyph>
<glyph name="edieresis" format="2">
  <advance width="427"/>
  <unicode hex="00EB"/>
  <outline>
    <contour>
      <point x="382" y="109" type="curve"/>
      <point x="398" y="87" type="line"/>
      <point x="370.667" y="51.6667"/>
      <point x="341.833" y="26.3333"/>
      <point x="311.5" y="11" type="curve" smooth="yes"/>
      <point x="281.167" y="-4.33333"/>
      <point x="254.667" y="-12"/>
      <point x="232" y="-12" type="curve" smooth="yes"/>
      <point x="172" y="-12"/>
      <point x="124.333" y="8.66667"/>
      <point x="89" y="50" type="curve" smooth="yes"/>
      <point x="53.6667" y="91.3333"/>
      <point x="36" y="141.667"/>
      <point x="36" y="201" type="curve" smooth="yes"/>
      <point x="36" y="270.333"/>
      <point x="58.3333" y="329"/>
      <point x="103" y="377" type="curve" smooth="yes"/>
      <point x="148.333" y="425.667"/>
      <point x="197.333" y="450"/>
      <point x="250" y="450" type="curve" smooth="yes"/>
      <point x="251" y="450" type="line" smooth="yes"/>
      <point x="292.333" y="450"/>
      <point x="328" y="434.5"/>
      <point x="358" y="403.5" type="curve" smooth="yes"/>
      <point x="388" y="372.5"/>
      <point x="403" y="337"/>
      <point x="403" y="297" type="curve" smooth="yes"/>
      <point x="403" y="275.575"/>
      <point x="397.79" y="266.684"/>
      <point x="379" y="264" type="curve" smooth="yes"/>
      <point x="341" y="257.333"/>
      <point x="255.333" y="251.667"/>
      <point x="122" y="247" type="curve"/>
      <point x="122.667" y="185.667"/>
      <point x="137.5" y="139.167"/>
      <point x="166.5" y="107.5" type="curve" smooth="yes"/>
      <point x="195.5" y="75.8333"/>
      <point x="229.667" y="60"/>
      <point x="269" y="60" type="curve" smooth="yes"/>
      <point x="309" y="60"/>
      <point x="346.667" y="76.3333"/>
    </contour>
    <contour>
      <point x="311" y="312" type="curve" smooth="yes"/>
      <point x="311" y="364.465"/>
      <point x="278.897" y="412"/>
      <point x="227" y="412" type="curve" smooth="yes"/>
      <point x="204.333" y="412"/>
      <point x="183.667" y="401.167"/>
      <point x="165" y="379.5" type="curve" smooth="yes"/>
      <point x="146.333" y="357.833"/>
      <point x="133.667" y="327.667"/>
      <point x="127" y="289" type="curve"/>
      <point x="179.667" y="289"/>
      <point x="233" y="290"/>
      <point x="287" y="292" type="curve" smooth="yes"/>
      <point x="303.298" y="292"/>
      <point x="311" y="296.364"/>
    </contour>
    <contour>
      <point x="189" y="586" type="curve" smooth="yes"/>
      <point x="189" y="557.707"/>
      <point x="165.588" y="535"/>
      <point x="137" y="535" type="curve" smooth="yes"/>
      <point x="110.083" y="535"/>
      <point x="86" y="558.769"/>
      <point x="86" y="586" type="curve" smooth="yes"/>
      <point x="86" y="614.563"/>
      <point x="109.73" y="639"/>
      <point x="138" y="639" type="curve" smooth="yes"/>
      <point x="166.288" y="639"/>
      <point x="189" y="614.555"/>
    </contour>
    <contour>
      <point x="364" y="586" type="curve" smooth="yes"/>
      <point x="364" y="557.702"/>
      <point x="341.621" y="535"/>
      <point x="313" y="535" type="curve" smooth="yes"/>
      <point x="285.234" y="535"/>
      <point x="262" y="558.235"/>
      <point x="262" y="586" type="curve" smooth="yes"/>
      <point x="262" y="615.099"/>
      <point x="284.876" y="639"/>
      <point x="314" y="639" type="curve" smooth="yes"/>
      <point x="342.307" y="639"/>
      <point x="364" y="614.549"/>
    </contour>
  </outline>
</glyph>
<glyph name="idieresis" format="2">
  <advance width="273"/>
  <unicode hex="00EF"/>
  <outline>
    <contour>
      <point x="258" y="0" type="line"/>
      <point x="32" y="0" type="line"/>
      <point x="32" y="27" type="line"/>
      <point x="63.3333" y="30.3333"/>
      <point x="82.6667" y="36.3333"/>
      <point x="90" y="45" type="curve" smooth="yes"/>
      <point x="97.3333" y="53.6667"/>
      <point x="101" y="75.3333"/>
      <point x="101" y="110" type="curve" smooth="yes"/>
      <point x="101" y="308" type="line" smooth="yes"/>
      <point x="101" y="340.667"/>
      <point x="97.8333" y="361"/>
      <point x="91.5" y="369" type="curve" smooth="yes"/>
      <point x="85.1667" y="377"/>
      <point x="67.6667" y="383.333"/>
      <point x="39" y="388" type="curve"/>
      <point x="39" y="412" type="line"/>
      <point x="99" y="422.667"/>
      <point x="149" y="435.667"/>
      <point x="189" y="451" type="curve"/>
      <point x="189" y="110" type="line" smooth="yes"/>
      <point x="189" y="75.3333"/>
      <point x="192.5" y="53.6667"/>
      <point x="199.5" y="45" type="curve" smooth="yes"/>
      <point x="206.5" y="36.3333"/>
      <point x="226" y="30.3333"/>
      <point x="258" y="27" type="curve"/>
    </contour>
    <contour>
      <point x="98" y="585" type="curve" smooth="yes"/>
      <point x="98" y="556.707"/>
      <point x="74.5877" y="534"/>
      <point x="46" y="534" type="curve" smooth="yes"/>
      <point x="19.6199" y="534"/>
      <point x="-5" y="558.621"/>
      <point x="-5" y="585" type="curve" smooth="yes"/>
      <point x="-5" y="613.563"/>
      <point x="18.7296" y="638"/>
      <point x="47" y="638" type="curve" smooth="yes"/>
      <point x="76.6688" y="638"/>
      <point x="98" y="614.945"/>
    </contour>
    <contour>
      <point x="273" y="585" type="curve" smooth="yes"/>
      <point x="273" y="557.234"/>
      <point x="249.765" y="534"/>
      <point x="222" y="534" type="curve" smooth="yes"/>
      <point x="194.766" y="534"/>
      <point x="171" y="558.081"/>
      <point x="171" y="585" type="curve" smooth="yes"/>
      <point x="171" y="614.099"/>
      <point x="193.876" y="638"/>
      <point x="223" y="638" type="curve" smooth="yes"/>
      <point x="251.307" y="638"/>
      <point x="273" y="613.549"/>
    </contour>
  </outline>
</glyph>
<glyph name="ograve" format="2">
  <advance width="513"/>
  <unicode hex="00F2"/>
  <outline>
    <contour>
      <point x="260" y="450" type="curve" smooth="yes"/>
      <point x="322" y="450"/>
      <point x="373.667" y="428.167"/>
      <point x="415" y="384.5" type="curve" smooth="yes"/>
      <point x="456.333" y="340.833"/>
      <point x="477" y="288"/>
      <point x="477" y="226" type="curve" smooth="yes"/>
      <point x="477" y="150.667"/>
      <point x="454.667" y="92.1667"/>
      <point x="410" y="50.5" type="curve" smooth="yes"/>
      <point x="365.333" y="8.83333"/>
      <point x="314.667" y="-12"/>
      <point x="258" y="-12" type="curve" smooth="yes"/>
      <point x="190.667" y="-12"/>
      <point x="136.833" y="10"/>
      <point x="96.5" y="54" type="curve" smooth="yes"/>
      <point x="56.1667" y="98"/>
      <point x="36" y="149.667"/>
      <point x="36" y="209" type="curve" smooth="yes"/>
      <point x="36" y="261"/>
      <point x="48.3333" y="306"/>
      <point x="73" y="344" type="curve" smooth="yes"/>
      <point x="112.611" y="405.022"/>
      <point x="172.505" y="450"/>
    </contour>
    <contour>
      <point x="375" y="203" type="curve" smooth="yes"/>
      <point x="375" y="306.425"/>
      <point x="340.335" y="416"/>
      <point x="246" y="416" type="curve" smooth="yes"/>
      <point x="216" y="416"/>
      <point x="190.5" y="400.667"/>
      <point x="169.5" y="370" type="curve" smooth="yes"/>
      <point x="148.5" y="339.333"/>
      <point x="138" y="296.667"/>
      <point x="138" y="242" type="curve" smooth="yes"/>
      <point x="138" y="138.733"/>
      <point x="175.835" y="22"/>
      <point x="269" y="22" type="curve" smooth="yes"/>
      <point x="339.667" y="22"/>
      <point x="375" y="82.3333"/>
    </contour>
    <contour>
      <point x="295" y="503" type="line"/>
      <point x="267" y="490" type="line"/>
      <point x="148" y="649" type="line"/>
      <point x="151" y="658" type="line"/>
      <point x="158.593" y="662.745"/>
      <point x="212.78" y="673.154"/>
      <point x="228.858" y="673.154" type="curve" smooth="yes"/>
      <point x="230.389" y="673.154"/>
      <point x="231.769" y="673.103"/>
      <point x="233" y="673" type="curve"/>
    </contour>
  </outline>
</glyph>
<glyph name="oacute" format="2">
  <advance width="513"/>
  <unicode hex="00F3"/>
  <outline>
    <contour>
      <point x="260" y="450" type="curve" smooth="yes"/>
      <point x="322" y="450"/>
      <point x="373.667" y="428.167"/>
      <point x="415" y="384.5" type="curve" smooth="yes"/>
      <point x="456.333" y="340.833"/>
      <point x="477" y="288"/>
      <point x="477" y="226" type="curve" smooth="yes"/>
      <point x="477" y="150.667"/>
      <point x="454.667" y="92.1667"/>
      <point x="410" y="50.5" type="curve" smooth="yes"/>
      <point x="365.333" y="8.83333"/>
      <point x="314.667" y="-12"/>
      <point x="258" y="-12" type="curve" smooth="yes"/>
      <point x="190.667" y="-12"/>
      <point x="136.833" y="10"/>
      <point x="96.5" y="54" type="curve" smooth="yes"/>
      <point x="56.1667" y="98"/>
      <point x="36" y="149.667"/>
      <point x="36" y="209" type="curve" smooth="yes"/>
      <point x="36" y="261"/>
      <point x="48.3333" y="306"/>
      <point x="73" y="344" type="curve" smooth="yes"/>
      <point x="112.611" y="405.022"/>
      <point x="172.505" y="450"/>
    </contour>
    <contour>
      <point x="375" y="203" type="curve" smooth="yes"/>
      <point x="375" y="306.425"/>
      <point x="340.335" y="416"/>
      <point x="246" y="416" type="curve" smooth="yes"/>
      <point x="216" y="416"/>
      <point x="190.5" y="400.667"/>
      <point x="169.5" y="370" type="curve" smooth="yes"/>
      <point x="148.5" y="339.333"/>
      <point x="138" y="296.667"/>
      <point x="138" y="242" type="curve" smooth="yes"/>
      <point x="138" y="138.733"/>
      <point x="175.835" y="22"/>
      <point x="269" y="22" type="curve" smooth="yes"/>
      <point x="339.667" y="22"/>
      <point x="375" y="82.3333"/>
    </contour>
    <contour>
      <point x="248" y="492" type="line"/>
      <point x="221" y="506" type="line"/>
      <point x="234.273" y="535.864"/>
      <point x="256.519" y="593.796"/>
      <point x="270" y="627.5" type="curve" smooth="yes"/>
      <point x="285" y="665" type="line"/>
      <point x="291.088" y="668.044"/>
      <point x="345.66" y="675.667"/>
      <point x="362.167" y="675.667" type="curve" smooth="yes"/>
      <point x="366.056" y="675.667"/>
      <point x="369" y="675.445"/>
      <point x="371" y="675" type="curve"/>
      <point x="375" y="665" type="line"/>
    </contour>
  </outline>
</glyph>
<glyph name="odieresis" format="2">
  <advance width="513"/>
  <unicode hex="00F6"/>
  <outline>
    <contour>
      <point x="259" y="450" type="curve" smooth="yes"/>
      <point x="321" y="450"/>
      <point x="372.833" y="428.167"/>
      <point x="414.5" y="384.5" type="curve" smooth="yes"/>
      <point x="456.167" y="340.833"/>
      <point x="477" y="288"/>
      <point x="477" y="226" type="curve" smooth="yes"/>
      <point x="477" y="151.333"/>
      <point x="454.667" y="93"/>
      <point x="410" y="51" type="curve" smooth="yes"/>
      <point x="365.333" y="9"/>
      <point x="314.667" y="-12"/>
      <point x="258" y="-12" type="curve" smooth="yes"/>
      <point x="190.667" y="-12"/>
      <point x="136.833" y="10"/>
      <point x="96.5" y="54" type="curve" smooth="yes"/>
      <point x="56.1667" y="98"/>
      <point x="36" y="149.667"/>
      <point x="36" y="209" type="curve" smooth="yes"/>
      <point x="36" y="261"/>
      <point x="48.3333" y="306"/>
      <point x="73" y="344" type="curve" smooth="yes"/>
      <point x="112.608" y="405.018"/>
      <point x="171.585" y="450"/>
    </contour>
    <contour>
      <point x="375" y="203" type="curve" smooth="yes"/>
      <point x="375" y="306.425"/>
      <point x="340.335" y="416"/>
      <point x="246" y="416" type="curve" smooth="yes"/>
      <point x="216" y="416"/>
      <point x="190.5" y="400.667"/>
      <point x="169.5" y="370" type="curve" smooth="yes"/>
      <point x="148.5" y="339.333"/>
      <point x="138" y="296.667"/>
      <point x="138" y="242" type="curve" smooth="yes"/>
      <point x="138" y="138.733"/>
      <point x="175.835" y="22"/>
      <point x="269" y="22" type="curve" smooth="yes"/>
      <point x="339.667" y="22"/>
      <point x="375" y="82.3333"/>
    </contour>
    <contour>
      <point x="220" y="586" type="curve" smooth="yes"/>
      <point x="220" y="557.726"/>
      <point x="196.593" y="534"/>
      <point x="168" y="534" type="curve" smooth="yes"/>
      <point x="141.069" y="534"/>
      <point x="118" y="558.808"/>
      <point x="118" y="586" type="curve" smooth="yes"/>
      <point x="118" y="614.591"/>
      <point x="140.705" y="638"/>
      <point x="169" y="638" type="curve" smooth="yes"/>
      <point x="198.151" y="638"/>
      <point x="220" y="615.124"/>
    </contour>
    <contour>
      <point x="395" y="586" type="curve" smooth="yes"/>
      <point x="395" y="557.726"/>
      <point x="371.593" y="534"/>
      <point x="343" y="534" type="curve" smooth="yes"/>
      <point x="316.069" y="534"/>
      <point x="293" y="558.808"/>
      <point x="293" y="586" type="curve" smooth="yes"/>
      <point x="293" y="614.591"/>
      <point x="315.705" y="638"/>
      <point x="344" y="638" type="curve" smooth="yes"/>
      <point x="373.151" y="638"/>
      <point x="395" y="615.124"/>
    </contour>
  </outline>
</glyph>
<glyph name="divide" format="2">
  <advance width="579"/>
  <unicode hex="00F7"/>
  <outline>
    <contour>
      <point x="344" y="404" type="curve" smooth="yes"/>
      <point x="344" y="374.849"/>
      <point x="320.098" y="353"/>
      <point x="291" y="353" type="curve" smooth="yes"/>
      <point x="264.909" y="353"/>
      <point x="241" y="377.313"/>
      <point x="241" y="404" type="curve" smooth="yes"/>
      <point x="241" y="430.38"/>
      <point x="265.621" y="455"/>
      <point x="292" y="455" type="curve" smooth="yes"/>
      <point x="319.201" y="455"/>
      <point x="344" y="430.914"/>
    </contour>
    <contour>
      <point x="530" y="228" type="line"/>
      <point x="51" y="228" type="line"/>
      <point x="51" y="280" type="line"/>
      <point x="530" y="280" type="line"/>
    </contour>
    <contour>
      <point x="239" y="104" type="curve" smooth="yes"/>
      <point x="239" y="133.669"/>
      <point x="262.055" y="155"/>
      <point x="292" y="155" type="curve" smooth="yes"/>
      <point x="318.091" y="155"/>
      <point x="342" y="130.687"/>
      <point x="342" y="104" type="curve" smooth="yes"/>
      <point x="342" y="78.156"/>
      <point x="316.538" y="53"/>
      <point x="291" y="53" type="curve" smooth="yes"/>
      <point x="263.799" y="53"/>
      <point x="239" y="77.0864"/>
    </contour>
  </outline>
</glyph>
<glyph name="oslash" format="2">
  <advance width="516"/>
  <unicode hex="00F8"/>
  <outline>
    <contour>
      <point x="117" y="38" type="line"/>
      <point x="72.3148" y="74.6648"/>
      <point x="36" y="134.737"/>
      <point x="36" y="210" type="curve" smooth="yes"/>
      <point x="36" y="327.765"/>
      <point x="101.66" y="402.561"/>
      <point x="186" y="435" type="curve" smooth="yes"/>
      <point x="212" y="445"/>
      <point x="237.333" y="450"/>
      <point x="262" y="450" type="curve" smooth="yes"/>
      <point x="301.333" y="450"/>
      <point x="337.667" y="440.333"/>
      <point x="371" y="421" type="curve"/>
      <point x="407" y="474" type="line"/>
      <point x="434" y="455" type="line"/>
      <point x="399" y="403" type="line"/>
      <point x="453" y="358.333"/>
      <point x="480" y="299.667"/>
      <point x="480" y="227" type="curve" smooth="yes"/>
      <point x="480" y="152.333"/>
      <point x="457.667" y="93.8333"/>
      <point x="413" y="51.5" type="curve" smooth="yes"/>
      <point x="368.333" y="9.16667"/>
      <point x="317.333" y="-12"/>
      <point x="260" y="-12" type="curve" smooth="yes"/>
      <point x="218.667" y="-12"/>
      <point x="180" y="-2"/>
      <point x="144" y="18" type="curve"/>
      <point x="106" y="-36" type="line"/>
      <point x="80" y="-14" type="line"/>
    </contour>
    <contour>
      <point x="161" y="104" type="curve"/>
      <point x="336" y="370" type="line"/>
      <point x="315.333" y="400.667"/>
      <point x="287" y="416"/>
      <point x="251" y="416" type="curve" smooth="yes"/>
      <point x="218.333" y="416"/>
      <point x="190.5" y="400"/>
      <point x="167.5" y="368" type="curve" smooth="yes"/>
      <point x="144.5" y="336"/>
      <point x="133" y="291.333"/>
      <point x="133" y="234" type="curve" smooth="yes"/>
      <point x="133" y="182.667"/>
      <point x="142.333" y="139.333"/>
    </contour>
    <contour>
      <point x="356" y="338" type="curve"/>
      <point x="182" y="72" type="line"/>
      <point x="202.667" y="38"/>
      <point x="232" y="21"/>
      <point x="270" y="21" type="curve" smooth="yes"/>
      <point x="302.667" y="21"/>
      <point x="329.833" y="36.5"/>
      <point x="351.5" y="67.5" type="curve" smooth="yes"/>
      <point x="373.167" y="98.5"/>
      <point x="384" y="147"/>
      <point x="384" y="213" type="curve" smooth="yes"/>
      <point x="384" y="261"/>
      <point x="374.667" y="302.667"/>
    </contour>
  </outline>
</glyph>
<glyph name="udieresis" format="2">
  <advance width="535"/>
  <unicode hex="00FC"/>
  <outline>
    <contour>
      <point x="287" y="428" type="line"/>
      <point x="336.353" y="429.41"/>
      <point x="392.63" y="435.235"/>
      <point x="450" y="445" type="curve"/>
      <point x="450" y="113" type="line" smooth="yes"/>
      <point x="450" y="66.1873"/>
      <point x="454.557" y="54.8581"/>
      <point x="496" y="52" type="curve"/>
      <point x="522" y="51" type="line"/>
      <point x="522" y="24" type="line"/>
      <point x="488.662" y="19.6983"/>
      <point x="393.427" y="-4.67178"/>
      <point x="369" y="-12" type="curve"/>
      <point x="362" y="-6" type="line"/>
      <point x="362" y="63" type="line"/>
      <point x="332" y="39.6667"/>
      <point x="308.667" y="23.3333"/>
      <point x="292" y="14" type="curve" smooth="yes"/>
      <point x="262.667" y="-3.33333"/>
      <point x="236.333" y="-12"/>
      <point x="213" y="-12" type="curve" smooth="yes"/>
      <point x="129.35" y="-12"/>
      <point x="88" y="46.3133"/>
      <point x="88" y="136" type="curve" smooth="yes"/>
      <point x="88" y="334" type="line" smooth="yes"/>
      <point x="88" y="377.819"/>
      <point x="86.0968" y="389.226"/>
      <point x="55" y="397" type="curve" smooth="yes"/>
      <point x="28" y="403" type="line"/>
      <point x="28" y="428" type="line"/>
      <point x="84.5758" y="431.233"/>
      <point x="118.029" y="435.245"/>
      <point x="179" y="445" type="curve"/>
      <point x="177" y="423"/>
      <point x="176" y="374.333"/>
      <point x="176" y="299" type="curve" smooth="yes"/>
      <point x="176" y="162" type="line" smooth="yes"/>
      <point x="176" y="89.3333"/>
      <point x="204.333" y="53"/>
      <point x="261" y="53" type="curve" smooth="yes"/>
      <point x="297.667" y="53"/>
      <point x="331.333" y="68"/>
      <point x="362" y="98" type="curve"/>
      <point x="362" y="334" type="line" smooth="yes"/>
      <point x="362" y="379.867"/>
      <point x="358.672" y="391.132"/>
      <point x="322" y="397" type="curve" smooth="yes"/>
      <point x="287" y="403" type="line"/>
    </contour>
    <contour>
      <point x="223" y="587" type="curve" smooth="yes"/>
      <point x="223" y="558.726"/>
      <point x="199.593" y="535"/>
      <point x="171" y="535" type="curve" smooth="yes"/>
      <point x="144.069" y="535"/>
      <point x="121" y="559.808"/>
      <point x="121" y="587" type="curve" smooth="yes"/>
      <point x="121" y="615.591"/>
      <point x="143.705" y="639"/>
      <point x="172" y="639" type="curve" smooth="yes"/>
      <point x="201.151" y="639"/>
      <point x="223" y="616.124"/>
    </contour>
    <contour>
      <point x="398" y="586" type="curve" smooth="yes"/>
      <point x="398" y="557.702"/>
      <point x="375.621" y="535"/>
      <point x="347" y="535" type="curve" smooth="yes"/>
      <point x="319.234" y="535"/>
      <point x="296" y="558.235"/>
      <point x="296" y="586" type="curve" smooth="yes"/>
      <point x="296" y="615.099"/>
      <point x="318.876" y="639"/>
      <point x="348" y="639" type="curve" smooth="yes"/>
      <point x="376.307" y="639"/>
      <point x="398" y="614.549"/>
    </contour>
  </outline>
</glyph>
<glyph name="yacute" format="2">
  <advance width="460"/>
  <unicode hex="00FD"/>
  <outline>
    <contour>
      <point x="211" y="411" type="line"/>
      <point x="183.788" y="406.198"/>
      <point x="166.286" y="402.803"/>
      <point x="166.286" y="383.306" type="curve" smooth="yes"/>
      <point x="166.286" y="376.721"/>
      <point x="168.191" y="368.286"/>
      <point x="172" y="358" type="curve" smooth="yes"/>
      <point x="260" y="112" type="line"/>
      <point x="291.333" y="186"/>
      <point x="321" y="267"/>
      <point x="349" y="355" type="curve" smooth="yes"/>
      <point x="351.919" y="364.081"/>
      <point x="353.378" y="371.821"/>
      <point x="353.378" y="378.22" type="curve" smooth="yes"/>
      <point x="353.378" y="384.974"/>
      <point x="351.752" y="390.234"/>
      <point x="348.5" y="394" type="curve" smooth="yes"/>
      <point x="342.167" y="401.333"/>
      <point x="325.333" y="407"/>
      <point x="298" y="411" type="curve"/>
      <point x="298" y="438" type="line"/>
      <point x="479" y="438" type="line"/>
      <point x="479" y="411" type="line"/>
      <point x="453" y="407"/>
      <point x="435.167" y="401"/>
      <point x="425.5" y="393" type="curve" smooth="yes"/>
      <point x="402.874" y="374.275"/>
      <point x="381.267" y="319.024"/>
      <point x="364.5" y="279" type="curve" smooth="yes"/>
      <point x="338.54" y="217.031"/>
      <point x="295.399" y="110.369"/>
      <point x="267" y="42" type="curve" smooth="yes"/>
      <point x="212.333" y="-88"/>
      <point x="178" y="-178.667"/>
      <point x="164" y="-230" type="curve" smooth="yes"/>
      <point x="158.667" y="-246.667"/>
      <point x="147.667" y="-255"/>
      <point x="131" y="-255" type="curve" smooth="yes"/>
      <point x="104.61" y="-255"/>
      <point x="72" y="-230.004"/>
      <point x="72" y="-204" type="curve" smooth="yes"/>
      <point x="72" y="-190.667"/>
      <point x="80.6667" y="-178.333"/>
      <point x="98" y="-167" type="curve" smooth="yes"/>
      <point x="128" y="-149"/>
      <point x="153" y="-120.333"/>
      <point x="173" y="-81" type="curve" smooth="yes"/>
      <point x="186.333" y="-57.6667"/>
      <point x="196" y="-36.6667"/>
      <point x="202" y="-18" type="curve" smooth="yes"/>
      <point x="204.041" y="-11.875"/>
      <point x="205.062" y="-5.4948"/>
      <point x="205.062" y="1.1406" type="curve" smooth="yes"/>
      <point x="205.062" y="9.67187"/>
      <point x="203.375" y="18.625"/>
      <point x="200" y="28" type="curve" smooth="yes"/>
      <point x="148.667" y="173.333"/>
      <point x="110" y="276.667"/>
      <point x="84" y="338" type="curve" smooth="yes"/>
      <point x="73.3333" y="365.333"/>
      <point x="63.1667" y="383.5"/>
      <point x="53.5" y="392.5" type="curve" smooth="yes"/>
      <point x="43.8333" y="401.5"/>
      <point x="26" y="407.667"/>
      <point x="0" y="411" type="curve"/>
      <point x="0" y="438" type="line"/>
      <point x="210" y="438" type="line"/>
    </contour>
    <contour>
      <point x="245" y="492" type="line"/>
      <point x="218" y="506" type="line"/>
      <point x="231.273" y="535.864"/>
      <point x="253.519" y="593.796"/>
      <point x="267" y="627.5" type="curve" smooth="yes"/>
      <point x="282" y="665" type="line"/>
      <point x="288.088" y="668.044"/>
      <point x="342.66" y="675.667"/>
      <point x="359.167" y="675.667" type="curve" smooth="yes"/>
      <point x="363.056" y="675.667"/>
      <point x="366" y="675.445"/>
      <point x="368" y="675" type="curve"/>
      <point x="372" y="665" type="line"/>
    </contour>
  </outline>
</glyph>
<glyph name="ydieresis" format="2">
  <advance width="460"/>
  <unicode hex="00FF"/>
  <outline>
    <contour>
      <point x="211" y="411" type="line"/>
      <point x="183.788" y="406.198"/>
      <point x="166.286" y="402.803"/>
      <point x="166.286" y="383.306" type="curve" smooth="yes"/>
      <point x="166.286" y="376.721"/>
      <point x="168.191" y="368.286"/>
      <point x="172" y="358" type="curve" smooth="yes"/>
      <point x="260" y="112" type="line"/>
      <point x="291.333" y="186"/>
      <point x="321" y="267"/>
      <point x="349" y="355" type="curve" smooth="yes"/>
      <point x="351.919" y="364.081"/>
      <point x="353.378" y="371.821"/>
      <point x="353.378" y="378.22" type="curve" smooth="yes"/>
      <point x="353.378" y="384.974"/>
      <point x="351.752" y="390.234"/>
      <point x="348.5" y="394" type="curve" smooth="yes"/>
      <point x="342.167" y="401.333"/>
      <point x="325.333" y="407"/>
      <point x="298" y="411" type="curve"/>
      <point x="298" y="438" type="line"/>
      <point x="479" y="438" type="line"/>
      <point x="479" y="411" type="line"/>
      <point x="453" y="407"/>
      <point x="435.167" y="401"/>
      <point x="425.5" y="393" type="curve" smooth="yes"/>
      <point x="402.874" y="374.275"/>
      <point x="381.267" y="319.024"/>
      <point x="364.5" y="279" type="curve" smooth="yes"/>
      <point x="338.54" y="217.031"/>
      <point x="295.399" y="110.369"/>
      <point x="267" y="42" type="curve" smooth="yes"/>
      <point x="212.333" y="-88"/>
      <point x="178" y="-178.667"/>
      <point x="164" y="-230" type="curve" smooth="yes"/>
      <point x="158.667" y="-246.667"/>
      <point x="147.667" y="-255"/>
      <point x="131" y="-255" type="curve" smooth="yes"/>
      <point x="104.61" y="-255"/>
      <point x="72" y="-230.004"/>
      <point x="72" y="-204" type="curve" smooth="yes"/>
      <point x="72" y="-190.667"/>
      <point x="80.6667" y="-178.333"/>
      <point x="98" y="-167" type="curve" smooth="yes"/>
      <point x="128" y="-149"/>
      <point x="153" y="-120.333"/>
      <point x="173" y="-81" type="curve" smooth="yes"/>
      <point x="186.333" y="-57.6667"/>
      <point x="196" y="-36.6667"/>
      <point x="202" y="-18" type="curve" smooth="yes"/>
      <point x="204.041" y="-11.875"/>
      <point x="205.062" y="-5.4948"/>
      <point x="205.062" y="1.1406" type="curve" smooth="yes"/>
      <point x="205.062" y="9.67187"/>
      <point x="203.375" y="18.625"/>
      <point x="200" y="28" type="curve" smooth="yes"/>
      <point x="148.667" y="173.333"/>
      <point x="110" y="276.667"/>
      <point x="84" y="338" type="curve" smooth="yes"/>
      <point x="73.3333" y="365.333"/>
      <point x="63.1667" y="383.5"/>
      <point x="53.5" y="392.5" type="curve" smooth="yes"/>
      <point x="43.8333" y="401.5"/>
      <point x="26" y="407.667"/>
      <point x="0" y="411" type="curve"/>
      <point x="0" y="438" type="line"/>
      <point x="210" y="438" type="line"/>
    </contour>
    <contour>
      <point x="204" y="587" type="curve" smooth="yes"/>
      <point x="204" y="559.261"/>
      <point x="180.765" y="535"/>
      <point x="153" y="535" type="curve" smooth="yes"/>
      <point x="126.088" y="535"/>
      <point x="102" y="559.803"/>
      <point x="102" y="587" type="curve" smooth="yes"/>
      <point x="102" y="615.596"/>
      <point x="125.725" y="639"/>
      <point x="154" y="639" type="curve" smooth="yes"/>
      <point x="182.312" y="639"/>
      <point x="204" y="615.582"/>
    </contour>
    <contour>
      <point x="379" y="587" type="curve" smooth="yes"/>
      <point x="379" y="559.261"/>
      <point x="355.765" y="535"/>
      <point x="328" y="535" type="curve" smooth="yes"/>
      <point x="301.088" y="535"/>
      <point x="277" y="559.803"/>
      <point x="277" y="587" type="curve" smooth="yes"/>
      <point x="277" y="615.596"/>
      <point x="300.725" y="639"/>
      <point x="329" y="639" type="curve" smooth="yes"/>
      <point x="357.312" y="639"/>
      <point x="379" y="615.582"/>
    </contour>
  </outline>
</glyph>
<glyph name="amacron" format="2">
  <advance width="444"/>
  <unicode hex="0101"/>
  <outline>
    <contour>
      <point x="227" y="450" type="curve"/>
      <point x="316.475" y="450"/>
      <point x="358" y="391.202"/>
      <point x="358" y="298" type="curve" smooth="yes"/>
      <point x="358" y="116" type="line" smooth="yes"/>
      <point x="358" y="76.6667"/>
      <point x="369.667" y="57"/>
      <point x="393" y="57" type="curve" smooth="yes"/>
      <point x="405" y="57"/>
      <point x="416.667" y="60.3333"/>
      <point x="428" y="67" type="curve"/>
      <point x="438" y="40" type="line"/>
      <point x="349" y="-12" type="line"/>
      <point x="309.312" y="-12"/>
      <point x="285.095" y="18.1908"/>
      <point x="275" y="51" type="curve"/>
      <point x="259.032" y="40.3545"/>
      <point x="237.854" y="25.6811"/>
      <point x="222.5" y="15" type="curve" smooth="yes"/>
      <point x="207.957" y="4.88285"/>
      <point x="203.81" y="3.90477"/>
      <point x="189" y="-3.5" type="curve" smooth="yes"/>
      <point x="179.592" y="-8.20403"/>
      <point x="171.445" y="-12"/>
      <point x="160" y="-12" type="curve" smooth="yes"/>
      <point x="92.4079" y="-12"/>
      <point x="37" y="45.0023"/>
      <point x="37" y="111" type="curve" smooth="yes"/>
      <point x="37" y="157.667"/>
      <point x="63.6667" y="190.333"/>
      <point x="117" y="209" type="curve" smooth="yes"/>
      <point x="205" y="239.667"/>
      <point x="257" y="261.667"/>
      <point x="273" y="275" type="curve"/>
      <point x="273" y="294" type="line" smooth="yes"/>
      <point x="273" y="354.232"/>
      <point x="248.871" y="405"/>
      <point x="193" y="405" type="curve" smooth="yes"/>
      <point x="175" y="405"/>
      <point x="160.667" y="398.667"/>
      <point x="150" y="386" type="curve" smooth="yes"/>
      <point x="138.667" y="372.667"/>
      <point x="129" y="350.333"/>
      <point x="121" y="319" type="curve" smooth="yes"/>
      <point x="116.333" y="302.333"/>
      <point x="105.667" y="294"/>
      <point x="89" y="294" type="curve" smooth="yes"/>
      <point x="67.4902" y="294"/>
      <point x="42" y="316.117"/>
      <point x="42" y="338" type="curve" smooth="yes"/>
      <point x="42" y="350"/>
      <point x="53" y="364"/>
      <point x="75" y="380" type="curve" smooth="yes"/>
      <point x="108.127" y="404.208"/>
      <point x="179.022" y="439.899"/>
    </contour>
    <contour>
      <point x="131" y="127" type="curve" smooth="yes"/>
      <point x="131" y="84.4618"/>
      <point x="160.41" y="51"/>
      <point x="200" y="51" type="curve" smooth="yes"/>
      <point x="226" y="51"/>
      <point x="250.333" y="61.6667"/>
      <point x="273" y="83" type="curve"/>
      <point x="273" y="240" type="line"/>
      <point x="234.561" y="218.645"/>
      <point x="171.377" y="199.145"/>
      <point x="145" y="169" type="curve" smooth="yes"/>
      <point x="135.667" y="158.333"/>
      <point x="131" y="144.333"/>
    </contour>
    <contour>
      <point x="321" y="547" type="line"/>
      <point x="96" y="547" type="line"/>
      <point x="96" y="605" type="line"/>
      <point x="321" y="605" type="line"/>
    </contour>
  </outline>
</glyph>
